<svg width="401" height="760" viewBox="0 0 401 760" fill="none" xmlns="http://www.w3.org/2000/svg"><g filter="url(#filter0_d)" fill="#fff"><path d="M378.752 181.884h-.5c-.828 0-1.499.671-1.499 1.499v80.944a1.5 1.5 0 001.499 1.499h.5a1.5 1.5 0 001.498-1.499v-80.944c0-.828-.671-1.499-1.498-1.499zM21.499 230.851c-.828 0-1.499.671-1.499 1.499v48.966a1.499 1.499 0 102.998 0V232.35c0-.828-.671-1.499-1.499-1.499zm0-65.955A1.5 1.5 0 0020 166.395v48.966a1.499 1.499 0 102.998 0v-48.966a1.5 1.5 0 00-1.499-1.499zm0-51.463c-.828 0-1.499.671-1.499 1.499v24.483a1.499 1.499 0 102.998 0v-24.483c0-.828-.671-1.499-1.499-1.499z"/><path d="M323.04 16H76.711C46.495 16 22 40.495 22 70.712v610.576C22 711.505 46.495 736 76.713 736h102.56c.735 0 1.46-.171 2.117-.5a4.74 4.74 0 012.116-.499h32.742a4.74 4.74 0 012.116.499c.657.329 1.382.5 2.117.5h102.56c30.217 0 54.713-24.495 54.713-54.712V70.712C377.753 40.495 353.257 16 323.04 16z"/><path d="M323.041 17.999H76.712c-29.389 0-53.213 23.824-53.213 53.213v609.576c0 29.389 23.824 53.213 53.213 53.213h246.329c29.389 0 53.213-23.824 53.213-53.213V71.212c0-29.389-23.824-53.213-53.213-53.213z"/><path d="M344.975 30.506a.616.616 0 00-.738.958c10.732 11.993 18.527 26.697 18.527 38.628v612.816c0 11.625-7.403 25.884-17.712 37.701a.61.61 0 00-.012.786.612.612 0 00.771.154 44.583 44.583 0 0023.207-39.141V70.092a44.591 44.591 0 00-24.043-39.587zM36.988 682.908V70.091c0-11.93 7.794-26.634 18.527-38.627a.615.615 0 00-.738-.958A44.592 44.592 0 0030.734 70.09v612.317a44.585 44.585 0 0023.207 39.141.61.61 0 00.907-.549.614.614 0 00-.148-.391c-10.31-11.817-17.712-26.076-17.712-37.701zm340.765-20.357h-5.497v4.996h5.497v-4.996zm-350.257 0H22v4.996h5.496v-4.996zm350.257-577.1h-5.497v4.997h5.497V85.45zm-350.254.001h-5.497v4.997H27.5v-4.997z"/></g><defs><filter id="filter0_d" x="0" y="0" width="400.25" height="760" filterUnits="userSpaceOnUse" color-interpolation-filters="sRGB"><feFlood flood-opacity="0" result="BackgroundImageFix"/><feColorMatrix in="SourceAlpha" values="0 0 0 0 0 0 0 0 0 0 0 0 0 0 0 0 0 0 127 0"/><feOffset dy="4"/><feGaussianBlur stdDeviation="10"/><feColorMatrix values="0 0 0 0 0 0 0 0 0 0 0 0 0 0 0 0 0 0 0.15 0"/><feBlend in2="BackgroundImageFix" result="effect1_dropShadow"/><feBlend in="SourceGraphic" in2="effect1_dropShadow" result="shape"/></filter></defs></svg>