<?xml version="1.0" standalone="no"?>
<!DOCTYPE svg PUBLIC "-//W3C//DTD SVG 20010904//EN"
 "http://www.w3.org/TR/2001/REC-SVG-20010904/DTD/svg10.dtd">
<svg version="1.0" xmlns="http://www.w3.org/2000/svg"
 width="848.000000pt" height="848.000000pt" viewBox="0 0 848.000000 848.000000"
 preserveAspectRatio="xMidYMid meet">
<metadata>
Created by potrace 1.14, written by Peter Selinger 2001-2017
</metadata>
<g transform="translate(0.000000,848.000000) scale(0.100000,-0.100000)"
fill="#000000" stroke="none">
<path d="M4269 8443 c-19 -15 -39 -32 -45 -38 -6 -5 -37 -33 -70 -62 -358
-311 -622 -624 -771 -913 -71 -137 -130 -297 -148 -400 -3 -19 -10 -53 -14
-75 -5 -22 -9 -47 -9 -55 0 -8 -3 -33 -6 -55 -5 -35 -10 -182 -6 -195 0 -3 3
-42 5 -88 2 -46 7 -99 10 -119 3 -19 8 -61 11 -92 2 -31 7 -63 9 -71 2 -8 7
-37 10 -65 4 -27 8 -61 10 -74 23 -141 23 -341 1 -448 -18 -84 -58 -192 -87
-234 -10 -14 -16 -29 -12 -33 3 -3 1 -6 -5 -6 -7 0 -12 -5 -12 -10 0 -6 -4
-16 -10 -23 -5 -7 -33 -41 -62 -77 -47 -58 -175 -190 -185 -190 -2 0 -16 -12
-31 -26 -15 -14 -35 -29 -44 -35 -15 -8 -16 -5 -7 24 27 90 29 290 5 392 -16
65 -37 131 -50 159 -8 17 -19 42 -25 56 -15 36 -63 116 -83 140 -10 11 -18 24
-18 29 0 5 -44 54 -97 108 -97 99 -173 160 -245 198 -21 11 -38 22 -38 26 0 4
-9 9 -20 12 -25 6 -25 1 1 -53 59 -121 89 -274 90 -455 1 -31 -12 -194 -16
-215 -2 -13 -7 -42 -10 -65 -10 -68 -16 -98 -20 -105 -2 -4 -7 -21 -10 -39
-10 -58 -44 -198 -54 -222 -5 -13 -19 -58 -31 -99 -13 -41 -45 -136 -72 -210
-27 -74 -50 -139 -52 -145 -1 -5 -4 -15 -8 -20 -4 -6 -18 -42 -32 -80 -15 -39
-30 -79 -36 -90 -12 -25 -43 -98 -44 -105 -1 -3 -7 -14 -13 -25 -6 -11 -12
-24 -13 -30 -5 -21 -13 -42 -41 -103 -16 -34 -29 -65 -29 -68 0 -4 -10 -28
-21 -53 -12 -25 -25 -55 -30 -66 -5 -11 -25 -56 -44 -100 -20 -44 -36 -82 -36
-85 -1 -3 -6 -18 -13 -35 -7 -16 -26 -68 -41 -115 -36 -106 -38 -113 -40 -122
-2 -5 -3 -9 -5 -10 -1 -2 -3 -10 -5 -18 -1 -8 -10 -42 -18 -75 -16 -59 -19
-75 -38 -185 -20 -113 -24 -180 -24 -360 0 -169 8 -308 20 -364 2 -11 7 -43
10 -70 3 -27 8 -52 10 -55 1 -3 6 -24 9 -46 18 -114 90 -365 139 -485 6 -14
11 -27 12 -30 24 -70 136 -293 204 -405 159 -262 346 -480 599 -697 55 -48
220 -168 231 -168 5 0 11 -3 13 -7 6 -14 102 -73 245 -148 77 -41 229 -109
258 -115 6 -1 16 -6 23 -12 6 -6 12 -7 12 -3 0 4 6 3 13 -2 11 -10 132 -50
202 -68 17 -5 35 -10 40 -11 22 -7 110 -27 200 -44 67 -13 181 -27 280 -35 28
-2 50 -4 50 -5 0 -5 266 -1 335 4 185 15 395 51 510 86 19 6 45 13 57 16 26 5
234 79 283 101 98 43 227 108 244 122 10 9 19 14 20 12 0 -3 20 8 43 22 24 15
45 27 47 27 17 0 288 199 378 278 91 79 252 248 318 332 19 25 37 47 40 50 23
22 150 208 150 219 0 6 4 11 9 11 5 0 11 8 14 18 6 18 38 74 48 82 3 3 24 41
46 85 22 44 46 91 53 105 8 14 15 27 15 30 1 3 6 16 12 30 49 116 69 169 99
260 35 105 62 203 70 250 3 14 7 33 10 42 12 41 41 228 52 333 14 145 7 550
-13 665 -9 59 -17 107 -20 130 -7 49 -42 204 -64 283 -6 20 -15 52 -20 70 -10
35 -57 170 -71 202 -34 78 -50 119 -50 131 0 8 -4 14 -10 14 -5 0 -10 5 -10
11 0 22 -129 268 -190 364 -11 17 -23 37 -27 45 -4 8 -26 43 -50 77 -24 35
-43 66 -43 69 0 2 -11 17 -25 32 -14 15 -25 30 -25 34 0 5 -7 16 -16 26 -8 9
-50 62 -91 117 -42 55 -79 102 -83 105 -3 3 -13 15 -21 26 -13 20 -86 105
-134 158 -11 12 -40 44 -64 71 -61 69 -322 344 -461 485 -237 241 -407 419
-485 505 -111 123 -126 140 -196 225 -33 41 -69 84 -78 95 -64 77 -241 343
-241 363 0 6 -4 12 -8 14 -12 4 -98 177 -124 247 -11 31 -24 60 -29 66 -5 5
-9 19 -9 30 0 12 -3 25 -7 29 -4 3 -8 12 -9 19 -1 7 -10 39 -19 72 -17 62 -22
82 -29 125 -2 14 -7 39 -10 55 -24 112 -24 392 -1 525 2 14 7 43 11 64 3 22
10 50 15 63 5 13 7 23 5 23 -2 0 2 24 10 53 8 28 17 63 20 75 3 13 11 42 19
65 8 23 13 43 11 45 -2 1 -19 -10 -37 -25z"/>
</g>
</svg>
