<svg width="119" height="119" viewBox="0 0 119 119" fill="none" xmlns="http://www.w3.org/2000/svg"><path d="M59.207 118.414c32.699 0 59.207-26.508 59.207-59.207C118.414 26.507 91.906 0 59.207 0 26.507 0 0 26.508 0 59.207s26.508 59.207 59.207 59.207z" fill="#fff"/><mask id="a" maskUnits="userSpaceOnUse" x="30" y="35" width="58" height="49" fill="#000"><path fill="#fff" d="M30 35h58v49H30z"/><path d="M86.829 59.242c-.25-.254-.598-.4-.956-.4h-1.99a4.856 4.856 0 00-.683-1.29l-.97-1.317a4.886 4.886 0 001.506-3.29 4.892 4.892 0 00-1.595-3.884l-.636-.588a4.906 4.906 0 00-.508-6.265l-2.358-2.405a3.692 3.692 0 00-4.359-.664l-2.97 1.591a4.9 4.9 0 00-2.349 5.827l-.795.372a4.9 4.9 0 00-2.678 3.234 4.895 4.895 0 00.461 3.587l-1.2.884a7.862 7.862 0 00-1.337-1.802c.508-.942.64-2.038.353-3.088a4.179 4.179 0 00-2.363-2.74l-1.162-.508a4.179 4.179 0 00-.316-2.989 4.175 4.175 0 00-2.838-2.188l-.621-.137a4.184 4.184 0 00-3.065-4.32l-2.706-.75a3.184 3.184 0 00-3.535 1.385l-1.478 2.386a4.19 4.19 0 00.688 5.253l-.368.522a4.307 4.307 0 00-.48.909c-3.714-1.897-7.72-2.354-7.978-2.382l-.414-.042-.203.362c-.197.348-4.575 8.237-2.17 14.337h-2.428c-.358 0-.706.146-.956.4-.25.26-.38.594-.372.951.212 8.444 4.17 16.272 10.864 21.473a4.76 4.76 0 002.9.984h28.678a4.73 4.73 0 002.9-.984c6.688-5.201 10.647-13.029 10.863-21.473a1.322 1.322 0 00-.376-.95zM65.27 55.821c.038-.029.07-.057.109-.085l2.301-1.69-.372-.508a3.643 3.643 0 011.394-5.46l1.802-.843-.343-1.059a3.642 3.642 0 011.746-4.33l2.97-1.591a2.423 2.423 0 012.862.438l2.358 2.405a3.644 3.644 0 01.377 4.655l-.64.908 1.468 1.342a3.638 3.638 0 011.186 2.885 3.631 3.631 0 01-1.478 2.744l-.508.372 1.69 2.302c.127.174.235.353.33.541h-8.38l.519-3.389 5.144-2.4a.632.632 0 00-.532-1.144l-4.386 2.047 1.115-7.324a.632.632 0 00-1.247-.193l-1.111 7.32-3.577-3.262a.627.627 0 00-.89.042.627.627 0 00.042.89l4.199 3.826-.546 3.578h-7.178v-.047c.005-.123.01-.25.01-.372a9.82 9.82 0 00-.01-.377c0-.038-.005-.075-.005-.113-.004-.09-.014-.179-.019-.263l-.014-.127c-.01-.085-.019-.175-.033-.26a.944.944 0 00-.018-.112c-.015-.1-.033-.193-.052-.292l-.014-.075a4.52 4.52 0 00-.085-.363c-.005-.019-.01-.037-.014-.061-.029-.099-.052-.193-.085-.292-.014-.038-.023-.08-.038-.117a2.587 2.587 0 00-.047-.146zm-14.229 3.017a6.346 6.346 0 010-.81c0-.033.005-.066.01-.103.01-.1.014-.198.028-.297l.014-.104c.014-.098.028-.202.047-.3l.014-.085a8.06 8.06 0 01.08-.363c0-.005.005-.01.005-.014.033-.123.066-.245.104-.367l.042-.123c.023-.07.052-.145.075-.216l.07-.179c.02-.047.043-.094.062-.141.033-.07.061-.141.094-.212.005-.014.014-.023.02-.038a7.5 7.5 0 01.253-.47c.014-.029.033-.057.047-.085.047-.08.1-.155.15-.235a7.008 7.008 0 01.607-.781l.006-.006c.282-.31.598-.597.936-.851.015-.01.033-.024.048-.033a6.67 6.67 0 01.847-.532c.056-.029.113-.061.17-.09.08-.037.155-.075.235-.113.037-.014.07-.033.108-.051.117-.052.24-.1.362-.142.033-.014.066-.023.1-.033.098-.032.202-.066.3-.094l.1-.028c.263-.07.531-.127.804-.165l.099-.014c.104-.014.212-.023.32-.033.038-.005.075-.005.113-.01a6.096 6.096 0 01.739-.004c.042 0 .085.005.132.01l.188.014c.052.004.108.014.16.018.052.005.104.015.155.02l.175.028c.047.009.089.014.136.023.061.01.122.024.179.038l.127.028c.061.014.122.028.184.047.042.01.084.024.122.033.061.019.118.033.174.052l.132.042.165.057c.051.019.099.037.15.06l.137.057.202.09.08.037a6.733 6.733 0 013.347 3.644c.014.042.033.084.047.122.023.061.042.118.061.179l.042.132c.02.06.038.127.052.188.01.042.024.085.033.127.019.066.033.132.047.202l.028.118c.014.07.029.141.038.216.005.038.014.076.019.113l.028.226.014.109c.01.08.014.16.02.24 0 .033.004.066.004.094.004.113.01.226.01.339 0 .136-.005.277-.015.419H51.042zm-3.76-14.573a2.924 2.924 0 01-.528-3.718l1.474-2.387a1.918 1.918 0 012.127-.833l2.702.749a2.928 2.928 0 012.137 3.087l-.09 1.012 1.709.372a2.916 2.916 0 011.986 1.53c.4.786.429 1.699.076 2.504l-.255.579 2.274.993a2.9 2.9 0 011.652 1.916c.174.64.127 1.308-.122 1.901a7.478 7.478 0 00-.88-.555c-.015-.01-.029-.014-.043-.024l-.273-.14c-.023-.015-.052-.024-.075-.038a6.474 6.474 0 00-.264-.118c-.023-.01-.047-.024-.075-.033a4.585 4.585 0 00-.325-.127c-.037-.014-.075-.029-.118-.043-.07-.023-.14-.051-.216-.07-.052-.019-.108-.033-.16-.047-.061-.02-.118-.033-.179-.052l-.17-.042c-.06-.014-.122-.029-.188-.043-.051-.014-.108-.023-.16-.037a3.914 3.914 0 00-.325-.057 1.453 1.453 0 00-.14-.019l-.227-.028-.145-.014c-.08-.01-.16-.014-.24-.019-.043-.005-.085-.005-.123-.01-.122-.004-.245-.009-.367-.009a6.66 6.66 0 00-.55.024c-.104.01-.208.014-.311.028-.043.005-.09.01-.132.019-.1.014-.193.023-.292.042-.047.01-.09.014-.137.024-.094.019-.188.033-.282.056-.047.01-.094.024-.141.033-.09.019-.18.043-.269.066l-.15.042-.245.076-.16.056c-.07.024-.141.052-.216.08l-.184.07-.165.072c-.075.032-.15.065-.226.103-.014.01-.028.014-.047.024a8.006 8.006 0 00-2.636 2.061 4.48 4.48 0 00-.042-.136c-.019-.057-.033-.118-.052-.175-.028-.084-.051-.164-.08-.249l-.07-.202c-.029-.07-.052-.142-.08-.212a3.8 3.8 0 00-.104-.245l-.07-.16a6.261 6.261 0 00-.194-.4c-.051-.104-.108-.202-.164-.301-.014-.024-.029-.047-.038-.066l-.136-.235c-.014-.024-.029-.043-.043-.066a9.914 9.914 0 00-.155-.236c-.01-.014-.019-.033-.033-.047a12.35 12.35 0 00-.184-.259c-.004-.004-.009-.01-.009-.014-.941-1.285-2.18-2.306-3.516-3.12.09-.288.221-.556.395-.81l1.003-1.436-.734-.687zm-9.456 1.229c1.52.23 6.806 1.219 10.086 4.208l.014.014c.109.099.217.202.325.31l.066.066c.217.221.419.452.612.692.023.028.047.061.07.094.085.109.17.221.245.334.01.015.02.024.029.038.084.123.164.25.244.377.02.033.038.06.057.094.075.132.15.263.221.4.052.103.104.207.15.31.024.052.048.104.067.156l.07.16c.028.07.057.141.08.212l.043.113.084.254c.01.028.02.052.024.08.028.094.056.193.085.287.004.019.009.033.014.052.028.103.052.207.075.315 0 .01.005.019.01.033.023.113.047.221.065.339 0 .005 0 .014.005.019.019.117.042.23.056.353v.01c-.023.042-.037.084-.06.126-.02.033-.034.071-.053.109-.042.084-.08.174-.117.258-.028.062-.052.128-.075.189-.024.066-.052.127-.076.193a10.38 10.38 0 00-.136.404c-.01.033-.02.062-.029.095a4.447 4.447 0 00-.089.339c-.01.037-.019.07-.023.108a19.26 19.26 0 00-.071.334.944.944 0 00-.019.113c-.019.108-.033.221-.047.33l-.014.117a4.12 4.12 0 00-.028.339c-.005.038-.005.075-.01.113a6.59 6.59 0 00-.014.447c0 .123.005.245.01.372v.047h-3.757l-6.17-9.273a.63.63 0 00-.876-.174.63.63 0 00-.174.876l5.71 8.562h-8.379c-2.292-4.89.857-11.688 1.7-13.344zm37.74 35.174a3.467 3.467 0 01-2.124.716H44.763c-.776 0-1.53-.255-2.122-.716a26.762 26.762 0 01-9.16-13.15h51.244a26.792 26.792 0 01-9.16 13.15zm9.517-14.412H33.119a26.856 26.856 0 01-.857-6.1c0-.005 0-.02.014-.038a.077.077 0 01.052-.024h53.55c.024 0 .042.01.052.024.019.019.014.033.014.038a26.86 26.86 0 01-.861 6.1z"/></mask><path d="M86.829 59.242c-.25-.254-.598-.4-.956-.4h-1.99a4.856 4.856 0 00-.683-1.29l-.97-1.317a4.886 4.886 0 001.506-3.29 4.892 4.892 0 00-1.595-3.884l-.636-.588a4.906 4.906 0 00-.508-6.265l-2.358-2.405a3.692 3.692 0 00-4.359-.664l-2.97 1.591a4.9 4.9 0 00-2.349 5.827l-.795.372a4.9 4.9 0 00-2.678 3.234 4.895 4.895 0 00.461 3.587l-1.2.884a7.862 7.862 0 00-1.337-1.802c.508-.942.64-2.038.353-3.088a4.179 4.179 0 00-2.363-2.74l-1.162-.508a4.179 4.179 0 00-.316-2.989 4.175 4.175 0 00-2.838-2.188l-.621-.137a4.184 4.184 0 00-3.065-4.32l-2.706-.75a3.184 3.184 0 00-3.535 1.385l-1.478 2.386a4.19 4.19 0 00.688 5.253l-.368.522a4.307 4.307 0 00-.48.909c-3.714-1.897-7.72-2.354-7.978-2.382l-.414-.042-.203.362c-.197.348-4.575 8.237-2.17 14.337h-2.428c-.358 0-.706.146-.956.4-.25.26-.38.594-.372.951.212 8.444 4.17 16.272 10.864 21.473a4.76 4.76 0 002.9.984h28.678a4.73 4.73 0 002.9-.984c6.688-5.201 10.647-13.029 10.863-21.473a1.322 1.322 0 00-.376-.95zM65.27 55.821c.038-.029.07-.057.109-.085l2.301-1.69-.372-.508a3.643 3.643 0 011.394-5.46l1.802-.843-.343-1.059a3.642 3.642 0 011.746-4.33l2.97-1.591a2.423 2.423 0 012.862.438l2.358 2.405a3.644 3.644 0 01.377 4.655l-.64.908 1.468 1.342a3.638 3.638 0 011.186 2.885 3.631 3.631 0 01-1.478 2.744l-.508.372 1.69 2.302c.127.174.235.353.33.541h-8.38l.519-3.389 5.144-2.4a.632.632 0 00-.532-1.144l-4.386 2.047 1.115-7.324a.632.632 0 00-1.247-.193l-1.111 7.32-3.577-3.262a.627.627 0 00-.89.042.627.627 0 00.042.89l4.199 3.826-.546 3.578h-7.178v-.047c.005-.123.01-.25.01-.372a9.82 9.82 0 00-.01-.377c0-.038-.005-.075-.005-.113-.004-.09-.014-.179-.019-.263l-.014-.127c-.01-.085-.019-.175-.033-.26a.944.944 0 00-.018-.112c-.015-.1-.033-.193-.052-.292l-.014-.075a4.52 4.52 0 00-.085-.363c-.005-.019-.01-.037-.014-.061-.029-.099-.052-.193-.085-.292-.014-.038-.023-.08-.038-.117a2.587 2.587 0 00-.047-.146zm-14.229 3.017a6.346 6.346 0 010-.81c0-.033.005-.066.01-.103.01-.1.014-.198.028-.297l.014-.104c.014-.098.028-.202.047-.3l.014-.085a8.06 8.06 0 01.08-.363c0-.005.005-.01.005-.014.033-.123.066-.245.104-.367l.042-.123c.023-.07.052-.145.075-.216l.07-.179c.02-.047.043-.094.062-.141.033-.07.061-.141.094-.212.005-.014.014-.023.02-.038a7.5 7.5 0 01.253-.47c.014-.029.033-.057.047-.085.047-.08.1-.155.15-.235a7.008 7.008 0 01.607-.781l.006-.006c.282-.31.598-.597.936-.851.015-.01.033-.024.048-.033a6.67 6.67 0 01.847-.532c.056-.029.113-.061.17-.09.08-.037.155-.075.235-.113.037-.014.07-.033.108-.051.117-.052.24-.1.362-.142.033-.014.066-.023.1-.033.098-.032.202-.066.3-.094l.1-.028c.263-.07.531-.127.804-.165l.099-.014c.104-.014.212-.023.32-.033.038-.005.075-.005.113-.01a6.096 6.096 0 01.739-.004c.042 0 .085.005.132.01l.188.014c.052.004.108.014.16.018.052.005.104.015.155.02l.175.028c.047.009.089.014.136.023.061.01.122.024.179.038l.127.028c.061.014.122.028.184.047.042.01.084.024.122.033.061.019.118.033.174.052l.132.042.165.057c.051.019.099.037.15.06l.137.057.202.09.08.037a6.733 6.733 0 013.347 3.644c.014.042.033.084.047.122.023.061.042.118.061.179l.042.132c.02.06.038.127.052.188.01.042.024.085.033.127.019.066.033.132.047.202l.028.118c.014.07.029.141.038.216.005.038.014.076.019.113l.028.226.014.109c.01.08.014.16.02.24 0 .033.004.066.004.094.004.113.01.226.01.339 0 .136-.005.277-.015.419H51.042zm-3.76-14.573a2.924 2.924 0 01-.528-3.718l1.474-2.387a1.918 1.918 0 012.127-.833l2.702.749a2.928 2.928 0 012.137 3.087l-.09 1.012 1.709.372a2.916 2.916 0 011.986 1.53c.4.786.429 1.699.076 2.504l-.255.579 2.274.993a2.9 2.9 0 011.652 1.916c.174.64.127 1.308-.122 1.901a7.478 7.478 0 00-.88-.555c-.015-.01-.029-.014-.043-.024l-.273-.14c-.023-.015-.052-.024-.075-.038a6.474 6.474 0 00-.264-.118c-.023-.01-.047-.024-.075-.033a4.585 4.585 0 00-.325-.127c-.037-.014-.075-.029-.118-.043-.07-.023-.14-.051-.216-.07-.052-.019-.108-.033-.16-.047-.061-.02-.118-.033-.179-.052l-.17-.042c-.06-.014-.122-.029-.188-.043-.051-.014-.108-.023-.16-.037a3.914 3.914 0 00-.325-.057 1.453 1.453 0 00-.14-.019l-.227-.028-.145-.014c-.08-.01-.16-.014-.24-.019-.043-.005-.085-.005-.123-.01-.122-.004-.245-.009-.367-.009a6.66 6.66 0 00-.55.024c-.104.01-.208.014-.311.028-.043.005-.09.01-.132.019-.1.014-.193.023-.292.042-.047.01-.09.014-.137.024-.094.019-.188.033-.282.056-.047.01-.094.024-.141.033-.09.019-.18.043-.269.066l-.15.042-.245.076-.16.056c-.07.024-.141.052-.216.08l-.184.07-.165.072c-.075.032-.15.065-.226.103-.014.01-.028.014-.047.024a8.006 8.006 0 00-2.636 2.061 4.48 4.48 0 00-.042-.136c-.019-.057-.033-.118-.052-.175-.028-.084-.051-.164-.08-.249l-.07-.202c-.029-.07-.052-.142-.08-.212a3.8 3.8 0 00-.104-.245l-.07-.16a6.261 6.261 0 00-.194-.4c-.051-.104-.108-.202-.164-.301-.014-.024-.029-.047-.038-.066l-.136-.235c-.014-.024-.029-.043-.043-.066a9.914 9.914 0 00-.155-.236c-.01-.014-.019-.033-.033-.047a12.35 12.35 0 00-.184-.259c-.004-.004-.009-.01-.009-.014-.941-1.285-2.18-2.306-3.516-3.12.09-.288.221-.556.395-.81l1.003-1.436-.734-.687zm-9.456 1.229c1.52.23 6.806 1.219 10.086 4.208l.014.014c.109.099.217.202.325.31l.066.066c.217.221.419.452.612.692.023.028.047.061.07.094.085.109.17.221.245.334.01.015.02.024.029.038.084.123.164.25.244.377.02.033.038.06.057.094.075.132.15.263.221.4.052.103.104.207.15.31.024.052.048.104.067.156l.07.16c.028.07.057.141.08.212l.043.113.084.254c.01.028.02.052.024.08.028.094.056.193.085.287.004.019.009.033.014.052.028.103.052.207.075.315 0 .01.005.019.01.033.023.113.047.221.065.339 0 .005 0 .014.005.019.019.117.042.23.056.353v.01c-.023.042-.037.084-.06.126-.02.033-.034.071-.053.109-.042.084-.08.174-.117.258-.028.062-.052.128-.075.189-.024.066-.052.127-.076.193a10.38 10.38 0 00-.136.404c-.01.033-.02.062-.029.095a4.447 4.447 0 00-.089.339c-.01.037-.019.07-.023.108a19.26 19.26 0 00-.071.334.944.944 0 00-.019.113c-.019.108-.033.221-.047.33l-.014.117a4.12 4.12 0 00-.028.339c-.005.038-.005.075-.01.113a6.59 6.59 0 00-.014.447c0 .123.005.245.01.372v.047h-3.757l-6.17-9.273a.63.63 0 00-.876-.174.63.63 0 00-.174.876l5.71 8.562h-8.379c-2.292-4.89.857-11.688 1.7-13.344zm37.74 35.174a3.467 3.467 0 01-2.124.716H44.763c-.776 0-1.53-.255-2.122-.716a26.762 26.762 0 01-9.16-13.15h51.244a26.792 26.792 0 01-9.16 13.15zm9.517-14.412H33.119a26.856 26.856 0 01-.857-6.1c0-.005 0-.02.014-.038a.077.077 0 01.052-.024h53.55c.024 0 .042.01.052.024.019.019.014.033.014.038a26.86 26.86 0 01-.861 6.1z" fill="#262D33"/><path d="M86.829 59.242c-.25-.254-.598-.4-.956-.4h-1.99a4.856 4.856 0 00-.683-1.29l-.97-1.317a4.886 4.886 0 001.506-3.29 4.892 4.892 0 00-1.595-3.884l-.636-.588a4.906 4.906 0 00-.508-6.265l-2.358-2.405a3.692 3.692 0 00-4.359-.664l-2.97 1.591a4.9 4.9 0 00-2.349 5.827l-.795.372a4.9 4.9 0 00-2.678 3.234 4.895 4.895 0 00.461 3.587l-1.2.884a7.862 7.862 0 00-1.337-1.802c.508-.942.64-2.038.353-3.088a4.179 4.179 0 00-2.363-2.74l-1.162-.508a4.179 4.179 0 00-.316-2.989 4.175 4.175 0 00-2.838-2.188l-.621-.137a4.184 4.184 0 00-3.065-4.32l-2.706-.75a3.184 3.184 0 00-3.535 1.385l-1.478 2.386a4.19 4.19 0 00.688 5.253l-.368.522a4.307 4.307 0 00-.48.909c-3.714-1.897-7.72-2.354-7.978-2.382l-.414-.042-.203.362c-.197.348-4.575 8.237-2.17 14.337h-2.428c-.358 0-.706.146-.956.4-.25.26-.38.594-.372.951.212 8.444 4.17 16.272 10.864 21.473a4.76 4.76 0 002.9.984h28.678a4.73 4.73 0 002.9-.984c6.688-5.201 10.647-13.029 10.863-21.473a1.322 1.322 0 00-.376-.95zM65.27 55.821c.038-.029.07-.057.109-.085l2.301-1.69-.372-.508a3.643 3.643 0 011.394-5.46l1.802-.843-.343-1.059a3.642 3.642 0 011.746-4.33l2.97-1.591a2.423 2.423 0 012.862.438l2.358 2.405a3.644 3.644 0 01.377 4.655l-.64.908 1.468 1.342a3.638 3.638 0 011.186 2.885 3.631 3.631 0 01-1.478 2.744l-.508.372 1.69 2.302c.127.174.235.353.33.541h-8.38l.519-3.389 5.144-2.4a.632.632 0 00-.532-1.144l-4.386 2.047 1.115-7.324a.632.632 0 00-1.247-.193l-1.111 7.32-3.577-3.262a.627.627 0 00-.89.042.627.627 0 00.042.89l4.199 3.826-.546 3.578h-7.178v-.047c.005-.123.01-.25.01-.372a9.82 9.82 0 00-.01-.377c0-.038-.005-.075-.005-.113-.004-.09-.014-.179-.019-.263l-.014-.127c-.01-.085-.019-.175-.033-.26a.944.944 0 00-.018-.112c-.015-.1-.033-.193-.052-.292l-.014-.075a4.52 4.52 0 00-.085-.363c-.005-.019-.01-.037-.014-.061-.029-.099-.052-.193-.085-.292-.014-.038-.023-.08-.038-.117a2.587 2.587 0 00-.047-.146zm-14.229 3.017a6.346 6.346 0 010-.81c0-.033.005-.066.01-.103.01-.1.014-.198.028-.297l.014-.104c.014-.098.028-.202.047-.3l.014-.085a8.06 8.06 0 01.08-.363c0-.005.005-.01.005-.014.033-.123.066-.245.104-.367l.042-.123c.023-.07.052-.145.075-.216l.07-.179c.02-.047.043-.094.062-.141.033-.07.061-.141.094-.212.005-.014.014-.023.02-.038a7.5 7.5 0 01.253-.47c.014-.029.033-.057.047-.085.047-.08.1-.155.15-.235a7.008 7.008 0 01.607-.781l.006-.006c.282-.31.598-.597.936-.851.015-.01.033-.024.048-.033a6.67 6.67 0 01.847-.532c.056-.029.113-.061.17-.09.08-.037.155-.075.235-.113.037-.014.07-.033.108-.051.117-.052.24-.1.362-.142.033-.014.066-.023.1-.033.098-.032.202-.066.3-.094l.1-.028c.263-.07.531-.127.804-.165l.099-.014c.104-.014.212-.023.32-.033.038-.005.075-.005.113-.01a6.096 6.096 0 01.739-.004c.042 0 .085.005.132.01l.188.014c.052.004.108.014.16.018.052.005.104.015.155.02l.175.028c.047.009.089.014.136.023.061.01.122.024.179.038l.127.028c.061.014.122.028.184.047.042.01.084.024.122.033.061.019.118.033.174.052l.132.042.165.057c.051.019.099.037.15.06l.137.057.202.09.08.037a6.733 6.733 0 013.347 3.644c.014.042.033.084.047.122.023.061.042.118.061.179l.042.132c.02.06.038.127.052.188.01.042.024.085.033.127.019.066.033.132.047.202l.028.118c.014.07.029.141.038.216.005.038.014.076.019.113l.028.226.014.109c.01.08.014.16.02.24 0 .033.004.066.004.094.004.113.01.226.01.339 0 .136-.005.277-.015.419H51.042zm-3.76-14.573a2.924 2.924 0 01-.528-3.718l1.474-2.387a1.918 1.918 0 012.127-.833l2.702.749a2.928 2.928 0 012.137 3.087l-.09 1.012 1.709.372a2.916 2.916 0 011.986 1.53c.4.786.429 1.699.076 2.504l-.255.579 2.274.993a2.9 2.9 0 011.652 1.916c.174.64.127 1.308-.122 1.901a7.478 7.478 0 00-.88-.555c-.015-.01-.029-.014-.043-.024l-.273-.14c-.023-.015-.052-.024-.075-.038a6.474 6.474 0 00-.264-.118c-.023-.01-.047-.024-.075-.033a4.585 4.585 0 00-.325-.127c-.037-.014-.075-.029-.118-.043-.07-.023-.14-.051-.216-.07-.052-.019-.108-.033-.16-.047-.061-.02-.118-.033-.179-.052l-.17-.042c-.06-.014-.122-.029-.188-.043-.051-.014-.108-.023-.16-.037a3.914 3.914 0 00-.325-.057 1.453 1.453 0 00-.14-.019l-.227-.028-.145-.014c-.08-.01-.16-.014-.24-.019-.043-.005-.085-.005-.123-.01-.122-.004-.245-.009-.367-.009a6.66 6.66 0 00-.55.024c-.104.01-.208.014-.311.028-.043.005-.09.01-.132.019-.1.014-.193.023-.292.042-.047.01-.09.014-.137.024-.094.019-.188.033-.282.056-.047.01-.094.024-.141.033-.09.019-.18.043-.269.066l-.15.042-.245.076-.16.056c-.07.024-.141.052-.216.08l-.184.07-.165.072c-.075.032-.15.065-.226.103-.014.01-.028.014-.047.024a8.006 8.006 0 00-2.636 2.061 4.48 4.48 0 00-.042-.136c-.019-.057-.033-.118-.052-.175-.028-.084-.051-.164-.08-.249l-.07-.202c-.029-.07-.052-.142-.08-.212a3.8 3.8 0 00-.104-.245l-.07-.16a6.261 6.261 0 00-.194-.4c-.051-.104-.108-.202-.164-.301-.014-.024-.029-.047-.038-.066l-.136-.235c-.014-.024-.029-.043-.043-.066a9.914 9.914 0 00-.155-.236c-.01-.014-.019-.033-.033-.047a12.35 12.35 0 00-.184-.259c-.004-.004-.009-.01-.009-.014-.941-1.285-2.18-2.306-3.516-3.12.09-.288.221-.556.395-.81l1.003-1.436-.734-.687zm-9.456 1.229c1.52.23 6.806 1.219 10.086 4.208l.014.014c.109.099.217.202.325.31l.066.066c.217.221.419.452.612.692.023.028.047.061.07.094.085.109.17.221.245.334.01.015.02.024.029.038.084.123.164.25.244.377.02.033.038.06.057.094.075.132.15.263.221.4.052.103.104.207.15.31.024.052.048.104.067.156l.07.16c.028.07.057.141.08.212l.043.113.084.254c.01.028.02.052.024.08.028.094.056.193.085.287.004.019.009.033.014.052.028.103.052.207.075.315 0 .01.005.019.01.033.023.113.047.221.065.339 0 .005 0 .014.005.019.019.117.042.23.056.353v.01c-.023.042-.037.084-.06.126-.02.033-.034.071-.053.109-.042.084-.08.174-.117.258-.028.062-.052.128-.075.189-.024.066-.052.127-.076.193a10.38 10.38 0 00-.136.404c-.01.033-.02.062-.029.095a4.447 4.447 0 00-.089.339c-.01.037-.019.07-.023.108a19.26 19.26 0 00-.071.334.944.944 0 00-.019.113c-.019.108-.033.221-.047.33l-.014.117a4.12 4.12 0 00-.028.339c-.005.038-.005.075-.01.113a6.59 6.59 0 00-.014.447c0 .123.005.245.01.372v.047h-3.757l-6.17-9.273a.63.63 0 00-.876-.174.63.63 0 00-.174.876l5.71 8.562h-8.379c-2.292-4.89.857-11.688 1.7-13.344zm37.74 35.174a3.467 3.467 0 01-2.124.716H44.763c-.776 0-1.53-.255-2.122-.716a26.762 26.762 0 01-9.16-13.15h51.244a26.792 26.792 0 01-9.16 13.15zm9.517-14.412H33.119a26.856 26.856 0 01-.857-6.1c0-.005 0-.02.014-.038a.077.077 0 01.052-.024h53.55c.024 0 .042.01.052.024.019.019.014.033.014.038a26.86 26.86 0 01-.861 6.1z" stroke="#262D33" stroke-width="1.4" mask="url(#a)"/></svg>