<svg width="120" height="120" viewBox="0 0 120 120" fill="none" xmlns="http://www.w3.org/2000/svg"><path d="M59.868 119.246c32.699 0 59.207-26.508 59.207-59.207S92.567.833 59.868.833C27.168.833.661 27.34.661 60.039c0 32.7 26.508 59.207 59.207 59.207z" fill="#fff"/><path fill-rule="evenodd" clip-rule="evenodd" d="M59.867 35.722c7.785 0 15.104 2.987 20.609 8.41.51.502.637 1.27.316 1.906L61.371 84.496a1.682 1.682 0 01-1.504.918c-.637 0-1.22-.356-1.503-.918L38.943 46.038a1.636 1.636 0 01.315-1.907c5.505-5.422 12.824-8.409 20.61-8.409zm17.368 9.933c-4.76-4.28-10.881-6.624-17.368-6.624-6.486 0-12.608 2.343-17.367 6.624l1.3 2.573c4.435-3.88 10.085-6.002 16.067-6.002 5.982 0 11.632 2.122 16.068 6.002l1.3-2.573zM50.053 60.368a1.693 1.693 0 00-.14-.035l-2.406-4.764a3.79 3.79 0 011.862-2.198 3.89 3.89 0 012.943-.28 3.822 3.822 0 012.28 1.852c.484.897.585 1.927.282 2.899a3.792 3.792 0 01-1.879 2.247 3.89 3.89 0 01-2.942.279zm1.625 3.46l8.19 16.218 4.194-8.305c-.24.026-.484.041-.731.041-3.6 0-6.528-2.884-6.528-6.43s2.929-6.43 6.528-6.43a6.55 6.55 0 015.613 3.151l5.433-10.76c-3.913-3.728-9.051-5.778-14.51-5.778-5.458 0-10.595 2.05-14.509 5.779l.377.745a7.196 7.196 0 012.057-1.61 7.273 7.273 0 015.501-.521 7.149 7.149 0 014.265 3.463 6.972 6.972 0 01.528 5.419 7.089 7.089 0 01-3.514 4.2 7.283 7.283 0 01-2.894.818zm11.653 4.646c-1.748 0-3.17-1.4-3.17-3.122s1.422-3.122 3.17-3.122 3.17 1.4 3.17 3.122-1.422 3.122-3.17 3.122zm4.848-13.068c-.43 0-.86-.161-1.188-.484l-2.77-2.73a1.637 1.637 0 010-2.339 1.698 1.698 0 012.374 0l2.771 2.73a1.637 1.637 0 010 2.339 1.688 1.688 0 01-1.187.484z" fill="#262D33"/></svg>