<svg width="119" height="119" viewBox="0 0 119 119" fill="none" xmlns="http://www.w3.org/2000/svg"><path d="M59.207 118.414c32.699 0 59.207-26.508 59.207-59.207C118.414 26.507 91.906 0 59.207 0 26.507 0 0 26.508 0 59.207s26.508 59.207 59.207 59.207z" fill="#fff"/><path d="M54.75 61.508h0l.004-.004c1.337-1.337 2.032-3 2.08-4.754 1.758-.054 3.418-.828 4.75-2.076h0l.004-.004c1.338-1.338 2.033-3.001 2.081-4.754 1.758-.054 3.418-.828 4.749-2.076h0l.005-.005c2.562-2.562 2.77-6.55.712-9.403l4.94-4.94a1.015 1.015 0 000-1.465l-.022-.023-.03-.014c-.18-.09-.465-.19-.68-.19a.985.985 0 00-.407.08 1.075 1.075 0 00-.324.232l-4.938 4.937a7.068 7.068 0 00-4.287-1.452c-1.82 0-3.728.693-5.119 2.084-1.337 1.337-2.032 3-2.08 4.753-1.754.048-3.417.744-4.754 2.08-1.338 1.338-2.033 3.001-2.081 4.754-1.753.049-3.417.744-4.754 2.081-1.337 1.337-2.032 3-2.08 4.754-1.754.048-3.417.743-4.754 2.08-2.563 2.563-2.77 6.551-.713 9.404l-4.94 4.94a1.015 1.015 0 000 1.464 1.015 1.015 0 001.464 0l4.938-4.938c2.857 2.14 6.846 1.845 9.405-.715 1.338-1.337 2.033-3 2.081-4.753 1.758-.055 3.418-.829 4.75-2.077zm6.844-16.987h0l-.006-.006a6.851 6.851 0 00-3.398-1.877c.039-1.24.522-2.475 1.455-3.49 1.065-.898 2.45-1.464 3.742-1.464 1.298 0 2.512.486 3.487 1.46.015.016.02.025.032.043l.028.043a.314.314 0 00.147.124c1.906 2.03 1.813 5.166-.122 7.102-.93.93-2.24 1.419-3.495 1.457-.285-1.246-.962-2.402-1.87-3.392zm-6.75 6.919h0l-.006-.006a6.85 6.85 0 00-3.398-1.877c.039-1.244.524-2.48 1.46-3.497.972-.97 2.268-1.457 3.653-1.457 1.298 0 2.597.486 3.656 1.545 2.03 2.03 2.03 5.195 0 7.226-.93.93-2.24 1.42-3.495 1.458-.285-1.247-.962-2.402-1.87-3.392zm-6.918 6.834h0l-.007-.006a6.85 6.85 0 00-3.398-1.876c.039-1.243.523-2.479 1.458-3.494 1.06-.975 2.359-1.46 3.655-1.46 1.298 0 2.597.485 3.656 1.544 2.031 2.031 2.031 5.195 0 7.227-.93.93-2.239 1.419-3.495 1.457-.285-1.246-.962-2.402-1.87-3.392zm-9.316 7.924c-1.318-2.012-1.109-4.654.619-6.382h0l.005-.005c.972-1.052 2.267-1.54 3.566-1.54 1.298 0 2.597.487 3.656 1.545 2.03 2.032 2.03 5.196 0 7.227-1.73 1.728-4.448 1.935-6.385.622l1.014-1.014a1.015 1.015 0 000-1.464 1.11 1.11 0 00-.732-.312.986.986 0 00-.408.08 1.076 1.076 0 00-.324.232l.142.141-.142-.141-1.011 1.011z" fill="#262D33" stroke="#262D33" stroke-width=".4"/><path d="M63.388 39.141a3.58 3.58 0 00-2.589 1.071 1.015 1.015 0 000 1.464 1.015 1.015 0 001.464 0c.597-.597 1.652-.597 2.249 0a1.015 1.015 0 001.464 0 1.015 1.015 0 000-1.464 3.723 3.723 0 00-2.588-1.07zM42.8 59.728a3.58 3.58 0 00-2.588 1.072 1.015 1.015 0 000 1.464 1.015 1.015 0 001.464 0c.597-.597 1.651-.597 2.248 0a1.015 1.015 0 001.464 0 1.015 1.015 0 000-1.464 3.58 3.58 0 00-2.588-1.072zm13.753-13.753a3.58 3.58 0 00-2.588 1.071 1.015 1.015 0 000 1.465 1.015 1.015 0 001.464 0c.597-.597 1.651-.597 2.248 0a1.015 1.015 0 001.464 0 1.015 1.015 0 000-1.465 3.722 3.722 0 00-2.588-1.07zm-6.919 6.919a3.58 3.58 0 00-2.588 1.071 1.015 1.015 0 000 1.464 1.015 1.015 0 001.464 0c.597-.597 1.652-.597 2.249 0a1.015 1.015 0 001.464 0 1.015 1.015 0 00.005-1.46c-.638-.724-1.624-1.075-2.594-1.075zm16.928 20.511h0l.004-.004c1.338-1.337 2.033-3 2.081-4.754 1.758-.054 3.418-.828 4.75-2.076h0l.004-.004c1.337-1.338 2.032-3.001 2.08-4.754 1.758-.054 3.418-.828 4.75-2.076h0l.004-.005c2.563-2.562 2.77-6.55.713-9.403l4.94-4.94a1.015 1.015 0 000-1.465l-.023-.023-.029-.014a1.363 1.363 0 01-.113-.066 1.423 1.423 0 00-.159-.086.63.63 0 00-.439-.038.97.97 0 00-.377.08 1.078 1.078 0 00-.324.232l-4.937 4.937a7.069 7.069 0 00-4.287-1.452c-1.82 0-3.729.693-5.12 2.084-1.337 1.337-2.032 3-2.08 4.753-1.753.048-3.417.744-4.754 2.08-1.337 1.338-2.032 3.001-2.08 4.754-1.754.049-3.417.744-4.754 2.081-1.337 1.337-2.033 3-2.081 4.754-1.753.048-3.417.743-4.754 2.08-2.562 2.563-2.77 6.551-.712 9.404l-4.94 4.94a1.015 1.015 0 000 1.464 1.015 1.015 0 001.463 0l4.939-4.938c2.857 2.14 6.846 1.845 9.405-.715 1.337-1.337 2.032-3 2.08-4.754 1.759-.054 3.419-.828 4.75-2.076zm6.845-16.987h0l-.006-.006a6.851 6.851 0 00-3.398-1.877c.038-1.241.522-2.476 1.455-3.49 1.146-.98 2.447-1.464 3.742-1.464 1.297 0 2.512.486 3.487 1.46.015.016.02.025.032.043l.027.043c.015.022.042.06.086.091.02.014.04.025.062.033 1.906 2.03 1.813 5.166-.123 7.102-.93.93-2.239 1.419-3.494 1.457-.286-1.247-.963-2.402-1.87-3.392zm-6.75 6.834h0l-.006-.006a6.85 6.85 0 00-3.398-1.876c.038-1.244.523-2.481 1.46-3.497.97-.968 2.35-1.457 3.653-1.457 1.298 0 2.597.486 3.655 1.544 2.031 2.032 2.031 5.196 0 7.227-.93.93-2.239 1.419-3.494 1.457-.286-1.246-.963-2.401-1.87-3.392zm-6.835 6.835h0l-.006-.006a6.851 6.851 0 00-3.398-1.877c.039-1.244.524-2.48 1.46-3.496.972-.97 2.268-1.458 3.653-1.458 1.298 0 2.597.486 3.656 1.545 2.031 2.031 2.031 5.195 0 7.226-.93.93-2.239 1.42-3.495 1.458-.285-1.247-.962-2.402-1.87-3.392zm-9.4 7.924c-1.318-2.012-1.108-4.654.62-6.382h0l.005-.006c.971-1.052 2.266-1.538 3.566-1.538 1.297 0 2.596.486 3.655 1.544 2.031 2.031 2.031 5.195 0 7.227-1.729 1.728-4.447 1.935-6.385.622l1.015-1.014a1.016 1.016 0 000-1.465 1.11 1.11 0 00-.732-.311.986.986 0 00-.409.08 1.077 1.077 0 00-.323.231l.141.142-.141-.142-1.012 1.012z" fill="#262D33" stroke="#262D33" stroke-width=".4"/><path d="M75.2 50.954a3.58 3.58 0 00-2.588 1.07 1.015 1.015 0 000 1.465 1.015 1.015 0 001.464 0c.597-.597 1.651-.597 2.248 0a1.015 1.015 0 001.464 0 1.015 1.015 0 000-1.464 3.723 3.723 0 00-2.588-1.071zM54.613 71.541a3.58 3.58 0 00-2.589 1.071 1.015 1.015 0 000 1.464 1.015 1.015 0 001.464 0c.597-.597 1.652-.597 2.249 0a1.015 1.015 0 001.464 0 1.015 1.015 0 00.005-1.46c-.637-.724-1.624-1.075-2.593-1.075zm13.752-13.669a3.58 3.58 0 00-2.588 1.071 1.015 1.015 0 000 1.464 1.015 1.015 0 001.464 0c.597-.596 1.652-.596 2.249 0a1.015 1.015 0 001.464 0 1.015 1.015 0 000-1.464 3.723 3.723 0 00-2.588-1.07zm-6.834 6.835a3.58 3.58 0 00-2.588 1.07 1.015 1.015 0 000 1.465 1.015 1.015 0 001.464 0c.597-.597 1.652-.597 2.248 0a1.015 1.015 0 001.465 0 1.015 1.015 0 000-1.464 3.723 3.723 0 00-2.589-1.072z" fill="#262D33" stroke="#262D33" stroke-width=".4"/></svg>