<svg width="119" height="120" viewBox="0 0 119 120" fill="none" xmlns="http://www.w3.org/2000/svg"><path d="M59.68 119.246c32.699 0 59.206-26.508 59.206-59.207S92.379.833 59.68.833C26.98.833.472 27.34.472 60.039c0 32.7 26.508 59.207 59.206 59.207z" fill="#fff"/><path d="M81.863 57.59c.007-.07.012-.144.012-.219.061-1.113.061-2.163.061-3.204v-.003a.3.3 0 00-.3-.3H63.402c.704-5.674-2.661-8.898-5.55-11.666h0s0 0 0 0c-.927-.897-1.8-1.741-2.452-2.603-.65-.86-1.057-1.708-1.085-2.604a.3.3 0 00-.3-.291h-1.723a.3.3 0 00-.3.307c.033 1.431.572 2.627 1.365 3.722.747 1.032 1.734 1.989 2.747 2.973l.162.157c2.61 2.55 5.444 5.344 4.752 10.005h-3.44c.653-3.782-1.887-6.262-4.433-8.75l-.15-.147h-.001c-2.36-2.297-4.705-4.606-4.647-7.9a.3.3 0 00-.289-.305l-1.722-.062a.3.3 0 00-.31.291c-.126 4.324 2.657 7.04 5.191 9.512l.127.124h0l.003.003c1.237 1.175 2.39 2.286 3.135 3.493.7 1.132 1.03 2.334.713 3.74h-20.19a.3.3 0 00-.3.296c-.061 4.331.372 8.126 1.99 12.172 1.216 3.162 3.444 6.805 5.943 9.129-.75 1.66-.97 3.46-.218 5.213h0l.003.008c1.247 2.69 4.489 3.558 7.163 3.558H68.04a.3.3 0 00.3-.3v-4.013c4.865-2.893 8.653-6.874 11.059-12.059l5.86-2.477h0l.004-.002c1.613-.71 2.824-2.03 2.824-3.965a4.43 4.43 0 00-.395-1.845 3.857 3.857 0 00-1.2-1.531c-1.38-1.066-3.115-1.175-4.63-.458zm3.678 2.96c.006.015.013.03.022.043.147.246.203.555.203.83 0 .816-.615 1.471-1.417 1.815 0 0 0 0 0 0L59.623 73.627a6.914 6.914 0 00-.744-1.57l23.813-12.272h.002c1.002-.501 1.793-.327 2.31.08.25.25.442.45.536.686zM66.047 78.572a.3.3 0 00-.152.26v3.146h-9.324a9.906 9.906 0 002.509-3.13c.48-.903.736-1.808.819-2.763l16.042-6.718c-2.45 4.019-5.76 6.85-9.894 9.205zm-17.83 3.224h0-.01c-1.445-.181-3.033-.836-3.642-2.109-.55-1.156-.24-2.639.663-4.143 1.86-2.999 5.31-4.994 8.778-4.171 1.584.381 2.671 1.282 3.197 2.418.526 1.137.507 2.548-.197 3.986-1.588 3.175-5.315 4.559-8.79 4.02zm-11.18-25.548h42.575c-.01.833-.065 1.707-.162 2.583L57.179 70.36a7.856 7.856 0 00-2.6-1.17c-4.21-1.053-8.212 1.028-10.683 4.257-2.412-2.543-3.983-5.303-5.044-7.953-1.343-3.388-1.733-6.667-1.816-9.247z" fill="#262D33" stroke="#262D33" stroke-width=".6" stroke-linejoin="round"/></svg>