<svg fill="none" xmlns="http://www.w3.org/2000/svg" viewBox="0 0 54 53"><path d="M26.774 52.867c14.536 0 26.32-11.784 26.32-26.32C53.093 12.012 41.31.228 26.773.228 12.24.228.455 12.012.455 26.548c0 14.535 11.784 26.319 26.32 26.319z" fill="#fff"/><path d="M22.93 22.857a4.188 4.188 0 00-1.668-1.469l-2.682-1.297 1.515 2.565c.278.472.293 1.226-.01 2.328-.262.955-.705 1.975-1.148 2.995l-.16.37c-.386.88-.677 1.88-.677 3.025 0 4.698 3.747 8.526 8.402 8.526 4.652 0 8.398-3.828 8.398-8.526 0-4-2.467-6.483-4.477-8.507l-.253-.255c-1.064-1.075-1.939-2-2.446-3.006-.476-.945-.633-1.974-.168-3.31l1.036-2.983L26.14 15.3c-1.58 1.28-2.491 2.42-2.968 3.496-.487 1.098-.483 2.043-.396 2.832a16.49 16.49 0 00.075.575c.023.158.043.298.059.435.009.077.016.15.02.218z" stroke="#262D33" stroke-width="1.8"/></svg>