<svg fill="none" xmlns="http://www.w3.org/2000/svg" viewBox="0 0 119 120"><path d="M59.226 119.246c32.7 0 59.207-26.508 59.207-59.207S91.925.833 59.226.833.02 27.34.02 60.039c0 32.7 26.507 59.207 59.206 59.207z" fill="#fff"/><path fill-rule="evenodd" clip-rule="evenodd" d="M67.18 72.371h14.66c.924 0 1.673.767 1.673 1.712 0 .944-.75 1.71-1.673 1.71H37.67c-.924 0-1.674-.766-1.674-1.71 0-.945.75-1.712 1.674-1.712h14.659c-10.084-3.238-17.42-12.889-17.42-24.26 0-.946.75-1.712 1.673-1.712h46.345c.924 0 1.674.766 1.674 1.711 0 11.372-7.336 21.023-17.42 24.261zm-7.425-8.47c7.83 0 14.268-6.217 14.847-14.08H44.909c.58 7.864 7.017 14.08 14.846 14.08zM38.32 49.821h3.236c.585 9.752 8.523 17.502 18.199 17.502 9.675 0 17.613-7.75 18.2-17.501h3.235c-.857 11.333-10.143 20.287-21.435 20.287-11.292 0-20.579-8.954-21.435-20.287zm14.826 3.669c0 .945-.75 1.711-1.673 1.711-.924 0-1.673-.766-1.673-1.711v-1.167c0-.945.75-1.711 1.673-1.711.924 0 1.673.766 1.673 1.711v1.167zm8.282 0c0 .945-.75 1.711-1.673 1.711-.924 0-1.674-.766-1.674-1.711v-1.167c0-.945.75-1.711 1.674-1.711.924 0 1.673.766 1.673 1.711v1.167zm6.61 1.711c.923 0 1.672-.766 1.672-1.711v-1.167c0-.945-.749-1.711-1.673-1.711s-1.673.766-1.673 1.711v1.167c0 .945.75 1.711 1.673 1.711zm-2.469 3.108c0 .945-.75 1.71-1.673 1.71-.924 0-1.673-.765-1.673-1.71v-1.167c0-.945.749-1.711 1.673-1.711s1.673.766 1.673 1.711v1.167zm-9.955 1.71c.924 0 1.673-.765 1.673-1.71v-1.167c0-.945-.749-1.711-1.673-1.711s-1.673.766-1.673 1.711v1.167c0 .945.75 1.71 1.673 1.71z" fill="#262D33"/></svg>