<svg fill="none" xmlns="http://www.w3.org/2000/svg" viewBox="0 0 120 120"><path d="M59.868 119.246c32.699 0 59.207-26.508 59.207-59.207S92.567.833 59.868.833C27.168.833.661 27.34.661 60.039c0 32.7 26.508 59.207 59.207 59.207z" fill="#fff"/><path d="M81.318 53.028h-3.586a18.48 18.48 0 00.11-2.017v-1.288h1.48a1.652 1.652 0 000-3.304h-39.67a1.652 1.652 0 000 3.305h1.48v1.287c0 7.761 4.841 14.413 11.663 17.093l-6.55 18.078a1.652 1.652 0 103.107 1.126l3.64-10.048h12.99l.851 2.351a4.949 4.949 0 00-1.812 3.83 4.962 4.962 0 004.957 4.956 4.962 4.962 0 004.956-4.957 4.962 4.962 0 00-4.956-4.956h-.038l-3.761-10.38a18.443 18.443 0 0010.876-11.772h2.611v2.861a1.652 1.652 0 003.305 0V54.68c0-.912-.74-1.652-1.653-1.652zM71.63 83.44c0 .91-.741 1.652-1.652 1.652a1.654 1.654 0 01-1.653-1.653c0-.91.742-1.652 1.653-1.652.91 0 1.652.741 1.652 1.653zm-6.846-9.486H54.19l1.785-4.927c2.256.44 4.64.464 7.024 0l1.785 4.927zm-5.297-7.893c-8.3 0-15.051-6.752-15.051-15.05v-1.288h30.102v1.287c0 8.3-6.752 15.051-15.05 15.051zm1.916-26.203c0 1.206.442 2.312 1.407 3.279a1.653 1.653 0 002.337 0c.576-.576.742-1.594-.085-2.422a1.212 1.212 0 010-1.714 4.486 4.486 0 001.322-3.193c0-1.338-.524-2.394-1.454-3.324a1.652 1.652 0 10-2.337 2.336l.132.132a1.21 1.21 0 01-.002 1.713 4.49 4.49 0 00-1.32 3.193zm-8.813 0c0 1.206.442 2.312 1.408 3.279a1.652 1.652 0 102.337-2.336l-.085-.086a1.212 1.212 0 010-1.714 4.486 4.486 0 001.321-3.193c0-1.338-.523-2.394-1.453-3.324a1.652 1.652 0 10-2.337 2.336l.131.132a1.21 1.21 0 010 1.713 4.49 4.49 0 00-1.322 3.193z" fill="#262D33"/></svg>