<svg width="120" height="120" viewBox="0 0 120 120" fill="none" xmlns="http://www.w3.org/2000/svg"><path d="M60.133 119.246c32.699 0 59.206-26.508 59.206-59.207S92.832.833 60.133.833C27.433.833.926 27.34.926 60.039c0 32.7 26.508 59.207 59.207 59.207z" fill="#fff"/><path d="M40.901 67.93h0c-.604 1.208-.843 2.348-.844 3.361.06 1.463.757 2.671 2.09 3.367l.004.002c.75.403 1.753.588 2.968.527h.005c1.704-.061 4.038-.734 6.616-1.489l.004-.001c.36-.1.725-.203 1.095-.308 1.935-.547 4-1.132 6.066-1.45 2.252-.375 4.071-.44 5.808-.502l.042-.001h.001c1.563-.063 3.046-.125 4.651-.372a10.955 10.955 0 004.562-1.947 13.086 13.086 0 004.277-5.5v-.002c1.532-3.614 1.459-7.811-.902-11.02-1.85-2.468-4.888-5.198-8.127-7.566l-.002-.001c-4.612-3.428-9.465-6.226-11.753-7.216-2.339-.923-5.168-1.264-7.365-.017-1.508.858-2.233 2.094-2.6 3.519-.32 1.238-.366 2.6-.413 3.981l-.024.69v.002l-.3-.012c-.125 4.44-.25 8.691-1.938 13.38l-3.92 8.575zm0 0l.006-.012c.241-.543.606-1.15.983-1.78h0c.941-1.57 2.08-3.465 3.215-6.682L40.9 67.93zm-1.09-2.974h0l.021-.036c.869-1.489 1.913-3.279 3.02-6.23 1.544-4.388 1.67-8.47 1.795-12.724h0l.007-.22c.12-3.832.24-7.67 4.208-9.91 2.926-1.69 6.47-1.285 9.447-.145l.007.003h0c2.47 1.013 7.557 3.967 12.257 7.477M39.811 64.956l30.583-21.544M39.811 64.956l-.004.008m.004-.008l-.004.008m30.766-21.793s0 0 0 0l-.179.24m.18-.24h-.001l-.179.24m.18-.24c3.383 2.507 6.599 5.34 8.626 8.063m-8.806-7.822c3.377 2.5 6.566 5.314 8.566 8.003m.24-.181l-.002-.002-.238.183m.24-.181c1.158 1.512 2.076 3.726 2.744 5.989.67 2.269 1.096 4.617 1.254 6.42M79.2 51.234v.002l-.24.179m0 0l4.238 12.228m0 0v-.001l-.299.028.3-.027s0 0 0 0zm0 0c.38 4.112-.314 7.489-1.85 10.177m1.85-10.177l-1.85 10.177m0 0s0 0 0 0l-.262-.146.26.148.002-.002zm-41.541-8.856c-.13.24-.264.475-.396.709-.237.421-.47.833-.672 1.239a10.037 10.037 0 00-1.032 4.834l2.1-6.782zm34.064-4.898l.086-.29-.29-.084-12.443-3.59-6.506-12.826-.137-.27-.269.14-1.563.812-.263.137.134.265 6.335 12.486-13.331 11.788-.228.201.204.225 1.188 1.313.2.22.222-.197L60.654 58.44l12.347 3.518.285.082.085-.285.5-1.688zM40.827 76.678l.205.124.01.005.006.004.007.004c1.123.594 2.555.848 4.153.785 2.046-.064 4.521-.765 7.139-1.575l.575-.16c2.079-.58 4.23-1.18 6.326-1.52a50.12 50.12 0 015.593-.497h0c1.623-.062 3.205-.125 4.916-.442 2.054-.321 3.974-1.219 5.57-2.431 2.232-1.659 3.952-3.89 5.035-6.438v-.002c.152-.364.306-.747.446-1.147l.042.373c.308 3.64-.31 6.579-1.528 8.831-1.22 2.228-2.72 3.525-4.486 4.317-1.779.798-3.844 1.093-6.216 1.28h-.002l-.622.053c-2.765.234-5.765.487-9.09 1.012-2.46.379-4.915 1.072-7.168 1.76h-.001l-.054.017a43.51 43.51 0 01-2.22.62c-.831.202-1.646.35-2.265.35v0l-.01.001c-1.796.06-3.212-.535-4.274-1.657l-.009-.01-.01-.008c-.914-.813-1.583-2.083-2.068-3.649zm.274 5.453l.003.003-3.397-10.388c.126 3.454.878 7.676 3.394 10.385h0zm27.63-1.469s0 0 0 0l-.025-.298.025.299s0 0 0 0zm-9.542 1.06s0 0 0 0l-.049-.295.048.296s0 0 0 0zm-6.905 1.68h.004l-.088-.287.08.289.004-.001zm-5.145 1.076h.004l-.008-.3v.3h.004z" fill="#262D33" stroke="#262D33" stroke-width=".6"/></svg>