<svg width="119" height="120" viewBox="0 0 119 120" fill="none" xmlns="http://www.w3.org/2000/svg"><path d="M59.773 119.246c32.7 0 59.207-26.508 59.207-59.207S92.472.833 59.773.833.566 27.34.566 60.039c0 32.7 26.508 59.207 59.207 59.207z" fill="#fff"/><path fill-rule="evenodd" clip-rule="evenodd" d="M67.192 41.634h15.926a1.79 1.79 0 010 3.583H67.191v6.114a10.571 10.571 0 014.116-.83c5.82 0 10.563 4.701 10.642 10.51.364.328.595.801.595 1.33 0 12.722-10.339 23.072-23.047 23.072S36.45 75.063 36.45 62.341c0-.529.23-1.002.594-1.33.08-5.809 4.822-10.51 10.643-10.51 1.46 0 2.849.297 4.116.832v-6.117H50.64a1.79 1.79 0 010-3.582h1.163v-2.33H50.64a1.79 1.79 0 010-3.582h32.477a1.79 1.79 0 010 3.583H67.192v2.329zm-5.904 0h2.326v-2.33h-2.326v2.33zm-5.905-2.33h2.326v2.33h-2.326v-2.33zm2.326 10.175v-4.263h-2.326v4.896a11.17 11.17 0 012.326-.633zm13.14 11.071a11.713 11.713 0 00-.012-.453 1.148 1.148 0 011.46.453H70.85zm-6.379 0h2.8c-.082-4.222-3.536-7.631-7.771-7.631-4.237 0-7.69 3.41-7.773 7.63h2.8a4.987 4.987 0 014.972-4.748 4.986 4.986 0 014.972 4.749zm-3.594 0H58.12a1.4 1.4 0 011.378-1.166 1.4 1.4 0 011.378 1.166zm-14.177 0h1.447c.002-.152.005-.304.013-.454a1.162 1.162 0 00-1.46.454zm.99-6.467c.81 0 1.589.143 2.315.396-.43.656-.795 1.359-1.084 2.1a4.705 4.705 0 00-1.232-.167 4.75 4.75 0 00-4.701 4.138h-2.339c.31-3.617 3.348-6.467 7.04-6.467zm-7.578 10.05c.907 9.91 9.256 17.698 19.387 17.698s18.48-7.789 19.387-17.698H40.11zm38.237-3.583H76.01a4.75 4.75 0 00-4.702-4.138c-.427 0-.84.058-1.233.164-.29-.74-.653-1.444-1.084-2.1a7.007 7.007 0 012.317-.393c3.692 0 6.73 2.85 7.04 6.467zm-17.06-11.07c.806.128 1.585.344 2.326.633v-4.896h-2.326v4.263z" fill="#262D33"/></svg>