<svg width="119" height="119" viewBox="0 0 119 119" fill="none" xmlns="http://www.w3.org/2000/svg"><path d="M59.207 118.414c32.699 0 59.207-26.508 59.207-59.207C118.414 26.507 91.906 0 59.207 0 26.507 0 0 26.508 0 59.207s26.508 59.207 59.207 59.207z" fill="#fff"/><path d="M87.455 74.659h0v-.005a.966.966 0 00-.27-.696.966.966 0 00-.697-.27H31.584a.966.966 0 00-.697.27.966.966 0 00-.27.696c0 4.15 3.336 7.49 7.418 7.49h41.93c4.083 0 7.416-3.34 7.49-7.485zm-49.42 5.551c-2.713 0-4.982-1.981-5.444-4.589h52.746c-.462 2.608-2.73 4.589-5.443 4.589h-41.86z" fill="#262D33" stroke="#262D33" stroke-width=".5"/><path d="M90.25 73.938v-.25h-62.5v1.933h62.5v-1.683z" fill="#262D33" stroke="#262D33" stroke-width=".5"/><path d="M84.755 74.976l.263.013v-.263c0-.15.003-.235.045-.318l.026-.053v-.059c0-7.553-7.1-13.653-15.732-13.653-2.326 0-4.506.436-6.61 1.234l-.233.088.086.232.502 1.362.09.246.242-.102c1.829-.774 3.802-1.127 5.852-1.127 7.642 0 13.798 5.3 13.798 11.72v.596l.238.012 1.433.072z" fill="#262D33" stroke="#262D33" stroke-width=".5"/><path d="M71.053 74.975l.275.027v-.276c0-.159.015-.319.032-.502l.002-.02c.018-.189.037-.397.037-.625 0-4.003-2.167-7.601-5.637-10.19-3.47-2.589-8.255-4.18-13.535-4.18-5.246 0-10.03 1.591-13.508 4.18-3.479 2.588-5.665 6.187-5.665 10.19v.013c0 .35 0 .8.077 1.183l.044.222.226-.022 1.433-.144.274-.027-.054-.27c-.066-.332-.066-.595-.066-.955 0-3.412 1.897-6.515 5.012-8.775 3.116-2.26 7.435-3.662 12.227-3.662 4.755 0 9.075 1.403 12.2 3.662 3.124 2.26 5.039 5.364 5.039 8.775 0 .36-.001.624-.067.955l-.054.27.274.027 1.434.144z" fill="#262D33" stroke="#262D33" stroke-width=".5"/><path d="M37.143 74.839l.043.26.258-.057 1.29-.287.25-.056-.062-.249c-.063-.25-.064-.576-.064-.87 0-2.213 1.466-4.314 3.882-5.874 2.41-1.557 5.73-2.55 9.343-2.55 3.614 0 6.934.975 9.344 2.523 2.415 1.551 3.881 3.651 3.881 5.9 0 .295-.001.62-.064.871l-.063.255.257.051 1.433.287.253.05.043-.254.027-.159c.061-.36.12-.703.12-1.1 0-2.835-1.77-5.43-4.527-7.303-2.76-1.877-6.537-3.054-10.632-3.054s-7.872 1.159-10.632 3.026c-2.757 1.866-4.527 4.46-4.527 7.33 0 .398.059.74.12 1.101l.027.159z" fill="#262D33" stroke="#262D33" stroke-width=".5"/><path d="M62.651 75.236l.237.119.105-.244c.215-.502.383-1.052.307-1.552-.012-1.526-1.29-3.106-3.257-4.288-1.995-1.199-4.763-2.034-7.888-2.034-3.09 0-5.858.835-7.86 2.033-1.985 1.187-3.285 2.776-3.285 4.31 0 .552.16 1.02.379 1.531l.102.239.234-.111 1.362-.645.262-.124-.16-.24a1.135 1.135 0 01-.174-.579c0-.244.143-.656.522-1.146.372-.483.956-1.018 1.791-1.505h0l.005-.003c1.817-1.118 4.279-1.755 6.894-1.755 2.822 0 5.144.759 6.754 1.704.806.473 1.428.989 1.845 1.475.425.493.612.924.612 1.23 0 .157-.051.33-.189.605l-.112.224.224.111 1.29.645z" fill="#262D33" stroke="#262D33" stroke-width=".5"/><path d="M56.914 75.25l.17.192.187-.175 1.075-1.003.19-.177-.183-.183c-.8-.8-2.87-2.725-6.198-2.725-3.326 0-5.467 1.92-6.206 2.734l-.166.182.18.169 1.076 1.003.187.175.17-.191c.547-.616 2.205-2.067 4.759-2.067 2.554 0 4.212 1.451 4.759 2.067zm23.827-.274l.263.013v-.263c0-.136 0-.247.059-.423l.013-.038v-.04c0-5.345-5.323-9.64-11.79-9.64-.804 0-1.608.073-2.41.219l-.239.043.036.24.215 1.433.036.238.239-.026c.644-.072 1.35-.142 2.05-.142 5.512 0 9.857 3.524 9.857 7.706v.596l.238.012 1.433.072z" fill="#262D33" stroke="#262D33" stroke-width=".5"/><path d="M76.715 74.975l.275.027v-.276 0-.002 0-.003 0-.002 0-.004 0-.002 0-.003 0-.002 0-.003 0-.002 0-.003 0-.002 0-.004 0-.002 0-.003 0-.002 0-.003 0-.002 0-.003 0-.002 0-.004 0-.002 0-.003 0-.002 0-.003 0-.002 0-.003 0-.002 0-.004 0-.002 0-.003 0-.002 0-.003 0-.002 0-.003 0-.002 0-.004 0-.002 0-.003 0-.002 0-.003 0-.002 0-.003 0-.002 0-.004 0-.002 0-.003 0-.002 0-.003 0-.002 0-.003 0-.002 0-.004 0-.002 0-.003 0-.002 0-.003 0-.002 0-.003 0-.002 0-.004 0-.002 0-.003 0-.002 0-.003 0-.002 0-.003 0-.002 0-.004 0-.002 0-.003 0-.002 0-.003 0-.002 0-.003 0-.002 0-.004 0-.002 0-.003 0-.002 0-.003 0-.002 0-.003 0-.002 0-.004 0-.002 0-.003 0-.002 0-.003 0-.002 0-.003 0-.002 0-.004 0-.002 0-.003 0-.002 0-.003 0-.002 0-.003 0-.002 0-.004 0-.002 0-.003 0-.002 0-.003 0-.002 0-.003 0-.002 0-.004 0-.002 0-.003 0-.002 0-.003 0-.002 0-.003 0-.002 0-.004 0-.002 0-.003 0-.002 0-.003 0-.002 0-.003 0-.002 0-.004 0-.002 0-.003 0-.002 0-.003 0-.002 0-.003 0-.002 0-.004 0-.002 0-.003 0-.002 0-.003 0-.002 0-.003 0-.002 0-.004 0-.002 0-.003 0-.002 0-.003 0-.002 0-.003 0-.002 0-.004 0-.002 0-.003 0-.002 0-.003 0-.002 0-.003 0-.002 0-.004 0-.002 0-.003 0-.002 0-.003 0-.002 0-.003 0-.002 0-.003c0-1.497-.844-2.872-2.168-3.881-1.326-1.01-3.15-1.671-5.169-1.745l-.246-.009-.013.247-.071 1.433-.013.257.257.006c1.494.034 2.88.504 3.886 1.2 1.012.701 1.603 1.602 1.603 2.492v.513l.225.022 1.434.144zM37.963 66.16h.25V31.683h7.348c1.8 0 3.19 1.397 3.19 3.12a3.191 3.191 0 01-3.19 3.19h-.967v1.933h.967c2.864 0 5.124-2.336 5.124-5.124 0-2.795-2.339-5.052-5.124-5.052h-8.315a.966.966 0 00-.696.27.966.966 0 00-.27.697V66.16h1.683z" fill="#262D33" stroke="#262D33" stroke-width=".5"/><path d="M64.59 34.157v-.25H44.594v1.934H64.59v-1.684z" fill="#262D33" stroke="#262D33" stroke-width=".5"/><path d="M66.418 37.92h15.554a3.125 3.125 0 003.117-3.118 3.125 3.125 0 00-3.117-3.117H66.418a3.125 3.125 0 00-3.117 3.117 3.125 3.125 0 003.117 3.117zm-1.183-3.046c0-.65.533-1.184 1.183-1.184h15.554c.65 0 1.184.534 1.184 1.184 0 .65-.533 1.184-1.184 1.184H66.418c-.65 0-1.183-.534-1.183-1.184zm-23.438-4.157v-.25h-1.934v32.61h1.934v-32.36zm4.013 0v-.25h-1.933V61.5h1.934V30.717z" fill="#262D33" stroke="#262D33" stroke-width=".5"/></svg>