<svg width="119" height="119" viewBox="0 0 119 119" fill="none" xmlns="http://www.w3.org/2000/svg"><path d="M59.207 118.414c32.699 0 59.207-26.508 59.207-59.207C118.414 26.507 91.906 0 59.207 0 26.507 0 0 26.508 0 59.207s26.508 59.207 59.207 59.207z" fill="#fff"/><path d="M107.104 56.082h.001a1.36 1.36 0 011.199.284m-1.2-.284l1.202.285h-.002m-1.2-.285l-19.87 4.685s0 0 0 0a1.366 1.366 0 00-.873.655c-.186.328-.23.72-.12 1.08v.002l.103.325-6.839 1.612c-.584-.545-1.412-1.012-2.397-1.415-1.034-.422-2.254-.78-3.577-1.083-2.645-.606-5.718-.998-8.563-1.255h0a1.374 1.374 0 00-1.484 1.232v.003a1.374 1.374 0 001.232 1.483h.002c4.514.4 7.676 1.006 9.761 1.6 1.043.296 1.813.588 2.347.848.268.13.473.25.622.356.08.057.141.108.186.152-.094.1-.249.219-.479.351-.312.18-.74.37-1.282.566-1.085.392-2.615.794-4.57 1.157-3.909.725-9.502 1.288-16.61 1.288-7.106 0-12.7-.563-16.608-1.288-1.956-.363-3.485-.765-4.57-1.157a8.241 8.241 0 01-1.282-.566 2.138 2.138 0 01-.477-.348c.108-.101.3-.24.608-.406.425-.23 1.053-.498 1.94-.78 1.772-.562 4.569-1.173 8.831-1.624a1.364 1.364 0 001.213-1.504 1.364 1.364 0 00-1.505-1.213h-.002c-4.434.48-7.822 1.153-10.133 2.02-1.156.434-2.055.92-2.682 1.464-.628.545-.994 1.157-1.056 1.837a9.325 9.325 0 01-.033.245c-.158 1.12-.6 4.25 1.795 7.459 1.832 2.453 4.777 4.286 8.78 5.506 4.005 1.22 9.083 1.831 15.2 1.831 6.118 0 11.196-.611 15.199-1.831s6.945-3.053 8.772-5.506c2.03-2.722 2.073-5.446 1.906-6.87l6.597-1.558c.222.488.703.804 1.24.804h.005c.052 0 .13 0 .203-.012m18.47-10.145l-18.47 10.145m19.67-9.86c.338.283.511.698.49 1.14l-.001.003-.307 4.602h0a1.37 1.37 0 01-1.156 1.256h-.001l-18.694 2.86m19.669-9.862l-19.669 9.861m0 0h-.001m.001 0h-.001m-12.18 6.054h0c-2.104 2.784-7.585 6.19-21.741 6.19-14.167 0-19.647-3.406-21.751-6.19h0a7.134 7.134 0 01-1.327-2.885c1.51.719 3.545 1.265 5.773 1.683 2.415.453 5.07.757 7.561.962 4.982.41 9.313.421 9.743.421.427 0 4.758-.012 9.74-.421 2.491-.205 5.148-.509 7.563-.962 2.229-.418 4.264-.964 5.775-1.683a7.153 7.153 0 01-1.336 2.885zm29.482-13.12l-.111 1.665-16.459 2.52-.08-.254 16.65-3.932zm-49.938-2.433a3.518 3.518 0 003.516-3.516 3.524 3.524 0 00-3.516-3.517 3.518 3.518 0 00-3.516 3.517 3.524 3.524 0 003.516 3.516zm0-4.313a.788.788 0 11-.001 1.576.788.788 0 01.001-1.576zm6.335-13.573a3.518 3.518 0 003.516-3.516 3.526 3.526 0 00-3.516-3.526 3.518 3.518 0 00-3.517 3.516c0 1.936 1.58 3.526 3.517 3.526zm0-4.313c.438 0 .787.356.787.787 0 .43-.358.788-.787.788a.788.788 0 010-1.575z" fill="#262D33" stroke="#262D33" stroke-width=".4"/><path d="M53.1 47.967c.224.298.672.652 1.491.652 2.134 0 3.801-2.217 3.801-5.04 0-2.822-1.667-5.04-3.8-5.04-.82 0-1.258.355-1.491.653-.55.726-.298 1.602-.056 2.45.168.586.354 1.257.354 1.928 0 .67-.186 1.341-.354 1.928-.242.867-.494 1.742.056 2.469zm2.963-4.378c0 .96-.298 1.76-.68 2.245.168-.615.354-1.398.354-2.245 0-.848-.186-1.621-.354-2.245.382.475.68 1.285.68 2.245zm-5.831 13.125c-.224-.298-.671-.652-1.49-.652-2.134 0-3.802 2.217-3.802 5.04s1.668 5.04 3.801 5.04c.82 0 1.258-.354 1.49-.652.55-.727.299-1.603.057-2.45-.168-.587-.354-1.258-.354-1.929 0-.67.186-1.341.354-1.928.242-.866.493-1.742-.056-2.469zm-2.953 4.388c0-.95.288-1.751.68-2.226-.168.614-.345 1.388-.345 2.226 0 .848.186 1.62.354 2.245-.4-.484-.69-1.295-.69-2.245zm-5.068-7.238a5.03 5.03 0 003.587-1.49 5.047 5.047 0 001.49-3.587 5.03 5.03 0 00-1.49-3.587 5.047 5.047 0 00-3.587-1.49 5.03 5.03 0 00-3.587 1.49c-1.974 1.975-1.974 5.198 0 7.182a5.077 5.077 0 003.587 1.482zm-2.6-5.944l1.035 1.034-.94.941a2.728 2.728 0 01-.094-1.975zm1.855 3.512l.829-.829.792.792c-.28.093-.569.14-.876.14-.252 0-.503-.037-.745-.103zm3.39-3.39a2.781 2.781 0 01-.083 1.741l-.83-.829.914-.913zM43.33 46.28l-1.034 1.034-1.08-1.08c.316-.122.651-.187.996-.187.391-.01.773.075 1.118.233zm19.888 5.255a5.047 5.047 0 00-1.49 3.586c0 1.36.53 2.627 1.49 3.587.96.96 2.235 1.49 3.586 1.49a5.03 5.03 0 003.587-1.49c1.974-1.975 1.974-5.198 0-7.183a5.047 5.047 0 00-3.587-1.49 5.1 5.1 0 00-3.587 1.5zm4.704 1.08l-1.034 1.034-1.08-1.08c.316-.121.651-.187.996-.187.391-.009.773.075 1.118.233zm1.444 3.503l-.83-.83.904-.903a2.76 2.76 0 01-.074 1.733zm-5.068.121a2.68 2.68 0 01-.242-1.118c0-.298.047-.596.14-.875l1.043 1.043-.94.95zm1.76 1.528l.83-.83.792.793c-.28.093-.569.14-.876.14a2.88 2.88 0 01-.745-.103z" fill="#262D33"/><path d="M58.745 64.895h0l.003.01a.728.728 0 01.012.175.941.941 0 01-.936.936.941.941 0 01-.92-1.117 1.37 1.37 0 00-.885-1.544h0l-.002-.001a.925.925 0 01-.62-.883c0-.513.423-.936.936-.936.282 0 .48.12.608.224a1.36 1.36 0 001.766 0 .945.945 0 01.607-.224h.003a.927.927 0 01.934.927.957.957 0 01-.624.884 1.37 1.37 0 00-.882 1.549zm-.92-5.783a3.67 3.67 0 00-5.158 3.35c0 1.189.58 2.284 1.509 2.96a3.67 3.67 0 003.648 3.314c1.9 0 3.464-1.458 3.647-3.314a3.664 3.664 0 001.509-2.96 3.67 3.67 0 00-3.666-3.665c-.512 0-1.022.114-1.489.315zM45.89 37.003l.197.039a.912.912 0 01.328-.553.948.948 0 01.584-.209.93.93 0 01.728.353h0a.936.936 0 01.061 1.075 1.35 1.35 0 00.285 1.759.929.929 0 01-.014 1.44.948.948 0 01-.585.209.93.93 0 01-.728-.353h0l-.003-.004a1.076 1.076 0 01-.1-.154 1.364 1.364 0 00-1.66-.65.95.95 0 01-1.034-.294h0a.909.909 0 01.137-1.3h0l.003-.002a.988.988 0 01.615-.206c.666.02 1.252-.45 1.383-1.112l-.197-.038zm0 0a1.172 1.172 0 01-1.183.95l3.177-1.444a1.13 1.13 0 00-.885-.429c-.177 0-.447.047-.708.252-.27.214-.363.484-.4.67zm3.861 6.053h0a3.676 3.676 0 00.773-4.868 3.681 3.681 0 00-.677-3.258h0a3.664 3.664 0 00-2.857-1.37c-.828 0-1.646.286-2.288.81a3.773 3.773 0 00-.961 1.175 3.63 3.63 0 00-1.358.687c-1.577 1.262-1.822 3.577-.562 5.152a3.633 3.633 0 003.02 1.367 3.652 3.652 0 002.624 1.122c.83 0 1.647-.306 2.286-.817zm10.486 1.632l-.1-.174c.143-.081 3.4-1.846 6.551.717l.002.002h0c.575.478.676 1.329.195 1.92l-.002.001h0a1.38 1.38 0 01-1.057.5c-.303 0-.61-.097-.862-.305a3.767 3.767 0 00-.508-.34l-.322 2.89s0 0 0 0a1.36 1.36 0 01-1.354 1.212h-.005c-.043 0-.094 0-.157-.012a1.362 1.362 0 01-1.192-1.506s0 0 0 0l.31-2.804a3.179 3.179 0 00-.242.1l-.034.016-.013.005a1.375 1.375 0 01-1.84-.54l-.002-.002h0a1.375 1.375 0 01.533-1.854l.099.174zm0 0c.13-.075 3.279-1.78 6.325.699l-6.325-.7zm-20.433 15.51h0a1.367 1.367 0 00-.939-1.692l-.026-.007a1.897 1.897 0 01-.253-.105l2.203-1.765s0 0 0 0c.59-.47.688-1.332.208-1.922a1.359 1.359 0 00-1.92-.207h-.001l-2.262 1.813a3.73 3.73 0 01-.114-.595c-.058-.75-.74-1.29-1.487-1.215-.752.077-1.3.752-1.212 1.497.207 2.014 1.197 3.29 2.156 4.066.946.766 1.862 1.043 1.97 1.071.114.031.243.053.367.053a1.37 1.37 0 001.31-.992z" fill="#262D33" stroke="#262D33" stroke-width=".4"/></svg>