<svg width="120" height="120" viewBox="0 0 120 120" fill="none" xmlns="http://www.w3.org/2000/svg"><path d="M60.133 119.246c32.699 0 59.206-26.508 59.206-59.207S92.832.833 60.133.833C27.433.833.926 27.34.926 60.039c0 32.7 26.508 59.207 59.207 59.207z" fill="#fff"/><path fill-rule="evenodd" clip-rule="evenodd" d="M83.94 69.99h-2.313V53.236c0-.877-.702-1.588-1.567-1.588h-4.9v-8.895c0-.877-.702-1.588-1.567-1.588H47.729c-.866 0-1.568.711-1.568 1.588v8.895h-4.898c-.866 0-1.568.71-1.568 1.588V69.99h-2.312c-.866 0-1.568.71-1.568 1.588 0 .877.702 1.588 1.568 1.588h21.71v4.685h-3.605c-.865 0-1.567.712-1.567 1.589s.702 1.588 1.567 1.588h10.346c.866 0 1.568-.711 1.568-1.588 0-.877-.702-1.589-1.568-1.589H62.23v-4.685h21.71c.866 0 1.568-.711 1.568-1.588 0-.877-.702-1.588-1.568-1.588zM49.296 44.34h22.73v7.306h-22.73V44.34zm29.195 12.573v-2.09H42.83v2.09c.314.058.607.21.833.44a1.604 1.604 0 010 2.245c-.226.23-.52.382-.833.44v3.664c.625-.073.976-.415 1.614-1.087.832-.875 1.972-2.075 4.147-2.075 2.176 0 3.315 1.2 4.147 2.075.726.764 1.08 1.102 1.889 1.102.808 0 1.162-.338 1.888-1.102.832-.875 1.971-2.075 4.147-2.075 2.175 0 3.314 1.2 4.146 2.075.726.764 1.08 1.102 1.888 1.102.808 0 1.163-.338 1.889-1.102.831-.875 1.97-2.075 4.146-2.075s3.315 1.2 4.147 2.075c.638.672.99 1.014 1.614 1.087v-3.664a1.58 1.58 0 01-.835-.44 1.61 1.61 0 01-.459-1.122c0-.418.168-.828.46-1.123.226-.23.52-.382.834-.44zM42.83 66.885c1.997-.097 3.077-1.228 3.873-2.066.726-.763 1.08-1.101 1.888-1.101.808 0 1.163.338 1.889 1.101.832.876 1.971 2.076 4.147 2.076s3.315-1.2 4.147-2.076c.725-.763 1.08-1.101 1.888-1.101.807 0 1.162.338 1.888 1.101.832.877 1.971 2.076 4.147 2.076 2.175 0 3.314-1.2 4.146-2.076.726-.763 1.08-1.101 1.888-1.101.808 0 1.163.338 1.888 1.101.796.838 1.876 1.97 3.873 2.066v3.107H42.83v-3.107zM55.734 59.6a1.568 1.568 0 01-1.109.465c-.412 0-.815-.17-1.108-.465a1.61 1.61 0 01-.46-1.123c0-.418.168-.828.46-1.123a1.569 1.569 0 011.108-.465c.414 0 .817.17 1.108.465a1.604 1.604 0 010 2.246zm10.961.465c.412 0 .817-.17 1.108-.465a1.604 1.604 0 000-2.246 1.566 1.566 0 00-1.108-.465c-.412 0-.817.17-1.108.465-.292.295-.46.705-.46 1.123 0 .418.168.827.46 1.123a1.57 1.57 0 001.108.465zM51.793 46.87a1.569 1.569 0 011.108-.465c.412 0 .817.17 1.108.465a1.604 1.604 0 010 2.246 1.565 1.565 0 01-1.108.465 1.57 1.57 0 01-1.108-.465 1.61 1.61 0 01-.46-1.123c0-.417.168-.827.46-1.123zm8.867-.465c-.412 0-.816.17-1.108.465-.292.296-.46.706-.46 1.123 0 .418.168.828.46 1.123a1.57 1.57 0 001.108.465c.414 0 .817-.17 1.108-.465a1.603 1.603 0 000-2.246 1.568 1.568 0 00-1.108-.465zm6.652.465a1.569 1.569 0 011.109-.465c.413 0 .816.17 1.108.465a1.604 1.604 0 010 2.246 1.565 1.565 0 01-1.108.465c-.413 0-.817-.17-1.109-.465a1.61 1.61 0 01-.46-1.123c0-.417.169-.827.46-1.123z" fill="#262D33"/></svg>