<svg width="119" height="119" viewBox="0 0 119 119" fill="none" xmlns="http://www.w3.org/2000/svg"><path d="M59.207 118.414c32.699 0 59.207-26.508 59.207-59.207C118.414 26.507 91.906 0 59.207 0 26.507 0 0 26.508 0 59.207s26.508 59.207 59.207 59.207z" fill="#fff"/><path d="M54.88 60.953c0-.201 0-.226-.42-.507-.474-.314-1.19-.797-1.408-1.9-.483-2.463-.338-14.255-.048-18.521.282-4.121 2.938-8.025 5.465-8.025.322 0 .628.064.918.185.861.378 1.417 1.232 1.264 9.442-.063 3.197.088 6.532.222 9.499l.011.24-6.005 9.587zm0 0c.055 6.341-.25 11.866-.475 15.933l-.008.157c-.274 4.822-.338 6.383.04 7.148l.443-23.238zm-.623 23.326v.001l6.136-.009.17.106s0 0 0 0c.158-.252.26-.609.326-1.113.066-.507.097-1.184.098-2.09 0-1.81-.12-4.565-.338-8.77l-.014-.284c-.11-2.139-.236-4.601-.3-6.71a68.865 68.865 0 01-.04-2.912c.01-.764.046-1.336.11-1.655.26-.235.445-.561.575-.99.137-.457.216-1.042.254-1.782.076-1.478-.01-3.627-.15-6.714l-.01-.238c-.135-2.968-.286-6.297-.223-9.488h0c.076-4.105-.024-6.388-.255-7.697-.115-.654-.267-1.084-.46-1.378a1.432 1.432 0 00-.669-.554h0L59.465 32c-.313-.13-.645-.2-.995-.2-1.364 0-2.712 1.045-3.74 2.555-1.035 1.52-1.781 3.56-1.925 5.656h0c-.145 2.14-.254 6.16-.266 9.95a152.44 152.44 0 00.062 5.259c.05 1.516.132 2.73.256 3.365h0c.234 1.187 1.013 1.71 1.494 2.027.104.07.178.121.231.162a.526.526 0 01.09.08c.005.003.008.006.008.099v.002c.056 6.334-.249 11.854-.474 15.921l-.008.156s0 0 0 0c-.137 2.409-.222 4.01-.225 5.106-.003 1.087.073 1.712.285 2.141zm3.98-11.75v.001c.11 2.065.236 4.504.3 6.548.03 1.022.047 1.943.036 2.668-.005.363-.016.675-.035.924-.017.23-.04.396-.067.5a.938.938 0 01-.488.322 1.906 1.906 0 01-1.234-.065.887.887 0 01-.316-.2c-.028-.127-.047-.368-.052-.72-.006-.376.003-.855.022-1.409.034-1.019.101-2.281.172-3.595l.017-.336c.234-4.106.548-9.737.492-16.232h0c-.018-1.387-.9-1.98-1.397-2.314l-.012-.007c-.202-.136-.306-.212-.368-.28a.355.355 0 01-.094-.203v-.001c-.101-.523-.173-1.62-.218-3.06-.044-1.434-.06-3.19-.054-5.022.012-3.664.114-7.617.267-9.864.114-1.684.67-3.148 1.328-4.209.328-.53.68-.957 1.01-1.258.248-.226.473-.372.66-.447.132.721.32 2.598.232 7.313-.062 3.278.09 6.655.224 9.647l.01.234.2-.01-.2.01.007.147c.07 1.571.145 3.224.164 4.6.01.71.005 1.344-.021 1.854-.025.469-.068.813-.127 1.014-.242.175-.422.428-.55.845-.135.441-.214 1.076-.247 2.02-.066 1.89.054 5.083.34 10.586zM46.885 40.19v-.724c0-.555.451-1.03 1.007-1.03.555 0 1.006.475 1.006 1.03v.676c.008 2.825.016 6.73-.363 9.345-.466 3.292-2.47 5.498-3.332 6.295.016 1.907.08 9.417.282 16.017a289.5 289.5 0 00.184 4.621l.033.74c.242 5.248.258 6.552-.153 7.212-.58.942-1.666 1.498-2.914 1.498h0c-.064 0-.128 0-.193-.009-1.28-.056-2.398-.676-2.85-1.585-.249-.5-.24-1.272-.096-5.401a284.1 284.1 0 00.193-7.124c.08-6.528-.056-14.126-.096-15.97-.805-.812-2.801-3.114-3.252-6.382-.358-2.581-.346-6.353-.338-8.88v-1.101a1.007 1.007 0 012.012 0v1.112c-.008 2.471-.02 6.16.314 8.595.447 3.213 2.763 5.328 2.907 5.46a.996.996 0 01.353.747l.004.177c.026 1.293.19 9.375.1 16.275-.032 2.688-.12 5.175-.192 7.171-.073 1.94-.145 3.944-.081 4.484.145.177.563.386 1.103.418l4.362-43.666zm0 0c.008 2.77.017 6.56-.338 9.032m.338-9.032l-.338 9.032m0 0c-.475 3.308-2.946 5.304-2.97 5.32a.995.995 0 00-.386.797c0 .089.048 8.91.281 16.525l3.075-22.642zm-4.014 34.435a1.992 1.992 0 01-.633-.14 1.046 1.046 0 01-.288-.167c-.023-.284-.02-.87-.003-1.623a217 217 0 01.091-2.764h0c.073-1.997.161-4.486.194-7.177.048-3.745.022-7.838-.016-11.005a660.725 660.725 0 00-.08-5.029l-.007-.308-.001-.083v-.023l-.001-.007h0v-.006a1.196 1.196 0 00-.416-.887c-.184-.168-2.413-2.23-2.846-5.34-.332-2.422-.32-6.1-.312-8.576v-.073 0-1.032a1.207 1.207 0 00-2.412 0v1.108c-.008 2.523-.02 6.305.34 8.9.45 3.258 2.402 5.567 3.252 6.44.042 1.971.174 9.448.094 15.883h0c-.032 2.661-.12 5.13-.193 7.119h0c-.072 2.062-.11 3.294-.1 4.071.012.774.071 1.133.218 1.426.491.99 1.685 1.635 3.012 1.696.074.008.145.008.205.008h.004c1.306 0 2.463-.582 3.084-1.591.237-.382.334-.925.351-1.988.017-1.072-.047-2.717-.168-5.339-.01-.242-.022-.489-.034-.74a289.844 289.844 0 01-.183-4.617h0c-.199-6.501-.264-13.886-.281-15.926.909-.859 2.865-3.076 3.33-6.352.38-2.634.372-6.554.364-9.374 0 0 0 0 0 0v-.676c0-.66-.535-1.23-1.206-1.23-.672 0-1.207.57-1.207 1.23v.725c.008 2.775.016 6.549-.336 9.002-.231 1.612-.95 2.907-1.616 3.804a9.237 9.237 0 01-.89 1.03 6.667 6.667 0 01-.362.335l-.02.018h0l-.006.004c-.3.232-.464.581-.464.955 0 .09.048 8.914.282 16.53.047 1.63.119 3.206.183 4.64l.034.749h0c.064 1.345.127 2.711.155 3.821.014.556.02 1.045.012 1.434-.006.36-.023.62-.05.769-.139.172-.342.27-.552.323-.22.055-.426.056-.522.052z" fill="#262D33" stroke="#262D33" stroke-width=".4"/><path d="M39.377 47.95a1.206 1.206 0 002.412 0v-8.532a1.207 1.207 0 00-2.412 0v8.532zm3.541 0a1.207 1.207 0 002.413 0v-8.532a1.207 1.207 0 00-2.413 0v8.532zm31.339 30.32l-.2.01.018.36c.047.93.096 1.886.12 2.695.015.456.021.863.016 1.19-.005.301-.02.519-.044.643a.946.946 0 01-.484.312 1.78 1.78 0 01-.505.071c-.264 0-.502-.051-.688-.122a1.091 1.091 0 01-.319-.177c-.02-.26-.015-.761.003-1.402.016-.6.044-1.31.072-2.025l.013-.332h0v-.021c.065-1.695.145-3.806.17-5.99l-.2-.001.2.002c.04-3.681 0-7.442-.041-9.946v-.013c-.04-2.508-.06-3.77-.098-4.443-.019-.336-.042-.54-.08-.684a.883.883 0 00-.155-.323h0a1.215 1.215 0 00-.596-.453h0l-.004-.002c-3.028-1.024-5.192-4.769-5.192-9.171 0-2.615.77-4.98 2.003-6.686 1.234-1.706 2.92-2.741 4.76-2.741 1.839 0 3.524 1.033 4.758 2.738s2.004 4.07 2.004 6.689c0 4.457-2.292 8.308-5.368 9.225-.23.06-.422.199-.57.365l-.002.002-.001.002a.792.792 0 00-.192.332c-.044.15-.067.365-.078.711-.023.696-.003 2.005.037 4.603v.016c.04 2.6.113 6.45.233 9.985.057 1.652.138 3.215.21 4.591l.2-.01zm0 0a245.79 245.79 0 01-.21-4.588 563.8 563.8 0 01-.233-9.981c-.08-5.224-.08-5.224.185-5.53m.258 20.099l.018.36c.1 1.98.207 4.091.078 4.622-.314.451-.925.5-1.175.5-.58 0-1.046-.226-1.2-.411L74 58.17m0 0a.972.972 0 01.475-.306c3.195-.95 5.514-4.91 5.514-9.417 0-5.313-3.123-9.627-6.963-9.627s-6.962 4.322-6.962 9.627c0 4.45 2.189 8.298 5.328 9.36.201.073.378.202.5.38L74 58.17zm2.286 26.194h0c.246-.394.339-.947.353-1.876.014-.937-.053-2.297-.161-4.334-.073-1.377-.153-2.92-.21-4.552-.189-5.5-.262-11.72-.287-13.94 3.721-1.608 6.22-6.082 6.22-11.215 0-3.248-1.019-6.202-2.673-8.348-1.654-2.145-3.952-3.491-6.502-3.491-5.106 0-9.175 5.356-9.175 11.839 0 5.008 2.422 9.457 6.04 11.141.059 2.07.181 8.176.126 13.865-.024 2.138-.103 4.22-.168 5.904v.04c-.07 1.776-.106 2.855-.095 3.55.011.692.07 1.035.212 1.32.518 1.036 1.817 1.696 3.213 1.696 1.323 0 2.462-.575 3.107-1.599z" fill="#262D33" stroke="#262D33" stroke-width=".4"/></svg>