<svg fill="none" xmlns="http://www.w3.org/2000/svg" viewBox="0 0 119 119"><path d="M59.207 118.414c32.699 0 59.207-26.508 59.207-59.207C118.414 26.507 91.906 0 59.207 0 26.507 0 0 26.508 0 59.207s26.508 59.207 59.207 59.207z" fill="#fff"/><mask id="a" maskUnits="userSpaceOnUse" x="51.737" y="31" width="10" height="56" fill="#000"><path fill="#fff" d="M51.737 31h10v56h-10z"/><path d="M57.471 85.776c-1.344 0-2.56-.635-3.034-1.585-.378-.765-.314-2.326-.04-7.148.225-4.08.539-9.667.483-16.09 0-.201 0-.226-.42-.507-.474-.314-1.19-.797-1.408-1.9-.483-2.463-.338-14.255-.048-18.521.282-4.121 2.938-8.025 5.465-8.025.322 0 .628.064.918.185.861.378 1.417 1.232 1.264 9.442-.065 3.284.096 6.713.233 9.74.282 6.181.338 8.547-.66 9.369-.314 1.312 0 7.276.226 11.679.434 8.411.482 10.995-.057 11.856-.587.958-1.658 1.505-2.922 1.505zm-1.223-2.463c.12.194.604.451 1.223.451.258 0 .87-.048 1.184-.507.29-.974 0-6.608-.218-10.738-.571-11.01-.475-12.733.427-13.313.322-.885.153-4.524.008-7.751-.137-3.05-.298-6.512-.233-9.868.096-5.248-.145-7.003-.282-7.567-1.079.17-3.115 2.713-3.349 6.15-.306 4.507-.41 15.833.008 17.998.049.257.153.346.548.612.49.33 1.304.869 1.32 2.157.056 6.487-.258 12.114-.491 16.219-.153 2.865-.306 5.578-.145 6.157z"/></mask><path d="M57.471 85.776c-1.344 0-2.56-.635-3.034-1.585-.378-.765-.314-2.326-.04-7.148.225-4.08.539-9.667.483-16.09 0-.201 0-.226-.42-.507-.474-.314-1.19-.797-1.408-1.9-.483-2.463-.338-14.255-.048-18.521.282-4.121 2.938-8.025 5.465-8.025.322 0 .628.064.918.185.861.378 1.417 1.232 1.264 9.442-.065 3.284.096 6.713.233 9.74.282 6.181.338 8.547-.66 9.369-.314 1.312 0 7.276.226 11.679.434 8.411.482 10.995-.057 11.856-.587.958-1.658 1.505-2.922 1.505zm-1.223-2.463c.12.194.604.451 1.223.451.258 0 .87-.048 1.184-.507.29-.974 0-6.608-.218-10.738-.571-11.01-.475-12.733.427-13.313.322-.885.153-4.524.008-7.751-.137-3.05-.298-6.512-.233-9.868.096-5.248-.145-7.003-.282-7.567-1.079.17-3.115 2.713-3.349 6.15-.306 4.507-.41 15.833.008 17.998.049.257.153.346.548.612.49.33 1.304.869 1.32 2.157.056 6.487-.258 12.114-.491 16.219-.153 2.865-.306 5.578-.145 6.157z" fill="#262D33"/><path d="M57.471 85.776c-1.344 0-2.56-.635-3.034-1.585-.378-.765-.314-2.326-.04-7.148.225-4.08.539-9.667.483-16.09 0-.201 0-.226-.42-.507-.474-.314-1.19-.797-1.408-1.9-.483-2.463-.338-14.255-.048-18.521.282-4.121 2.938-8.025 5.465-8.025.322 0 .628.064.918.185.861.378 1.417 1.232 1.264 9.442-.065 3.284.096 6.713.233 9.74.282 6.181.338 8.547-.66 9.369-.314 1.312 0 7.276.226 11.679.434 8.411.482 10.995-.057 11.856-.587.958-1.658 1.505-2.922 1.505zm-1.223-2.463c.12.194.604.451 1.223.451.258 0 .87-.048 1.184-.507.29-.974 0-6.608-.218-10.738-.571-11.01-.475-12.733.427-13.313.322-.885.153-4.524.008-7.751-.137-3.05-.298-6.512-.233-9.868.096-5.248-.145-7.003-.282-7.567-1.079.17-3.115 2.713-3.349 6.15-.306 4.507-.41 15.833.008 17.998.049.257.153.346.548.612.49.33 1.304.869 1.32 2.157.056 6.487-.258 12.114-.491 16.219-.153 2.865-.306 5.578-.145 6.157z" stroke="#262D33" stroke-width=".8" mask="url(#a)"/><mask id="b" maskUnits="userSpaceOnUse" x="35" y="37.412" width="15" height="49" fill="#000"><path fill="#fff" d="M35 37.412h15v49H35z"/><path d="M42.635 85.87c-.064 0-.128 0-.193-.009-1.28-.056-2.398-.676-2.85-1.585-.249-.5-.24-1.272-.096-5.401a284.1 284.1 0 00.193-7.124c.08-6.528-.056-14.126-.096-15.97-.805-.812-2.801-3.114-3.252-6.382-.362-2.608-.346-6.432-.338-8.959v-1.022a1.007 1.007 0 012.012 0v1.03c-.008 2.471-.024 6.214.314 8.677.459 3.3 2.89 5.441 2.914 5.465a.999.999 0 01.346.741c0 .088.201 8.967.105 16.453a290.715 290.715 0 01-.194 7.171c-.072 1.94-.144 3.944-.08 4.484.145.177.563.386 1.103.418.209.008.917 0 1.271-.49.145-.645.025-3.43-.104-6.118-.073-1.626-.161-3.47-.218-5.385-.233-7.615-.281-16.437-.281-16.525 0-.314.137-.604.386-.797.024-.016 2.495-2.012 2.97-5.32.355-2.471.346-6.263.338-9.032v-.724c0-.555.451-1.03 1.007-1.03.555 0 1.006.475 1.006 1.03v.676c.008 2.825.016 6.73-.363 9.345-.466 3.292-2.47 5.498-3.332 6.295.016 1.907.08 9.417.282 16.017.056 1.908.145 3.743.217 5.361.242 5.248.258 6.552-.153 7.212-.58.942-1.666 1.498-2.914 1.498z"/></mask><path d="M42.635 85.87c-.064 0-.128 0-.193-.009-1.28-.056-2.398-.676-2.85-1.585-.249-.5-.24-1.272-.096-5.401a284.1 284.1 0 00.193-7.124c.08-6.528-.056-14.126-.096-15.97-.805-.812-2.801-3.114-3.252-6.382-.362-2.608-.346-6.432-.338-8.959v-1.022a1.007 1.007 0 012.012 0v1.03c-.008 2.471-.024 6.214.314 8.677.459 3.3 2.89 5.441 2.914 5.465a.999.999 0 01.346.741c0 .088.201 8.967.105 16.453a290.715 290.715 0 01-.194 7.171c-.072 1.94-.144 3.944-.08 4.484.145.177.563.386 1.103.418.209.008.917 0 1.271-.49.145-.645.025-3.43-.104-6.118-.073-1.626-.161-3.47-.218-5.385-.233-7.615-.281-16.437-.281-16.525 0-.314.137-.604.386-.797.024-.016 2.495-2.012 2.97-5.32.355-2.471.346-6.263.338-9.032v-.724c0-.555.451-1.03 1.007-1.03.555 0 1.006.475 1.006 1.03v.676c.008 2.825.016 6.73-.363 9.345-.466 3.292-2.47 5.498-3.332 6.295.016 1.907.08 9.417.282 16.017.056 1.908.145 3.743.217 5.361.242 5.248.258 6.552-.153 7.212-.58.942-1.666 1.498-2.914 1.498z" fill="#262D33"/><path d="M42.635 85.87c-.064 0-.128 0-.193-.009-1.28-.056-2.398-.676-2.85-1.585-.249-.5-.24-1.272-.096-5.401a284.1 284.1 0 00.193-7.124c.08-6.528-.056-14.126-.096-15.97-.805-.812-2.801-3.114-3.252-6.382-.362-2.608-.346-6.432-.338-8.959v-1.022a1.007 1.007 0 012.012 0v1.03c-.008 2.471-.024 6.214.314 8.677.459 3.3 2.89 5.441 2.914 5.465a.999.999 0 01.346.741c0 .088.201 8.967.105 16.453a290.715 290.715 0 01-.194 7.171c-.072 1.94-.144 3.944-.08 4.484.145.177.563.386 1.103.418.209.008.917 0 1.271-.49.145-.645.025-3.43-.104-6.118-.073-1.626-.161-3.47-.218-5.385-.233-7.615-.281-16.437-.281-16.525 0-.314.137-.604.386-.797.024-.016 2.495-2.012 2.97-5.32.355-2.471.346-6.263.338-9.032v-.724c0-.555.451-1.03 1.007-1.03.555 0 1.006.475 1.006 1.03v.676c.008 2.825.016 6.73-.363 9.345-.466 3.292-2.47 5.498-3.332 6.295.016 1.907.08 9.417.282 16.017.056 1.908.145 3.743.217 5.361.242 5.248.258 6.552-.153 7.212-.58.942-1.666 1.498-2.914 1.498z" stroke="#262D33" stroke-width=".8" mask="url(#b)"/><mask id="c" maskUnits="userSpaceOnUse" x="38.577" y="37.412" width="4" height="12" fill="#000"><path fill="#fff" d="M38.577 37.412h4v12h-4z"/><path d="M40.583 48.956c-.556 0-1.006-.45-1.006-1.006v-8.532a1.007 1.007 0 012.012 0v8.532c0 .555-.45 1.006-1.006 1.006z"/></mask><path d="M40.583 48.956c-.556 0-1.006-.45-1.006-1.006v-8.532a1.007 1.007 0 012.012 0v8.532c0 .555-.45 1.006-1.006 1.006z" fill="#262D33"/><path d="M40.583 48.956c-.556 0-1.006-.45-1.006-1.006v-8.532a1.007 1.007 0 012.012 0v8.532c0 .555-.45 1.006-1.006 1.006z" stroke="#262D33" stroke-width=".8" mask="url(#c)"/><mask id="d" maskUnits="userSpaceOnUse" x="42.118" y="37.412" width="4" height="12" fill="#000"><path fill="#fff" d="M42.118 37.412h4v12h-4z"/><path d="M44.125 48.956c-.556 0-1.007-.45-1.007-1.006v-8.532a1.007 1.007 0 012.013 0v8.532c0 .555-.451 1.006-1.006 1.006z"/></mask><path d="M44.125 48.956c-.556 0-1.007-.45-1.007-1.006v-8.532a1.007 1.007 0 012.013 0v8.532c0 .555-.451 1.006-1.006 1.006z" fill="#262D33"/><path d="M44.125 48.956c-.556 0-1.007-.45-1.007-1.006v-8.532a1.007 1.007 0 012.013 0v8.532c0 .555-.451 1.006-1.006 1.006z" stroke="#262D33" stroke-width=".8" mask="url(#d)"/><mask id="e" maskUnits="userSpaceOnUse" x="63.05" y="35.809" width="20" height="51" fill="#000"><path fill="#fff" d="M63.05 35.809h20v51h-20z"/><path d="M73.178 85.764c-1.344 0-2.56-.636-3.034-1.586-.242-.483-.234-1.215-.097-4.773.064-1.69.145-3.791.169-5.949a421.75 421.75 0 00-.129-13.997c-3.59-1.602-6.037-6.005-6.037-11.011 0-6.423 4.025-11.64 8.975-11.64 4.95 0 8.975 5.224 8.975 11.64 0 5.135-2.528 9.562-6.222 11.083.024 2.093.096 8.46.29 14.078.056 1.634.136 3.18.209 4.556.217 4.081.266 5.41-.161 6.093-.604.958-1.674 1.506-2.938 1.506zm-1.2-2.423c.154.185.62.41 1.2.41.25 0 .861-.048 1.175-.499.137-.563.008-2.905-.096-4.982a245.79 245.79 0 01-.21-4.588 563.8 563.8 0 01-.233-9.981c-.08-5.224-.08-5.224.185-5.53a.972.972 0 01.475-.306c3.195-.95 5.514-4.91 5.514-9.417 0-5.313-3.123-9.627-6.963-9.627s-6.962 4.322-6.962 9.627c0 4.45 2.189 8.298 5.328 9.36.201.073.378.202.5.38.216.313.216.313.297 5.352.04 2.503.08 6.262.04 9.94-.024 2.19-.104 4.307-.169 6.005-.064 1.65-.137 3.357-.08 3.856z"/></mask><path d="M73.178 85.764c-1.344 0-2.56-.636-3.034-1.586-.242-.483-.234-1.215-.097-4.773.064-1.69.145-3.791.169-5.949a421.75 421.75 0 00-.129-13.997c-3.59-1.602-6.037-6.005-6.037-11.011 0-6.423 4.025-11.64 8.975-11.64 4.95 0 8.975 5.224 8.975 11.64 0 5.135-2.528 9.562-6.222 11.083.024 2.093.096 8.46.29 14.078.056 1.634.136 3.18.209 4.556.217 4.081.266 5.41-.161 6.093-.604.958-1.674 1.506-2.938 1.506zm-1.2-2.423c.154.185.62.41 1.2.41.25 0 .861-.048 1.175-.499.137-.563.008-2.905-.096-4.982a245.79 245.79 0 01-.21-4.588 563.8 563.8 0 01-.233-9.981c-.08-5.224-.08-5.224.185-5.53a.972.972 0 01.475-.306c3.195-.95 5.514-4.91 5.514-9.417 0-5.313-3.123-9.627-6.963-9.627s-6.962 4.322-6.962 9.627c0 4.45 2.189 8.298 5.328 9.36.201.073.378.202.5.38.216.313.216.313.297 5.352.04 2.503.08 6.262.04 9.94-.024 2.19-.104 4.307-.169 6.005-.064 1.65-.137 3.357-.08 3.856z" fill="#262D33"/><path d="M73.178 85.764c-1.344 0-2.56-.636-3.034-1.586-.242-.483-.234-1.215-.097-4.773.064-1.69.145-3.791.169-5.949a421.75 421.75 0 00-.129-13.997c-3.59-1.602-6.037-6.005-6.037-11.011 0-6.423 4.025-11.64 8.975-11.64 4.95 0 8.975 5.224 8.975 11.64 0 5.135-2.528 9.562-6.222 11.083.024 2.093.096 8.46.29 14.078.056 1.634.136 3.18.209 4.556.217 4.081.266 5.41-.161 6.093-.604.958-1.674 1.506-2.938 1.506zm-1.2-2.423c.154.185.62.41 1.2.41.25 0 .861-.048 1.175-.499.137-.563.008-2.905-.096-4.982a245.79 245.79 0 01-.21-4.588 563.8 563.8 0 01-.233-9.981c-.08-5.224-.08-5.224.185-5.53a.972.972 0 01.475-.306c3.195-.95 5.514-4.91 5.514-9.417 0-5.313-3.123-9.627-6.963-9.627s-6.962 4.322-6.962 9.627c0 4.45 2.189 8.298 5.328 9.36.201.073.378.202.5.38.216.313.216.313.297 5.352.04 2.503.08 6.262.04 9.94-.024 2.19-.104 4.307-.169 6.005-.064 1.65-.137 3.357-.08 3.856z" stroke="#262D33" stroke-width=".8" mask="url(#e)"/></svg>