<svg width="120" height="120" viewBox="0 0 120 120" fill="none" xmlns="http://www.w3.org/2000/svg"><path d="M60.133 119.246c32.699 0 59.206-26.508 59.206-59.207S92.832.833 60.133.833C27.433.833.926 27.34.926 60.039c0 32.7 26.508 59.207 59.207 59.207z" fill="#fff"/><path d="M51.35 43.924h-9.415a.3.3 0 00-.235.487l16.386 20.598V81.29h-8.043a.3.3 0 00-.3.3v1.645a.3.3 0 00.3.3h18.33a.3.3 0 00.3-.3v-1.704a.3.3 0 00-.3-.3h-8.042V65.01l9.04-11.443a8.922 8.922 0 002.133 1.104h0l.006.003c1.081.36 2.288.602 3.502.602 2.845 0 5.388-1.15 7.263-3.025 1.874-1.874 3.025-4.417 3.025-7.262 0-2.845-1.151-5.388-3.025-7.263-1.875-1.874-4.418-3.025-7.263-3.025-2.845 0-5.388 1.151-7.262 3.025h0l-.004.004c-1.567 1.625-2.693 3.76-2.938 6.136H53.92l-2.44-4.313h0c-.65-1.145-1.545-1.876-2.596-2.202-1.046-.325-2.216-.24-3.407.188h0-.002l-8.578 3.173a.3.3 0 00-.177.386l.587 1.586a.3.3 0 00.386.177l8.574-3.171c.729-.252 1.366-.309 1.903-.156.527.151.997.517 1.377 1.195h0l1.804 3.196zm24.544-2.866a.3.3 0 00.3-.3v-3.655a8.53 8.53 0 013.707 1.514l-4.83 4.83-4.835-4.835a8.117 8.117 0 013.712-1.51v3.656a.3.3 0 00.3.3h1.645zm.3 8.277a.3.3 0 00-.3-.3h-1.645a.3.3 0 00-.3.3v3.66a7.761 7.761 0 01-1.596-.416c-.533-.194-1.05-.424-1.494-.719l4.18-5.305 4.867 4.867a8.118 8.118 0 01-3.713 1.51v-3.597zM79 45.87a.3.3 0 00.3.3h3.656a8.118 8.118 0 01-1.51 3.712l-4.835-4.834 4.834-4.835a8.118 8.118 0 011.511 3.712H79.3a.3.3 0 00-.3.3v1.645zm-33.035.3H72.45L59.207 62.78 45.965 46.17zm21.16-2.245a8.117 8.117 0 011.51-3.71l3.661 3.71h-5.17z" fill="#262D33" stroke="#262D33" stroke-width=".6" stroke-linejoin="round"/></svg>