<svg fill="none" xmlns="http://www.w3.org/2000/svg" viewBox="0 0 120 120"><path d="M60.133 119.246c32.699 0 59.206-26.508 59.206-59.207S92.832.833 60.133.833C27.433.833.926 27.34.926 60.039c0 32.7 26.508 59.207 59.207 59.207z" fill="#fff"/><path d="M56.382 64.737h0l.007-.007c1.972-1.984 2.42-4.217 2.157-6.206-.261-1.977-1.222-3.71-2.07-4.73a1.367 1.367 0 00-1.967-.198c-.59.48-.67 1.37-.199 1.958l.02.027c.152.201.881 1.166 1.254 2.457.397 1.379.384 3.11-1.184 4.68a1.39 1.39 0 00-.004 1.985c.259.285.626.422.986.422s.697-.112 1-.388z" fill="#262D33" stroke="#262D33" stroke-width=".4"/><path d="M51.386 50.567h0l-2.885 4.061c-.076 1.186.52 2.367 1.713 3.562.259.285.626.422.986.422.366 0 .726-.14 1.024-.412h0l.007-.007a1.39 1.39 0 000-1.989 4.596 4.596 0 01-.702-.865c-.154-.26-.21-.458-.201-.591h0v-.005c.004-.108.05-.24.15-.4.097-.157.238-.327.413-.508.35-.363.816-.746 1.287-1.132h0l.038-.032c1.011-.832 2.307-1.9 3.067-3.353.78-1.489.988-3.364-.168-5.773h0l-.001-.003a1.423 1.423 0 00-1.876-.643h0l-.003.001a1.423 1.423 0 00-.643 1.876c.666 1.392.657 2.365.24 3.21-.427.871-1.297 1.638-2.446 2.581z" fill="#262D33" stroke="#262D33" stroke-width=".4"/><path d="M55.79 81.597a8.142 8.142 0 01-6.753-3.576c1.848.727 4.177 1.14 6.754 1.14 1.31 0 2.572-.121 3.785-.34h0a1.399 1.399 0 001.122-1.627 1.399 1.399 0 00-1.627-1.122l.037.197-.036-.197a18.32 18.32 0 01-3.281.285c-2.537 0-4.606-.464-6.034-1.083-.715-.31-1.262-.654-1.627-.992-.37-.344-.527-.655-.527-.897s.157-.553.527-.896c.365-.339.912-.684 1.627-.993 1.428-.619 3.497-1.083 6.034-1.083s4.606.464 6.034 1.083c.715.31 1.262.654 1.627.993.37.343.526.654.526.896 0 4.528-3.684 8.212-8.187 8.212zM70.813 31.8c-3.764 0-6.834 3.07-6.834 6.833v30.841c-1.985-1.142-4.876-1.84-8.187-1.84-3.1 0-5.83.604-7.795 1.62-1.957 1.012-3.196 2.46-3.196 4.155 0 6.07 4.92 10.991 10.99 10.991 6.072 0 10.992-4.92 10.992-10.99V38.632c0-2.22 1.809-4.03 4.03-4.03 2.22 0 4.03 1.81 4.03 4.03a1.39 1.39 0 001.401 1.402 1.39 1.39 0 001.402-1.402c0-3.763-3.07-6.833-6.833-6.833z" fill="#262D33" stroke="#262D33" stroke-width=".4"/></svg>