<svg fill="none" xmlns="http://www.w3.org/2000/svg" viewBox="0 0 119 119"><path d="M59.207 118.414c32.699 0 59.207-26.508 59.207-59.207C118.414 26.507 91.906 0 59.207 0 26.507 0 0 26.508 0 59.207s26.508 59.207 59.207 59.207z" fill="#fff"/><path d="M49.902 54.4a4.924 4.924 0 00-4.147-.98 4.924 4.924 0 00-3.333 2.665 4.924 4.924 0 00-4.153-.983 4.924 4.924 0 00-3.334 2.665 4.924 4.924 0 00-4.152-.984c-.178.04-.337.092-.482.148-.126-1.819.332-3.624 1.213-5.206h0l.002-.003c1.015-1.868 2.589-3.472 4.613-4.686 1.304 1.595 3.55 2.141 5.485 1.317 1.41-.593 2.375-1.764 2.774-3.18a12.093 12.093 0 016.182 2.269c1.483 1.1 2.617 2.506 3.317 4.193a3.6 3.6 0 00-.49.069c-1.603.36-2.85 1.317-3.495 2.695zm9.202 1.229a.301.301 0 00-.006-.092c-.372-1.657-1.43-2.953-3.048-3.581-.678-2.595-2.269-4.704-4.378-6.308h0l-.007-.005c-2.072-1.49-4.638-2.387-7.371-2.62-.06-.321-.173-.62-.275-.89l-.007-.017h0l-.004-.009a4.581 4.581 0 00-1.674-2.063l2.069-4.948a.3.3 0 00-.164-.394l-1.383-.563a.3.3 0 00-.391.166L40.453 39.3a4.74 4.74 0 00-2.55.325 4.772 4.772 0 00-2.78 5.558 14.159 14.159 0 00-5.551 5.531c-1.25 2.256-1.771 4.89-1.338 7.485-1.158 1.201-1.61 2.837-1.226 4.545a.3.3 0 00.034.086l9.561 16.31a.3.3 0 00.325.142l20.275-4.554a.3.3 0 00.233-.266l1.668-18.833zm-7.742 1.844a.3.3 0 00.227-.359c-.337-1.498.605-2.996 2.163-3.346 1.438-.323 2.906.555 3.3 1.968l-1.52 17.169-17.717 3.979-8.715-14.87c-.25-1.446.703-2.867 2.141-3.19a2.793 2.793 0 013.334 2.111.3.3 0 00.358.227l1.456-.327a.3.3 0 00.227-.358 2.793 2.793 0 012.111-3.334 2.793 2.793 0 013.334 2.11.3.3 0 00.359.228l1.455-.327a.3.3 0 00.227-.359 2.793 2.793 0 012.112-3.334 2.792 2.792 0 013.334 2.112.3.3 0 00.358.227l1.456-.327zm-14.13-12.476c-.55-1.353.084-2.916 1.426-3.461 1.344-.547 2.864.087 3.464 1.431.547 1.352-.088 2.913-1.43 3.458-1.352.55-2.915-.085-3.46-1.428zm48.438 18.05a4.924 4.924 0 00-3.553-2.352 4.924 4.924 0 00-4.05 1.349 4.924 4.924 0 00-3.556-2.358 4.924 4.924 0 00-4.05 1.349 4.924 4.924 0 00-3.556-2.358 3.453 3.453 0 00-.504-.029c.511-1.75 1.565-3.285 2.938-4.465h0l.003-.002c1.598-1.402 3.63-2.363 5.948-2.803.673 1.947 2.592 3.236 4.692 3.13 1.528-.068 2.838-.833 3.702-2.024A12.094 12.094 0 0188.7 56.75c1.011 1.546 1.59 3.256 1.664 5.08a3.599 3.599 0 00-.484-.103c-1.629-.217-3.13.25-4.21 1.321zm8.21 4.334a.301.301 0 00.026-.089c.224-1.683-.32-3.265-1.622-4.413.26-2.67-.504-5.199-1.93-7.433h0l-.004-.007c-1.43-2.114-3.527-3.843-6.011-5.006.055-.321.052-.64.049-.93v-.018h0v-.01a4.581 4.581 0 00-.859-2.515l3.651-3.928a.3.3 0 00-.018-.425L86.06 41.6a.3.3 0 00-.425.02l-3.614 3.993a4.738 4.738 0 00-2.504-.576 4.772 4.772 0 00-4.531 4.254 14.158 14.158 0 00-7.12 3.272c-1.952 1.686-3.352 3.978-3.842 6.562-1.502.727-2.49 2.106-2.721 3.84a.305.305 0 00.002.093l3.336 18.61a.3.3 0 00.255.245l20.6 2.733a.3.3 0 00.31-.169l8.074-17.096zm-7.902-.946a.3.3 0 00.337-.258c.201-1.522 1.603-2.602 3.186-2.392 1.46.194 2.535 1.525 2.416 2.987l-7.36 15.586-18-2.389-3.04-16.965c.267-1.443 1.651-2.448 3.113-2.254a2.793 2.793 0 012.399 3.134.3.3 0 00.258.336l1.478.197a.3.3 0 00.337-.258 2.793 2.793 0 013.134-2.4 2.793 2.793 0 012.399 3.134.3.3 0 00.258.337l1.479.196a.3.3 0 00.336-.258 2.793 2.793 0 013.134-2.399 2.793 2.793 0 012.399 3.133.3.3 0 00.258.337l1.479.196zm-8.95-16.59c-.048-1.46 1.088-2.707 2.536-2.755 1.45-.048 2.657 1.072 2.756 2.54.046 1.458-1.09 2.703-2.536 2.751-1.46.049-2.707-1.087-2.755-2.535z" fill="#262D33" stroke="#262D33" stroke-width=".6" stroke-linejoin="round"/></svg>