<svg width="120" height="120" viewBox="0 0 120 120" fill="none" xmlns="http://www.w3.org/2000/svg"><path d="M60.133 119.246c32.699 0 59.206-26.508 59.206-59.207S92.832.833 60.133.833C27.433.833.926 27.34.926 60.039c0 32.7 26.508 59.207 59.207 59.207z" fill="#fff"/><mask id="a" maskUnits="userSpaceOnUse" x="37" y="34" width="47" height="51" fill="#000"><path fill="#fff" d="M37 34h47v51H37z"/><path fill-rule="evenodd" clip-rule="evenodd" d="M44.822 59.355c-1.126 3.19-2.251 5.065-3.189 6.628-.375.625-.75 1.25-1 1.813-.626 1.25-.876 2.439-.876 3.501.063 1.564.813 2.877 2.251 3.627.813.438 1.876.625 3.127.563 1.75-.063 4.126-.75 6.69-1.5 2.25-.626 4.689-1.376 7.127-1.752 2.251-.375 4.065-.437 5.815-.5 1.563-.062 3.064-.125 4.69-.375 1.75-.313 3.313-1 4.689-2a13.388 13.388 0 004.377-5.628c1.563-3.689 1.5-8.003-.938-11.317-1.876-2.5-4.94-5.252-8.191-7.628-4.627-3.439-9.504-6.252-11.817-7.253-2.376-.938-5.315-1.313-7.628 0-3.189 1.814-3.064 5.252-3.189 8.441-.125 4.44-.25 8.691-1.938 13.38zm16.194-3l12.567 3.626-.5 1.688-12.505-3.564L47.01 70.172l-1.188-1.313 13.506-11.942-6.44-12.693 1.563-.812 6.565 12.942zM40.32 75.986c.25.187.563.375.876.563 1.062.562 2.438.812 4.001.75 2-.063 4.44-.75 7.065-1.563 2.251-.625 4.627-1.313 6.94-1.688a50.427 50.427 0 015.628-.5c1.625-.063 3.189-.126 4.877-.438 2-.313 3.876-1.188 5.44-2.376a15.3 15.3 0 004.939-6.315c.312-.75.625-1.563.813-2.439.124.626.187 1.188.25 1.751.312 3.689-.313 6.69-1.564 9.004-2.5 4.564-6.19 5.377-10.941 5.752-2.939.25-6.128.5-9.692 1.063-2.438.375-4.877 1.063-7.127 1.75-1.25.376-3.314 1-4.627 1-1.876.063-3.377-.562-4.502-1.75-1.125-1-1.876-2.626-2.376-4.564zM82.9 63.67c.374 4.064-.313 7.377-1.814 10.004-2.814 5.064-7.065 6.252-12.38 6.69-2.938.25-6.127.5-9.566 1.063-2.25.375-4.69 1.062-6.94 1.688-1.626.5-3.314 1.063-5.065 1.063-2.438.062-4.376-.75-5.814-2.251-2.439-2.626-3.19-6.753-3.314-10.192a9.737 9.737 0 011-4.69c.313-.624.688-1.25 1.063-1.937.875-1.501 1.938-3.314 3.064-6.315 1.563-4.44 1.688-8.566 1.813-12.818.125-3.939.188-7.69 4.064-9.879 2.814-1.625 6.252-1.25 9.191-.125 2.439 1 7.503 3.94 12.192 7.44 3.377 2.502 6.566 5.315 8.566 8.004 2.251 2.938 3.627 8.69 3.94 12.255z"/></mask><path fill-rule="evenodd" clip-rule="evenodd" d="M44.822 59.355c-1.126 3.19-2.251 5.065-3.189 6.628-.375.625-.75 1.25-1 1.813-.626 1.25-.876 2.439-.876 3.501.063 1.564.813 2.877 2.251 3.627.813.438 1.876.625 3.127.563 1.75-.063 4.126-.75 6.69-1.5 2.25-.626 4.689-1.376 7.127-1.752 2.251-.375 4.065-.437 5.815-.5 1.563-.062 3.064-.125 4.69-.375 1.75-.313 3.313-1 4.689-2a13.388 13.388 0 004.377-5.628c1.563-3.689 1.5-8.003-.938-11.317-1.876-2.5-4.94-5.252-8.191-7.628-4.627-3.439-9.504-6.252-11.817-7.253-2.376-.938-5.315-1.313-7.628 0-3.189 1.814-3.064 5.252-3.189 8.441-.125 4.44-.25 8.691-1.938 13.38zm16.194-3l12.567 3.626-.5 1.688-12.505-3.564L47.01 70.172l-1.188-1.313 13.506-11.942-6.44-12.693 1.563-.812 6.565 12.942zM40.32 75.986c.25.187.563.375.876.563 1.062.562 2.438.812 4.001.75 2-.063 4.44-.75 7.065-1.563 2.251-.625 4.627-1.313 6.94-1.688a50.427 50.427 0 015.628-.5c1.625-.063 3.189-.126 4.877-.438 2-.313 3.876-1.188 5.44-2.376a15.3 15.3 0 004.939-6.315c.312-.75.625-1.563.813-2.439.124.626.187 1.188.25 1.751.312 3.689-.313 6.69-1.564 9.004-2.5 4.564-6.19 5.377-10.941 5.752-2.939.25-6.128.5-9.692 1.063-2.438.375-4.877 1.063-7.127 1.75-1.25.376-3.314 1-4.627 1-1.876.063-3.377-.562-4.502-1.75-1.125-1-1.876-2.626-2.376-4.564zM82.9 63.67c.374 4.064-.313 7.377-1.814 10.004-2.814 5.064-7.065 6.252-12.38 6.69-2.938.25-6.127.5-9.566 1.063-2.25.375-4.69 1.062-6.94 1.688-1.626.5-3.314 1.063-5.065 1.063-2.438.062-4.376-.75-5.814-2.251-2.439-2.626-3.19-6.753-3.314-10.192a9.737 9.737 0 011-4.69c.313-.624.688-1.25 1.063-1.937.875-1.501 1.938-3.314 3.064-6.315 1.563-4.44 1.688-8.566 1.813-12.818.125-3.939.188-7.69 4.064-9.879 2.814-1.625 6.252-1.25 9.191-.125 2.439 1 7.503 3.94 12.192 7.44 3.377 2.502 6.566 5.315 8.566 8.004 2.251 2.938 3.627 8.69 3.94 12.255z" fill="#262D33"/><path clip-rule="evenodd" d="M44.822 59.355c-1.126 3.19-2.251 5.065-3.189 6.628-.375.625-.75 1.25-1 1.813-.626 1.25-.876 2.439-.876 3.501.063 1.564.813 2.877 2.251 3.627.813.438 1.876.625 3.127.563 1.75-.063 4.126-.75 6.69-1.5 2.25-.626 4.689-1.376 7.127-1.752 2.251-.375 4.065-.437 5.815-.5 1.563-.062 3.064-.125 4.69-.375 1.75-.313 3.313-1 4.689-2a13.388 13.388 0 004.377-5.628c1.563-3.689 1.5-8.003-.938-11.317-1.876-2.5-4.94-5.252-8.191-7.628-4.627-3.439-9.504-6.252-11.817-7.253-2.376-.938-5.315-1.313-7.628 0-3.189 1.814-3.064 5.252-3.189 8.441-.125 4.44-.25 8.691-1.938 13.38zm16.194-3l12.567 3.626-.5 1.688-12.505-3.564L47.01 70.172l-1.188-1.313 13.506-11.942-6.44-12.693 1.563-.812 6.565 12.942zM40.32 75.986c.25.187.563.375.876.563 1.062.562 2.438.812 4.001.75 2-.063 4.44-.75 7.065-1.563 2.251-.625 4.627-1.313 6.94-1.688a50.427 50.427 0 015.628-.5c1.625-.063 3.189-.126 4.877-.438 2-.313 3.876-1.188 5.44-2.376a15.3 15.3 0 004.939-6.315c.312-.75.625-1.563.813-2.439.124.626.187 1.188.25 1.751.312 3.689-.313 6.69-1.564 9.004-2.5 4.564-6.19 5.377-10.941 5.752-2.939.25-6.128.5-9.692 1.063-2.438.375-4.877 1.063-7.127 1.75-1.25.376-3.314 1-4.627 1-1.876.063-3.377-.562-4.502-1.75-1.125-1-1.876-2.626-2.376-4.564zM82.9 63.67c.374 4.064-.313 7.377-1.814 10.004-2.814 5.064-7.065 6.252-12.38 6.69-2.938.25-6.127.5-9.566 1.063-2.25.375-4.69 1.062-6.94 1.688-1.626.5-3.314 1.063-5.065 1.063-2.438.062-4.376-.75-5.814-2.251-2.439-2.626-3.19-6.753-3.314-10.192a9.737 9.737 0 011-4.69c.313-.624.688-1.25 1.063-1.937.875-1.501 1.938-3.314 3.064-6.315 1.563-4.44 1.688-8.566 1.813-12.818.125-3.939.188-7.69 4.064-9.879 2.814-1.625 6.252-1.25 9.191-.125 2.439 1 7.503 3.94 12.192 7.44 3.377 2.502 6.566 5.315 8.566 8.004 2.251 2.938 3.627 8.69 3.94 12.255z" stroke="#262D33" stroke-width="1.2" mask="url(#a)"/></svg>