<svg fill="none" xmlns="http://www.w3.org/2000/svg" viewBox="0 0 456 700"><path opacity=".6" d="M0 2.161C0 .968.968 0 2.161 0H451.84c1.192 0 2.16.968 2.16 2.16v695.68a2.162 2.162 0 01-2.161 2.161H2.161a2.161 2.161 0 01-2.16-2.161L0 2.161z" fill="#292929"/><path fill-rule="evenodd" clip-rule="evenodd" d="M382.545 756.801C269.547 756.801 178 662.946 178 546.976c0-27.15 6.821-51.243 16.425-73.358 26.207-61.221 60.492-134.759 34.554-179.079 32.042 15.642 55.018 51.063 44.697 88.011 97.022-74.077-50.8-123.431 114.433-258.55C328.335 297.595 587 341.017 587 546.976c0 115.97-91.547 209.825-204.455 209.825z" fill="#fff" opacity=".04"/></svg>