<svg width="10" height="13" viewBox="0 0 10 13" fill="none" xmlns="http://www.w3.org/2000/svg"><path d="M8.753 5.797c-.147-.192-.327-.358-.493-.525-.43-.384-.916-.66-1.326-1.063C5.98 3.274 5.768 1.73 6.377.545c-.609.148-1.14.48-1.595.846-1.659 1.332-2.312 3.683-1.53 5.7a.55.55 0 01.05.211c0 .141-.096.27-.224.32-.147.065-.3.026-.422-.076a.372.372 0 01-.09-.109c-.724-.916-.839-2.229-.352-3.28C1.144 5.03.56 6.503.644 7.893c.039.32.077.64.186.96.09.385.263.769.455 1.108.692 1.108 1.89 1.903 3.177 2.063 1.37.173 2.837-.077 3.888-1.025 1.172-1.063 1.582-2.767.98-4.227l-.084-.167c-.134-.294-.493-.807-.493-.807zM6.729 9.832c-.18.154-.474.32-.704.385-.718.256-1.435-.103-1.858-.526A1.777 1.777 0 005.52 8.378c.108-.512-.096-.935-.18-1.428-.077-.474-.064-.877.11-1.32.12.244.249.488.403.68.493.64 1.268.922 1.434 1.793.026.09.039.18.039.275.019.526-.212 1.102-.596 1.454z" fill="#fff"/></svg>