<svg width="14" height="18" viewBox="0 0 14 18" fill="none" xmlns="http://www.w3.org/2000/svg"><g clip-path="url(#clip0)"><path d="M12.73 7.546c-.22-.286-.486-.534-.734-.782-.64-.573-1.365-.983-1.976-1.584-1.422-1.394-1.737-3.694-.83-5.46-.907.22-1.7.717-2.377 1.26-2.471 1.985-3.445 5.488-2.28 8.494.038.096.076.191.076.315 0 .21-.143.4-.334.477-.22.096-.449.038-.63-.114a.554.554 0 01-.134-.163c-1.078-1.364-1.25-3.32-.524-4.886C1.393 6.401.524 8.596.648 10.667c.058.477.115.954.277 1.432.134.572.391 1.145.678 1.65 1.03 1.652 2.815 2.835 4.733 3.074 2.043.257 4.228-.115 5.793-1.527 1.747-1.585 2.357-4.123 1.46-6.3l-.124-.247c-.2-.44-.735-1.203-.735-1.203zM9.715 13.56a3.132 3.132 0 01-1.05.572c-1.069.382-2.138-.152-2.768-.782 1.136-.268 1.814-1.107 2.014-1.957.162-.763-.143-1.393-.267-2.128-.115-.706-.096-1.307.162-1.966.181.363.372.726.601 1.012.735.954 1.89 1.374 2.138 2.672.038.134.057.267.057.41.029.783-.315 1.642-.887 2.167z" fill="#FF4F52"/></g><defs><clipPath id="clip0"><path fill="#fff" d="M0 0h14v18H0z"/></clipPath></defs></svg>