<svg fill="none" xmlns="http://www.w3.org/2000/svg" viewBox="0 0 18 18"><g clip-path="url(#clip0)"><path fill-rule="evenodd" clip-rule="evenodd" d="M13.266 1.46l1.832 3.703c.478 1.124.16 1.496-.142 1.999l-5.593 9.302a1.73 1.73 0 01-2.365.59L.832 13.349a1.726 1.726 0 01-.587-2.362l5.578-9.284c.266-.394.524-1.045 1.71-1.093l4.074-.155C12.575.418 12.8.54 13.266 1.46z" fill="#FF4F52"/><path fill-rule="evenodd" clip-rule="evenodd" d="M7.876 12.167c-.29-.175-.3-.584-.094-.926l.01-.015c.199-.334.535-.53.838-.346.29.176.3.585.094.927l-.01.015c-.193.327-.532.53-.838.345zm-1.56-4.475c-.29-.176-.3-.585-.093-.927l.009-.015c.2-.333.536-.53.838-.345.291.175.3.584.094.926l-.009.015c-.197.327-.533.527-.839.346zm1.148 5.13c.742.444 1.596.157 2.023-.555l.009-.015c.427-.712.279-1.584-.454-2.023-.742-.445-1.59-.166-2.023.554l-.01.016c-.426.708-.278 1.58.455 2.022zm-3.322-2.484a.398.398 0 00.136.545c.115.07.267.082.391.028l5.917-2.493a.403.403 0 00.218-.184.398.398 0 00-.136-.545.434.434 0 00-.39-.028L4.36 10.153a.485.485 0 00-.218.185zm1.763-1.995c.741.445 1.595.157 2.022-.555l.01-.015c.426-.711.278-1.583-.455-2.022-.742-.446-1.59-.167-2.023.554l-.009.015c-.43.711-.278 1.584.455 2.023z" fill="#000"/><path fill-rule="evenodd" clip-rule="evenodd" d="M11.621 2.38a.81.81 0 11-.831 1.39.81.81 0 01.831-1.39z" fill="#262D33"/><path d="M17.16.787c.124.452-.173.936-.76 1.36-.491.357-1.209.69-2.03.92-.82.23-1.607.312-2.213.261-.59-.048-1.036-.233-1.248-.545-.157-.155.076-.833.648-.34.106.086.343.143.657.17.524.043 1.22-.033 1.963-.239.742-.206 1.375-.5 1.802-.811.333-.243.52-.455.484-.585-.036-.13-.309-.215-.718-.251-.523-.043-1.22.033-1.962.239-.212.06-.418.127-.612.197l-.327-.645a8.26 8.26 0 01.745-.245c.827-.225 1.611-.31 2.217-.258.72.06 1.226.321 1.354.772z" fill="#000"/><path d="M17.28 1.272c.125.451-.172.936-.76 1.36-.49.357-1.208.69-2.028.92-.821.23-1.608.312-2.214.26-.59-.048-1.036-.233-1.248-.545-.157-.154.076-.832.649-.339.105.085.342.143.657.17.524.042 1.22-.033 1.962-.24.742-.205 1.375-.499 1.802-.811.333-.242.52-.454.484-.584-.036-.13-.309-.215-.717-.252-.524-.042-1.22.034-1.963.24-.212.06-.418.127-.611.196l-.327-.645a8.26 8.26 0 01.744-.245c.821-.23 1.608-.312 2.214-.26.724.063 1.23.327 1.357.775z" fill="#FF4F52"/></g><defs><clipPath id="clip0"><path fill="#fff" d="M0 0h17.309v17.3H0z"/></clipPath></defs></svg>