<svg width="16" height="13" viewBox="0 0 16 13" fill="none" xmlns="http://www.w3.org/2000/svg"><path fill-rule="evenodd" clip-rule="evenodd" d="M2.215 4.783c1.124.378 2.291.592 3.458.708 2.563.262 5.26.165 7.755-.601.88-.272 1.852-.621 2.546-1.33v1.475c-.136.95-1.218 1.397-1.903 1.669-1.497.591-3.104.824-4.677.921a21.13 21.13 0 01-5.48-.34C2.773 7.054 1.428 6.744.49 5.899c-.263-.232-.466-.533-.482-.911-.017-.476 0-.951 0-1.417.608.621 1.437.96 2.207 1.213z" fill="#FF4F52"/><path fill-rule="evenodd" clip-rule="evenodd" d="M2.333 7.49c1.184.388 2.41.591 3.636.698 2.41.214 4.905.097 7.256-.572.947-.272 1.996-.621 2.749-1.368v1.455c-.136.95-1.218 1.397-1.903 1.669-1.497.591-3.104.824-4.677.921a21.2 21.2 0 01-5.48-.34C2.773 9.722 1.428 9.41.49 8.567c-.263-.232-.466-.533-.482-.911-.017-.466 0-.942 0-1.407.642.64 1.522.98 2.325 1.242zm13.119-4.318c-.618.524-1.353.864-2.09 1.116-1.462.495-3.001.67-4.515.718-1.767.058-3.56-.02-5.294-.446C2.64 4.337 1.71 4.016.898 3.454c-.28-.194-.643-.447-.82-.767a.675.675 0 01-.068-.32c.008-.35.397-.611.626-.766.524-.35 1.116-.573 1.69-.767C4.147.243 6.066 0 7.943 0c1.886 0 3.797.223 5.615.805.6.194 1.21.417 1.75.767.246.155.627.407.669.766.042.378-.305.65-.524.834z" fill="#FF4F52"/><path fill-rule="evenodd" clip-rule="evenodd" d="M2.333 10.148c1.184.388 2.41.591 3.636.698 2.41.214 4.905.097 7.256-.572.947-.272 1.996-.621 2.749-1.368 0 .475.05 1-.009 1.455-.034.941-1.31 1.436-1.928 1.678-1.497.592-3.112.815-4.693.912-1.81.107-3.645.02-5.43-.349-1.141-.233-2.511-.543-3.441-1.397-.254-.233-.457-.524-.465-.902-.017-.466 0-.941 0-1.407.642.65 1.522.99 2.325 1.252z" fill="#FF4F52"/></svg>