<svg width="23" height="23" viewBox="0 0 23 23" fill="none" xmlns="http://www.w3.org/2000/svg"><path d="M19.838.265H3.945C2.15.265.783 1.632.783 3.426V19.32c0 1.794 1.367 3.161 3.162 3.161h15.893c1.795 0 3.162-1.367 3.162-3.161V3.426C23 1.632 21.633.265 19.838.265zm-7.947 17.773c3.675 0 6.665-2.905 6.665-6.409 0-.598-.085-1.281-.256-1.794h1.88v9.057a.856.856 0 01-.854.855H4.457a.856.856 0 01-.854-.855V9.75h1.965a6.505 6.505 0 00-.256 1.795c-.085 3.589 2.905 6.494 6.58 6.494zm0-2.564c-2.392 0-4.272-1.88-4.272-4.187C7.62 8.98 9.5 7.1 11.892 7.1c2.392 0 4.272 1.88 4.272 4.188 0 2.392-1.88 4.186-4.273 4.186zm8.204-9.143c0 .513-.428.94-.94.94h-2.393a.948.948 0 01-.94-.94V4.024c0-.512.427-.94.94-.94h2.393a.95.95 0 01.94.94v2.307z" fill="#fff"/></svg>