<svg width="52" height="44" viewBox="0 0 52 44" fill="none" xmlns="http://www.w3.org/2000/svg"><path fill-rule="evenodd" clip-rule="evenodd" d="M51.282 14.691a1.606 1.606 0 00-2.198-.502l-15.988 9.886v-5.58c0-1.89-1.33-3.584-3.766-4.818l13.645-9.9c.71-.515.864-1.503.343-2.206a1.607 1.607 0 00-2.23-.34L25.71 12.39c-1.848-.445-3.916-.682-6.056-.682-3.383 0-6.588.59-9.025 1.662-2.849 1.252-4.417 3.073-4.417 5.126v8.04l-4.614 3.348a1.568 1.568 0 00-.343 2.206 1.605 1.605 0 002.231.34l2.726-1.978v.705c0 2.053 1.568 3.873 4.417 5.126.533.235 1.104.444 1.705.631l-5.373 3.323a1.569 1.569 0 00-.507 2.175c.303.48.823.742 1.355.742a1.6 1.6 0 00.844-.24l8.253-5.103a28.19 28.19 0 002.748.134c3.383 0 6.588-.59 9.025-1.662 2.849-1.253 4.417-3.073 4.417-5.126v-3.358l17.679-10.931a1.57 1.57 0 00.507-2.176zm-31.628.173c6.162 0 10.25 2.186 10.25 3.631 0 1.445-4.088 3.63-10.25 3.63-6.163 0-10.252-2.185-10.252-3.63 0-1.446 4.089-3.63 10.252-3.63zM9.402 23.002v8.154c0 1.151 2.598 2.772 6.771 3.383l13.732-8.491v-3.046c-.378.219-.787.426-1.227.619-2.437 1.072-5.642 1.662-9.024 1.662-3.383 0-6.588-.59-9.025-1.662a12 12 0 01-1.227-.62zm20.504 8.154c0 1.255-3.087 3.068-7.937 3.523l7.936-4.908v1.385zM19.654 20.798c-.994 0-1.945-.088-2.678-.25-1.83-.402-2.215-1.338-2.215-2.053 0-.715.384-1.65 2.215-2.054.733-.16 1.684-.25 2.678-.25s1.945.09 2.678.25c1.83.403 2.215 1.34 2.215 2.054 0 .715-.385 1.651-2.215 2.053-.733.162-1.684.25-2.678.25z" fill="#262D33"/></svg>