<svg width="51" height="36" viewBox="0 0 51 36" fill="none" xmlns="http://www.w3.org/2000/svg"><path fill-rule="evenodd" clip-rule="evenodd" d="M47.147 13.16c1.764.703 3 2.313 3 4.183 0 1.101-.428 2.112-1.14 2.9.712.79 1.14 1.8 1.14 2.9 0 1.707-1.03 3.197-2.55 3.979v2.936a5.836 5.836 0 01-5.829 5.83H8.835a5.836 5.836 0 01-5.828-5.83v-2.936c-1.52-.782-2.55-2.271-2.55-3.978 0-1.1.427-2.112 1.14-2.9-.713-.79-1.14-1.8-1.14-2.9 0-1.87 1.236-3.481 3-4.184a1.656 1.656 0 01.044-1.853C8.445 4.347 16.596.19 25.3.19c8.707 0 16.856 4.156 21.801 11.117.404.568.398 1.301.045 1.854zm-1.978 11.226c.884 0 1.66-.58 1.66-1.242s-.776-1.242-1.66-1.242H27.452l-2.485 2.484h20.202zm-27.99 3.09L11.6 21.903h11.156l-5.578 5.575zM3.775 23.145c0 .661.776 1.242 1.66 1.242H9.39l-2.485-2.484h-1.47c-.884 0-1.66.58-1.66 1.242zm1.66-4.559c-.884 0-1.66-.58-1.66-1.242 0-.661.776-1.241 1.66-1.241h39.733c.884 0 1.66.58 1.66 1.241 0 .662-.776 1.242-1.66 1.242H5.436zm38.635-5.8c-4.35-5.822-11.323-9.28-18.77-9.28-7.444 0-14.417 3.459-18.768 9.277H44.07zM41.769 32.57H8.836a2.514 2.514 0 01-2.509-2.513v-2.355h6.384l3.294 3.292a1.659 1.659 0 002.348 0l3.294-3.292h22.631v2.355a2.514 2.514 0 01-2.509 2.513zM26.183 10.176a1.254 1.254 0 01-.881.365c-.327 0-.648-.133-.88-.365a1.252 1.252 0 01-.365-.879c0-.328.133-.649.365-.88.232-.231.553-.364.88-.364.328 0 .649.133.881.363.23.232.364.553.364.881 0 .327-.133.647-.364.88zm-4.537-3.423a1.246 1.246 0 00.88-2.125 1.25 1.25 0 00-1.76 0 1.252 1.252 0 00-.365.88 1.251 1.251 0 001.245 1.245zm8.193-.365a1.254 1.254 0 01-.881.365c-.327 0-.647-.133-.88-.365a1.25 1.25 0 01-.365-.88c0-.328.133-.648.365-.88.233-.23.553-.363.88-.363.329 0 .649.132.881.363.231.232.366.552.366.88 0 .327-.135.647-.366.88zM14.331 10.54c.329 0 .649-.133.881-.365a1.26 1.26 0 00.364-.879c0-.328-.133-.649-.364-.88a1.259 1.259 0 00-.881-.364c-.327 0-.647.133-.88.363a1.253 1.253 0 00-.365.881c0 .327.133.647.365.88.233.231.553.364.88.364zm22.823-.365a1.254 1.254 0 01-.882.365 1.248 1.248 0 01-1.245-1.244c0-.328.133-.649.365-.88.233-.231.553-.364.88-.364.327 0 .649.133.882.363.23.232.363.553.363.881 0 .327-.133.647-.364.88z" fill="#262D33"/></svg>