<svg width="51" height="30" viewBox="0 0 51 30" fill="none" xmlns="http://www.w3.org/2000/svg"><path fill-rule="evenodd" clip-rule="evenodd" d="M33.18 26.372h14.66c.924 0 1.673.766 1.673 1.71 0 .945-.75 1.712-1.673 1.712H3.67c-.924 0-1.673-.767-1.673-1.712 0-.944.749-1.71 1.673-1.71h14.659C8.245 23.132.909 13.481.909 2.11.91 1.165 1.66.4 2.582.4h46.346c.923 0 1.673.765 1.673 1.71 0 11.372-7.336 21.023-17.42 24.262zM25.756 17.9c7.83 0 14.268-6.216 14.847-14.08H10.909c.58 7.864 7.017 14.08 14.846 14.08zM4.32 3.821h3.236c.585 9.752 8.523 17.502 18.199 17.502 9.675 0 17.613-7.75 18.2-17.501h3.235c-.857 11.333-10.143 20.287-21.435 20.287-11.292 0-20.579-8.954-21.435-20.287zM19.146 7.49c0 .945-.75 1.711-1.673 1.711-.924 0-1.673-.766-1.673-1.711V6.323c0-.945.75-1.711 1.673-1.711.924 0 1.673.766 1.673 1.711V7.49zm8.282 0c0 .945-.75 1.711-1.673 1.711-.924 0-1.674-.766-1.674-1.711V6.323c0-.945.75-1.711 1.674-1.711.924 0 1.673.766 1.673 1.711V7.49zm6.61 1.711c.923 0 1.672-.766 1.672-1.711V6.323c0-.945-.749-1.711-1.673-1.711s-1.673.766-1.673 1.711V7.49c0 .945.75 1.711 1.673 1.711zm-2.469 3.108c0 .945-.75 1.71-1.673 1.71-.924 0-1.673-.765-1.673-1.71v-1.167c0-.945.749-1.711 1.673-1.711s1.673.766 1.673 1.711v1.167zm-9.955 1.71c.924 0 1.673-.765 1.673-1.71v-1.167c0-.945-.749-1.711-1.673-1.711s-1.673.766-1.673 1.711v1.167c0 .945.75 1.71 1.673 1.71z" fill="#262D33"/></svg>