<svg width="40" height="40" viewBox="0 0 40 40" fill="none" xmlns="http://www.w3.org/2000/svg"><path fill-rule="evenodd" clip-rule="evenodd" d="M11.491 18.636c-.318-.86-.548-1.736-.479-2.668.044-.574.26-1.064.68-1.466.457-.432.889-.885 1.338-1.324.585-.577 1.32-.573 1.905 0 .361.355.72.717 1.078 1.079.347.347.698.694 1.045 1.045.61.618.614 1.338.004 1.952-.439.439-.874.881-1.32 1.312-.117.114-.128.209-.065.351.292.702.716 1.327 1.191 1.912.958 1.177 2.04 2.222 3.33 3.03.278.172.581.3.87.457.15.08.249.055.37-.07.434-.449.88-.891 1.326-1.333.585-.578 1.316-.582 1.901 0 .716.709 1.43 1.421 2.138 2.138.596.6.592 1.334-.007 1.937-.406.41-.833.797-1.214 1.225-.555.621-1.257.826-2.054.782-1.162-.062-2.233-.45-3.268-.95a17.781 17.781 0 01-5.896-4.613c-1.213-1.448-2.215-3.02-2.873-4.796zm17.51 1.308C29 15.014 24.986 11 20.055 11v1.703c3.991 0 7.24 3.25 7.24 7.241H29zm-4.899 0h1.703c0-3.169-2.58-5.75-5.75-5.75v1.704a4.02 4.02 0 012.863 1.184 4.02 4.02 0 011.184 2.862z" fill="#fff"/><rect x=".5" y=".5" width="39" height="39" rx="19.5" stroke="#fff"/></svg>