<svg fill="none" xmlns="http://www.w3.org/2000/svg" viewBox="0 0 29 17"><path d="M27.881 15.007c0-.108-.108-.108-.108-.217-.434-.868-1.41-1.953-2.712-3.146-.651-.543-.977-.977-1.194-1.194-.326-.434-.326-.76-.217-1.193.109-.326.543-.868 1.302-1.845.434-.542.651-.868.976-1.193 1.628-2.17 2.387-3.58 2.17-4.232l-.108-.108c-.108-.109-.217-.217-.434-.217-.217-.109-.543-.109-.868 0h-4.883l-.108.108c-.108.109-.108.109-.108.217-.434 1.194-.977 2.17-1.52 3.255-.325.543-.65 1.085-.976 1.52-.325.433-.543.759-.76.976-.216.217-.433.325-.542.542-.108.109-.325.217-.325.109-.109 0-.217 0-.217-.109l-.326-.325c-.108-.109-.108-.326-.217-.543V1.988c0-.11-.108-.326-.108-.435l-.326-.325c-.108-.109-.325-.109-.434-.217a9.732 9.732 0 00-1.953-.217c-1.736 0-2.93.108-3.363.325-.217.109-.434.217-.543.434-.217.217-.217.326-.108.326.542.108.976.325 1.193.65l.109.218c.108.108.108.325.217.65.108.326.108.652.108 1.086v1.736c0 .542-.108.868-.108 1.193 0 .326-.109.543-.217.651-.109.217-.109.326-.217.326 0 0 0 .108-.109.108-.108 0-.217.109-.434.109-.108 0-.325-.109-.434-.217a1.307 1.307 0 01-.542-.543c-.217-.217-.434-.542-.651-.976-.217-.434-.543-.868-.76-1.52l-.217-.433a15.351 15.351 0 01-.542-1.194c-.217-.542-.434-.976-.651-1.519a1.498 1.498 0 00-.326-.434h-.108s-.109-.108-.217-.108c-.109 0-.217-.109-.326-.109H1.733c-.434 0-.65.109-.76.217l-.108.109v.217c0 .108 0 .217.109.434.542 1.302 1.193 2.604 1.844 3.906.651 1.193 1.302 2.278 1.736 3.038.543.76.977 1.519 1.52 2.17.542.65.867 1.085.976 1.302l.434.434.325.325c.217.217.543.543.977.868.434.326.976.651 1.519.977.542.325 1.193.542 1.844.76.76.216 1.41.325 2.062.216h1.627c.326 0 .543-.108.76-.325l.108-.109c0-.108.109-.108.109-.217v-.434c0-.434 0-.76.108-1.085.109-.325.109-.542.217-.76.109-.216.217-.325.326-.433l.217-.217h.108c.217-.109.543 0 .76.217.325.217.65.542.868.868.216.325.542.65.976 1.085.434.434.76.76.977.868l.325.217c.217.108.434.217.76.325.325.109.542.109.759.109l3.689-.109c.325 0 .651-.108.868-.217.217-.108.325-.217.325-.434v-.434c-.217-.217-.216-.325-.216-.434z" fill="#fff"/></svg>