<svg fill="none" xmlns="http://www.w3.org/2000/svg" viewBox="0 0 16 14"><path d="M13.361 9.49h-8.85l-.24-1.25h9.13a1.24 1.24 0 001.22-1l.84-4a1.25 1.25 0 00-1.22-1.51H3.011L2.791.49H.511v1.25h1.25l1.5 7.84a2 2 0 00-1.54 1.93 2.09 2.09 0 002.16 2 2.08 2.08 0 002.13-2 2 2 0 00-.16-.77h5.49a2.002 2.002 0 00-.16.77 2.09 2.09 0 002.16 2 2 2 0 100-4l.02-.02zm.88-6.48l-.84 4h-9.39l-.74-4h10.97zm-10.36 9.27a.85.85 0 01-.87-.77.85.85 0 01.91-.77.84.84 0 01.9.77.84.84 0 01-.94.77zm9.48 0a.85.85 0 01-.91-.77.92.92 0 011.81 0 .85.85 0 01-.9.77z" fill="#fff"/></svg>