<svg width="17" height="18" viewBox="0 0 17 18" fill="none" xmlns="http://www.w3.org/2000/svg"><g opacity=".8" stroke="#FF4F52" stroke-width=".994" stroke-linecap="round" stroke-linejoin="round"><path d="M6.628 10.523c-2.452.323-4.22 1.223-4.22 2.286 0 1.334 2.78 2.415 6.21 2.415s6.211-1.08 6.211-2.415c0-1.063-1.768-1.963-4.22-2.286"/><path clip-rule="evenodd" d="M12.759 6.139c0-2.223-1.854-4.025-4.14-4.025-2.287 0-4.141 1.802-4.141 4.025 0 3.019 4.14 6.326 4.14 6.326s4.14-3.307 4.14-6.326z"/><path d="M9.594 5.278A1.38 1.38 0 117.643 7.23a1.38 1.38 0 011.951-1.952z"/></g></svg>