<svg fill="none" xmlns="http://www.w3.org/2000/svg" viewBox="0 0 33 32"><g clip-path="url(#clip0)"><path d="M10.483 20.53a3.044 3.044 0 01-.382 1.12c-.436-1.814-1.808-3.321-3.416-4.105l-2.813-1.37 1.582 2.698c.628 1.07.59 2.627.05 4.601-.472 1.731-1.266 3.573-2.038 5.362l-.28.653c-.652 1.497-1.132 3.17-1.132 5.073 0 7.928 6.275 14.383 14.067 14.383 7.787 0 14.061-6.455 14.061-14.383 0-6.777-4.14-10.977-7.678-14.568l-.41-.416c-1.85-1.884-3.455-3.584-4.394-5.46-.908-1.813-1.2-3.808-.328-6.337l1.084-3.144-2.576 2.104c-2.719 2.22-4.232 4.152-5.01 5.922-.79 1.793-.787 3.332-.643 4.657a28.557 28.557 0 00.13.995c.039.276.075.531.104.782.062.538.082 1 .022 1.433z" stroke="#FF4F52" stroke-width="1.891"/></g><defs><clipPath id="clip0"><path fill="#fff" transform="rotate(-90 16 16)" d="M0 0h32v33H0z"/></clipPath></defs></svg>