<svg width="246" height="11" viewBox="0 0 246 11" fill="none" xmlns="http://www.w3.org/2000/svg"><g clip-path="url(#clip0)"><path d="M83.542 2.75c.22-.098.22-.196.441-.393h2.866c.44-.196.882-.295 1.102-.491.661.098.882.688 2.425.196l.661-.294h5.952l.881-.393c1.984-.196 4.189 0 6.172-.098l.882-.393h9.92c.44-.197.881-.295 1.102-.393.881.196 1.322.295 1.984.491.44-.098.881-.295 1.543-.491h16.973L137.548 0h33.285c.441.196.661.295 1.322.491.441-.098 1.102-.196 2.205-.491h5.731c.22.098.441.196 1.102.393 1.323.294 2.425-.393 3.968-.491l1.102.49h7.935c.441-.097.662-.294 1.102-.392l.662.295c.22 0 .22.098.441.098h15.871c.44.196.881.294 1.322.49.441-.097 1.102-.294 1.984-.49h3.968l.882.393h3.086c.22-.099.661-.295 1.102-.393.441.098.661.294 1.102.393h1.984c.441-.197.661-.295 1.102-.393l1.763.786c1.102.098 2.205.196 3.086-.393h5.07c.221.098.662.294 1.102.393 1.103.098 2.205-.099 3.527.196-.22.196-.441.295-.881.491l3.967.884c-2.865.295-15.209.393-26.01.196-.221-.098-.441-.196-.662-.392h-3.086c-.661.392-1.102.49-1.543.687h-5.951c-.441-.098-.662-.295-1.103-.393-.22 0-.44.098-.881.393-1.323.098-2.645 0-4.188 0-.221-.196-.441-.295-.882-.393h-5.07c-.221.098-.441.197-1.102.393h-3.968c-.882-.295-1.763-.491-3.086-.393l-1.102.491h-5.952l-1.102.491h-7.054l-.661.295c-.22 0-.22.098-.441.098h-32.183c-.44.197-.881.295-1.322.491-.441-.098-1.102-.294-1.984-.49-.441-.1-1.543-.295-2.425.392h-26.011l-1.102.491h-3.967c-.221-.098-.662-.295-1.103-.393-.661-.098-1.322.098-1.763.295-.882.393-1.543.098-2.204-.295-.22.098-.662.197-1.102.393h-2.866c-.44.197-.882.295-1.323.491h-7.935l-1.102.491h-9.92l-1.102.491h-9.037l-.882.393h-3.086c-.661.197-.882.393-1.323.491l-.882-.393h-4.188l-.881.393h-5.07l-.882.393h-5.952l-1.102.491H35.93l-.881.393H31.08l-.882.393c-.881.295-1.983-.098-2.645.295-.661.392-1.543.196-2.204.196-.661 0-1.323 0-1.764.196-1.322.491-3.086 0-3.747.688h-5.07l-1.102-.491c-.44.294-.44.59-.661.884-1.102.294-2.205.098-3.527.098-.22-.295-.44-.491-.661-.884-.441.098-.662.196-1.103.393-.22-.098-.66-.197-1.102-.393-.22.098-.66.295-1.102.393H2.424C1.763 10.214.881 9.82 0 9.33c0-.294-.22-.589.22-.982h3.307c.22 0 .441.197 1.102.393h4.189c.22-.196.66-.295.881-.393h2.866c.22-.196.661-.393 1.102-.49h2.866l1.102-.492h5.07l.881-.393h3.087l1.102-.49h2.865c.441-.197.882-.296 1.323-.492h4.629a52.658 52.658 0 003.747-.982h6.613l1.102-.491h7.936l.881-.393h5.07l1.102-.491h5.07l1.103-.491h5.951l.882-.393h4.85L82 2.259c.662.196 1.103.393 1.543.491.22.196.22.59 1.103.295-.22-.099-.662-.197-1.103-.295z" fill="#FF4F52"/></g><defs><clipPath id="clip0"><path fill="#fff" d="M0 0h246v11H0z"/></clipPath></defs></svg>