<svg viewBox="0 0 24 37" fill="none" xmlns="http://www.w3.org/2000/svg"><path d="M7.63 14.658a2.15 2.15 0 01-.39.95c-.316-1.413-1.453-2.575-2.752-3.161l-2.13-.96L3.61 13.46c.494.78.467 1.913.037 3.371-.377 1.279-1.011 2.64-1.63 3.965l-.224.483c-.522 1.11-.909 2.355-.909 3.774 0 5.92 5.05 10.647 11.202 10.647 6.148 0 11.198-4.728 11.198-10.647 0-5.034-3.32-8.149-6.143-10.798l-.334-.314c-1.483-1.395-2.768-2.655-3.519-4.042-.722-1.335-.953-2.796-.26-4.654l.84-2.251-1.918 1.447C9.78 6.081 8.568 7.51 7.942 8.823c-.636 1.336-.633 2.485-.517 3.473.028.241.063.475.097.693l.007.045c.031.204.06.392.083.577.05.396.065.732.018 1.047z" stroke="#FF4F52" stroke-width=".5"/></svg>