<svg width="162" height="60" viewBox="0 0 162 60" fill="none" xmlns="http://www.w3.org/2000/svg"><path d="M30 0L0 30l30 30 30-30L30 0z" fill="#E84B13"/><path d="M63.533 30.978h7.49v3.114h-4.108v1.574h3.61v3.015h-3.61v3.562h-3.382V30.978zm23.082 11.2v.065h-3.529l-.513-1.24h-3.677l-.514 1.24h-3.545v-.05l5.403-11.248h.994l5.381 11.233zm-6.73-3.857l-.148.35h1.972l-.13-.35c-.268-.678-.547-1.279-.847-2.273-.301.994-.58 1.606-.847 2.273zm10.847-1.711c0-3.414 2.519-5.9 6.097-5.9 1.606 0 2.917.366 4.256 1.377l-1.574 2.453c-.71-.514-1.54-.781-2.535-.781-1.671 0-2.77 1.06-2.77 2.852 0 1.759 1.028 2.851 2.568 2.851 1.159 0 1.956-.317 2.7-1.06l1.906 2.339c-1.524 1.327-2.901 1.775-4.704 1.775-3.655-.005-5.944-2.655-5.944-5.905zm24.428-2.518h-2.787v8.151h-3.381v-8.15h-2.786v-3.115h8.948v3.114h.006zm4.834 2.518c0-3.447 2.486-5.9 6.146-5.9 3.66 0 6.146 2.453 6.146 5.9 0 3.448-2.486 5.9-6.146 5.9-3.66 0-6.146-2.452-6.146-5.9zm8.812 0c0-1.606-.945-2.851-2.666-2.851-1.737 0-2.666 1.24-2.666 2.852 0 1.622.945 2.851 2.666 2.851s2.666-1.224 2.666-2.852zm18.062 5.59v.049h-3.796l-1.809-3.562h-.448v3.562h-3.381v-11.27h4.72c2.633 0 4.223 1.622 4.223 3.845 0 1.377-.765 2.568-1.989 3.262l2.48 4.114zm-3.895-7.294c0-.677-.497-1.142-1.273-1.142h-.879v2.322h.879c.776-.005 1.273-.47 1.273-1.18zm18.453-3.928v.05l-3.895 6.642v4.573h-3.382V37.67l-3.895-6.643v-.049h3.78l1.208 2.404c.229.448.415.88.595 1.41.164-.53.35-.962.579-1.41l1.224-2.404h3.786zm-97.893-13.28h7.62v3.114h-4.239v8.15h-3.381V17.699zm14.167-.001h4.67c2.453 0 4.108 1.623 4.108 3.977 0 2.355-1.655 3.912-4.108 3.912h-1.294v3.382h-3.382v-11.27h.005zm4.091 5.136c.847 0 1.295-.432 1.295-1.159 0-.726-.448-1.158-1.295-1.158h-.71v2.322h.71v-.005zm21.111-5.169v11.298H99.52v-3.578c0-.514.017-1.158.066-1.808-.448.48-.912.961-1.295 1.294l-4.572 4.125h-.995V17.697h3.382v3.742c0 .514-.016.995-.05 1.508.334-.398.727-.797 1.143-1.158l4.703-4.125h1zm5.593 8.714c1.541-.082 1.809-1.125 2.104-3.66l.579-5.02h8.304v11.264H116.1v-8.15h-1.939l-.399 3.43c-.481 4.158-2.371 4.939-4.824 4.939l-.443-2.803zm27.638-1.191c0 2.185-1.655 3.78-3.928 3.78h-5.168v-11.27h3.381v3.71h1.792c2.262 0 3.923 1.606 3.923 3.78zm-3.382 0c0-.579-.448-.994-1.125-.994h-1.208v1.988h1.208c.677-.005 1.125-.415 1.125-.994z" fill="#fff"/><path fill-rule="evenodd" clip-rule="evenodd" d="M38.129 52.158c-6.878 0-12.45-5.703-12.45-12.75 0-1.65.414-3.114.999-4.458 1.595-3.72 3.682-8.19 2.103-10.883 1.95.95 3.35 3.103 2.72 5.348 5.906-4.501-3.091-7.5 6.966-15.712-3.638 10.55 12.107 13.188 12.107 25.704 0 7.048-5.573 12.752-12.445 12.752z" fill="#fff"/></svg>