<svg fill="none" xmlns="http://www.w3.org/2000/svg" viewBox="0 0 50 50"><path d="M15.35 9.924H5.935a.3.3 0 00-.235.487l16.386 20.598V47.29h-8.043a.3.3 0 00-.3.3v1.645a.3.3 0 00.3.3h18.33a.3.3 0 00.3-.3v-1.704a.3.3 0 00-.3-.3h-8.042V31.01l9.04-11.443a8.922 8.922 0 002.133 1.105h0l.006.002c1.081.36 2.288.603 3.502.603 2.845 0 5.388-1.151 7.263-3.026 1.874-1.874 3.025-4.417 3.025-7.262 0-2.845-1.151-5.388-3.025-7.263C44.4 1.851 41.857.7 39.012.7c-2.845 0-5.388 1.151-7.262 3.025h0l-.004.004c-1.567 1.625-2.693 3.76-2.938 6.136H17.92l-2.44-4.313h0c-.65-1.145-1.545-1.876-2.596-2.202-1.046-.325-2.215-.24-3.407.188h0-.002L.896 6.712a.3.3 0 00-.177.386l.587 1.586a.3.3 0 00.386.177l8.574-3.171c.729-.252 1.366-.309 1.902-.156.528.151.998.517 1.378 1.195h0l1.804 3.196zm24.544-2.866a.3.3 0 00.3-.3V3.103a8.53 8.53 0 013.707 1.514l-4.83 4.83-4.835-4.835a8.117 8.117 0 013.713-1.51v3.656a.3.3 0 00.3.3h1.645zm.3 8.277a.3.3 0 00-.3-.3h-1.645a.3.3 0 00-.3.3v3.66a7.761 7.761 0 01-1.596-.417c-.533-.193-1.05-.423-1.494-.718l4.18-5.305 4.867 4.867a8.118 8.118 0 01-3.712 1.51v-3.597zM43 11.87a.3.3 0 00.3.3h3.656a8.118 8.118 0 01-1.51 3.712l-4.836-4.835 4.835-4.834a8.117 8.117 0 011.511 3.712H43.3a.3.3 0 00-.3.3v1.645zm-33.035.3H36.45L23.207 28.78 9.965 12.17zm21.16-2.245a8.117 8.117 0 011.51-3.71l3.661 3.71h-5.17z" fill="#EE4346" stroke="#EE4346" stroke-width=".6" stroke-linejoin="round"/></svg>