<svg fill="none" xmlns="http://www.w3.org/2000/svg" viewBox="0 0 20 31"><path d="M6.93 12.857a4.189 4.189 0 00-1.668-1.469L2.58 10.091l1.515 2.565c.278.472.293 1.226-.01 2.328-.262.955-.705 1.975-1.148 2.995l-.16.37c-.386.88-.677 1.88-.677 3.025 0 4.698 3.747 8.526 8.402 8.526 4.652 0 8.398-3.828 8.398-8.526 0-4-2.467-6.483-4.477-8.507l-.253-.255c-1.064-1.075-1.939-2-2.446-3.006-.476-.945-.633-1.974-.168-3.31l1.036-2.983L10.14 5.3C8.56 6.58 7.648 7.72 7.171 8.797c-.487 1.098-.483 2.043-.396 2.832a16.384 16.384 0 00.075.575c.023.158.043.298.059.435.009.077.016.15.02.218z" stroke="#EE4346" stroke-width="1.8"/></svg>