<svg fill="none" xmlns="http://www.w3.org/2000/svg" viewBox="0 0 34 54"><path d="M12.382 33.737h0l.007-.007c1.972-1.984 2.42-4.217 2.157-6.205-.261-1.978-1.223-3.711-2.07-4.732a1.367 1.367 0 00-1.967-.197c-.59.48-.67 1.37-.199 1.958l.02.027c.152.201.881 1.166 1.254 2.457.397 1.379.385 3.11-1.184 4.68a1.39 1.39 0 00-.004 1.985c.259.285.626.422.986.422s.697-.112 1-.388z" fill="#EE4346" stroke="#EE4346" stroke-width=".4"/><path d="M7.386 19.567h0l-2.885 4.061c-.076 1.186.52 2.366 1.713 3.562.259.284.626.422.987.422.365 0 .725-.14 1.023-.412h0l.007-.007a1.39 1.39 0 000-1.989 4.597 4.597 0 01-.702-.865c-.154-.26-.21-.458-.201-.591h0v-.005c.004-.108.05-.24.15-.4.097-.157.238-.327.413-.508.35-.363.816-.746 1.287-1.132h0l.038-.032c1.011-.832 2.307-1.9 3.068-3.353.778-1.489.987-3.364-.169-5.773h0l-.001-.002a1.423 1.423 0 00-1.876-.644h0l-.003.001a1.423 1.423 0 00-.643 1.876c.666 1.392.657 2.365.24 3.21-.427.871-1.297 1.638-2.446 2.581z" fill="#EE4346" stroke="#EE4346" stroke-width=".4"/><path d="M11.79 50.597a8.142 8.142 0 01-6.753-3.576c1.848.727 4.177 1.14 6.754 1.14 1.31 0 2.572-.122 3.784-.34h.002a1.399 1.399 0 001.121-1.627 1.399 1.399 0 00-1.627-1.122l.037.197-.036-.197a18.32 18.32 0 01-3.281.285c-2.537 0-4.606-.464-6.034-1.083-.715-.31-1.262-.654-1.627-.992-.37-.344-.527-.655-.527-.897s.157-.553.527-.896c.365-.339.912-.684 1.627-.993 1.428-.619 3.497-1.083 6.034-1.083s4.606.464 6.034 1.083c.715.31 1.262.654 1.627.993.37.343.526.654.526.896 0 4.528-3.684 8.212-8.187 8.212zM26.813.8c-3.764 0-6.834 3.07-6.834 6.833v30.841c-1.985-1.142-4.876-1.84-8.187-1.84-3.1 0-5.83.604-7.795 1.62C2.04 39.266.8 40.714.8 42.409.8 48.48 5.72 53.4 11.79 53.4c6.072 0 10.992-4.92 10.992-10.99V7.632c0-2.22 1.809-4.03 4.03-4.03 2.22 0 4.03 1.81 4.03 4.03a1.39 1.39 0 001.401 1.402 1.39 1.39 0 001.402-1.402C33.645 3.87 30.575.8 26.812.8z" fill="#EE4346" stroke="#EE4346" stroke-width=".4"/></svg>