<svg fill="none" xmlns="http://www.w3.org/2000/svg" viewBox="0 0 47 51"><mask id="a" maskUnits="userSpaceOnUse" x="0" y="0" width="47" height="51" fill="#000"><path fill="#fff" d="M0 0h47v51H0z"/><path fill-rule="evenodd" clip-rule="evenodd" d="M7.822 25.355c-1.126 3.19-2.251 5.065-3.189 6.628-.375.625-.75 1.25-1 1.813-.625 1.25-.876 2.439-.876 3.502.063 1.563.813 2.876 2.251 3.626.813.438 1.876.625 3.127.563 1.75-.063 4.126-.75 6.69-1.5 2.25-.626 4.689-1.376 7.127-1.752 2.251-.375 4.064-.437 5.815-.5 1.563-.062 3.064-.125 4.69-.375 1.75-.313 3.313-1 4.689-2a13.388 13.388 0 004.377-5.628c1.563-3.689 1.5-8.003-.938-11.317-1.876-2.5-4.94-5.252-8.191-7.628-4.627-3.439-9.504-6.252-11.817-7.253-2.376-.938-5.315-1.313-7.628 0C9.76 5.348 9.885 8.786 9.76 11.975c-.125 4.44-.25 8.691-1.938 13.38zm16.194-3l12.567 3.626-.5 1.688-12.505-3.564L10.01 36.172 8.822 34.86l13.506-11.942-6.44-12.693 1.563-.812 6.565 12.942zM3.32 41.986c.25.187.563.375.875.563 1.063.562 2.439.812 4.002.75 2-.063 4.44-.75 7.065-1.563 2.251-.626 4.627-1.313 6.94-1.688a50.427 50.427 0 015.628-.5c1.625-.063 3.189-.126 4.877-.438 2-.313 3.876-1.188 5.44-2.376a15.3 15.3 0 004.939-6.315c.312-.75.625-1.563.813-2.439.124.626.187 1.188.25 1.751.312 3.689-.313 6.69-1.563 9.004-2.502 4.564-6.19 5.377-10.942 5.752-2.939.25-6.128.5-9.692 1.063-2.438.375-4.877 1.063-7.127 1.75-1.25.376-3.314 1-4.627 1-1.876.063-3.376-.562-4.502-1.75-1.125-1-1.876-2.626-2.376-4.564zM45.9 29.67c.374 4.064-.313 7.377-1.814 10.003-2.813 5.065-7.065 6.253-12.38 6.69-2.938.25-6.127.5-9.566 1.063-2.25.376-4.69 1.063-6.94 1.689-1.626.5-3.314 1.063-5.065 1.063-2.438.062-4.376-.75-5.814-2.251-2.439-2.626-3.19-6.753-3.314-10.192a9.736 9.736 0 011-4.69c.313-.624.688-1.25 1.063-1.937.875-1.501 1.938-3.314 3.064-6.315 1.563-4.44 1.688-8.566 1.813-12.818.125-3.939.188-7.69 4.064-9.879 2.814-1.625 6.253-1.25 9.191-.125 2.439 1 7.503 3.94 12.192 7.44 3.377 2.502 6.566 5.315 8.566 8.004 2.251 2.938 3.627 8.69 3.94 12.255z"/></mask><path fill-rule="evenodd" clip-rule="evenodd" d="M7.822 25.355c-1.126 3.19-2.251 5.065-3.189 6.628-.375.625-.75 1.25-1 1.813-.625 1.25-.876 2.439-.876 3.502.063 1.563.813 2.876 2.251 3.626.813.438 1.876.625 3.127.563 1.75-.063 4.126-.75 6.69-1.5 2.25-.626 4.689-1.376 7.127-1.752 2.251-.375 4.064-.437 5.815-.5 1.563-.062 3.064-.125 4.69-.375 1.75-.313 3.313-1 4.689-2a13.388 13.388 0 004.377-5.628c1.563-3.689 1.5-8.003-.938-11.317-1.876-2.5-4.94-5.252-8.191-7.628-4.627-3.439-9.504-6.252-11.817-7.253-2.376-.938-5.315-1.313-7.628 0C9.76 5.348 9.885 8.786 9.76 11.975c-.125 4.44-.25 8.691-1.938 13.38zm16.194-3l12.567 3.626-.5 1.688-12.505-3.564L10.01 36.172 8.822 34.86l13.506-11.942-6.44-12.693 1.563-.812 6.565 12.942zM3.32 41.986c.25.187.563.375.875.563 1.063.562 2.439.812 4.002.75 2-.063 4.44-.75 7.065-1.563 2.251-.626 4.627-1.313 6.94-1.688a50.427 50.427 0 015.628-.5c1.625-.063 3.189-.126 4.877-.438 2-.313 3.876-1.188 5.44-2.376a15.3 15.3 0 004.939-6.315c.312-.75.625-1.563.813-2.439.124.626.187 1.188.25 1.751.312 3.689-.313 6.69-1.563 9.004-2.502 4.564-6.19 5.377-10.942 5.752-2.939.25-6.128.5-9.692 1.063-2.438.375-4.877 1.063-7.127 1.75-1.25.376-3.314 1-4.627 1-1.876.063-3.376-.562-4.502-1.75-1.125-1-1.876-2.626-2.376-4.564zM45.9 29.67c.374 4.064-.313 7.377-1.814 10.003-2.813 5.065-7.065 6.253-12.38 6.69-2.938.25-6.127.5-9.566 1.063-2.25.376-4.69 1.063-6.94 1.689-1.626.5-3.314 1.063-5.065 1.063-2.438.062-4.376-.75-5.814-2.251-2.439-2.626-3.19-6.753-3.314-10.192a9.736 9.736 0 011-4.69c.313-.624.688-1.25 1.063-1.937.875-1.501 1.938-3.314 3.064-6.315 1.563-4.44 1.688-8.566 1.813-12.818.125-3.939.188-7.69 4.064-9.879 2.814-1.625 6.253-1.25 9.191-.125 2.439 1 7.503 3.94 12.192 7.44 3.377 2.502 6.566 5.315 8.566 8.004 2.251 2.938 3.627 8.69 3.94 12.255z" fill="#EE4346"/><path clip-rule="evenodd" d="M7.822 25.355c-1.126 3.19-2.251 5.065-3.189 6.628-.375.625-.75 1.25-1 1.813-.625 1.25-.876 2.439-.876 3.502.063 1.563.813 2.876 2.251 3.626.813.438 1.876.625 3.127.563 1.75-.063 4.126-.75 6.69-1.5 2.25-.626 4.689-1.376 7.127-1.752 2.251-.375 4.064-.437 5.815-.5 1.563-.062 3.064-.125 4.69-.375 1.75-.313 3.313-1 4.689-2a13.388 13.388 0 004.377-5.628c1.563-3.689 1.5-8.003-.938-11.317-1.876-2.5-4.94-5.252-8.191-7.628-4.627-3.439-9.504-6.252-11.817-7.253-2.376-.938-5.315-1.313-7.628 0C9.76 5.348 9.885 8.786 9.76 11.975c-.125 4.44-.25 8.691-1.938 13.38zm16.194-3l12.567 3.626-.5 1.688-12.505-3.564L10.01 36.172 8.822 34.86l13.506-11.942-6.44-12.693 1.563-.812 6.565 12.942zM3.32 41.986c.25.187.563.375.875.563 1.063.562 2.439.812 4.002.75 2-.063 4.44-.75 7.065-1.563 2.251-.626 4.627-1.313 6.94-1.688a50.427 50.427 0 015.628-.5c1.625-.063 3.189-.126 4.877-.438 2-.313 3.876-1.188 5.44-2.376a15.3 15.3 0 004.939-6.315c.312-.75.625-1.563.813-2.439.124.626.187 1.188.25 1.751.312 3.689-.313 6.69-1.563 9.004-2.502 4.564-6.19 5.377-10.942 5.752-2.939.25-6.128.5-9.692 1.063-2.438.375-4.877 1.063-7.127 1.75-1.25.376-3.314 1-4.627 1-1.876.063-3.376-.562-4.502-1.75-1.125-1-1.876-2.626-2.376-4.564zM45.9 29.67c.374 4.064-.313 7.377-1.814 10.003-2.813 5.065-7.065 6.253-12.38 6.69-2.938.25-6.127.5-9.566 1.063-2.25.376-4.69 1.063-6.94 1.689-1.626.5-3.314 1.063-5.065 1.063-2.438.062-4.376-.75-5.814-2.251-2.439-2.626-3.19-6.753-3.314-10.192a9.736 9.736 0 011-4.69c.313-.624.688-1.25 1.063-1.937.875-1.501 1.938-3.314 3.064-6.315 1.563-4.44 1.688-8.566 1.813-12.818.125-3.939.188-7.69 4.064-9.879 2.814-1.625 6.253-1.25 9.191-.125 2.439 1 7.503 3.94 12.192 7.44 3.377 2.502 6.566 5.315 8.566 8.004 2.251 2.938 3.627 8.69 3.94 12.255z" stroke="#EE4346" stroke-width="1.2" mask="url(#a)"/></svg>
