<svg fill="none" xmlns="http://www.w3.org/2000/svg" viewBox="0 0 64 54"><mask id="a" maskUnits="userSpaceOnUse" x="2.867" y="43.938" width="58" height="10" fill="#000"><path fill="#fff" d="M2.867 43.938h58v10h-58z"/><path d="M52.965 52.894h-41.93c-3.942 0-7.168-3.226-7.168-7.24 0-.43.287-.717.717-.717h54.904c.43 0 .717.287.717.717-.072 4.014-3.297 7.24-7.24 7.24zM5.301 46.37c.358 2.867 2.795 5.089 5.734 5.089h41.859c2.938 0 5.375-2.222 5.734-5.089H5.3z"/></mask><path d="M52.965 52.894h-41.93c-3.942 0-7.168-3.226-7.168-7.24 0-.43.287-.717.717-.717h54.904c.43 0 .717.287.717.717-.072 4.014-3.297 7.24-7.24 7.24zM5.301 46.37c.358 2.867 2.795 5.089 5.734 5.089h41.859c2.938 0 5.375-2.222 5.734-5.089H5.3z" fill="#EE4346"/><path d="M52.965 52.894h-41.93c-3.942 0-7.168-3.226-7.168-7.24 0-.43.287-.717.717-.717h54.904c.43 0 .717.287.717.717-.072 4.014-3.297 7.24-7.24 7.24zM5.301 46.37c.358 2.867 2.795 5.089 5.734 5.089h41.859c2.938 0 5.375-2.222 5.734-5.089H5.3z" stroke="#EE4346" mask="url(#a)"/><mask id="b" maskUnits="userSpaceOnUse" x="0" y="43.938" width="64" height="3" fill="#000"><path fill="#fff" d="M0 43.938h64v3H0z"/><path d="M63 44.938H1v1.433h62v-1.434z"/></mask><path d="M63 44.938H1v1.433h62v-1.434z" fill="#EE4346"/><path d="M63 44.938H1v1.433h62v-1.434z" stroke="#EE4346" mask="url(#b)"/><mask id="c" maskUnits="userSpaceOnUse" x="34.835" y="30.893" width="24" height="16" fill="#000"><path fill="#fff" d="M34.835 30.893h24v16h-24z"/><path d="M57.768 45.726l-1.434-.072v-.358c0-6.594-6.307-11.97-14.048-11.97-2.079 0-4.086.358-5.95 1.147l-.501-1.362c2.078-.788 4.229-1.218 6.522-1.218 8.53 0 15.482 6.02 15.482 13.403-.071.143-.071.287-.071.43z"/></mask><path d="M57.768 45.726l-1.434-.072v-.358c0-6.594-6.307-11.97-14.048-11.97-2.079 0-4.086.358-5.95 1.147l-.501-1.362c2.078-.788 4.229-1.218 6.522-1.218 8.53 0 15.482 6.02 15.482 13.403-.071.143-.071.287-.071.43z" fill="#EE4346"/><path d="M57.768 45.726l-1.434-.072v-.358c0-6.594-6.307-11.97-14.048-11.97-2.079 0-4.086.358-5.95 1.147l-.501-1.362c2.078-.788 4.229-1.218 6.522-1.218 8.53 0 15.482 6.02 15.482 13.403-.071.143-.071.287-.071.43z" stroke="#EE4346" mask="url(#c)"/><mask id="d" maskUnits="userSpaceOnUse" x="5.304" y="29.459" width="40" height="17" fill="#000"><path fill="#fff" d="M5.304 29.459h40v17h-40z"/><path d="M44.078 45.726l-1.434-.143c.072-.359.072-.645.072-1.004 0-7.024-7.885-12.687-17.49-12.687-9.676 0-17.488 5.663-17.488 12.687 0 .359 0 .645.071 1.004l-1.433.143c-.072-.358-.072-.788-.072-1.147 0-7.813 8.53-14.12 18.923-14.12 10.464 0 18.922 6.308 18.922 14.12 0 .43-.072.789-.072 1.147z"/></mask><path d="M44.078 45.726l-1.434-.143c.072-.359.072-.645.072-1.004 0-7.024-7.885-12.687-17.49-12.687-9.676 0-17.488 5.663-17.488 12.687 0 .359 0 .645.071 1.004l-1.433.143c-.072-.358-.072-.788-.072-1.147 0-7.813 8.53-14.12 18.923-14.12 10.464 0 18.922 6.308 18.922 14.12 0 .43-.072.789-.072 1.147z" fill="#EE4346"/><path d="M44.078 45.726l-1.434-.143c.072-.359.072-.645.072-1.004 0-7.024-7.885-12.687-17.49-12.687-9.676 0-17.488 5.663-17.488 12.687 0 .359 0 .645.071 1.004l-1.433.143c-.072-.358-.072-.788-.072-1.147 0-7.813 8.53-14.12 18.923-14.12 10.464 0 18.922 6.308 18.922 14.12 0 .43-.072.789-.072 1.147z" stroke="#EE4346" mask="url(#d)"/><mask id="e" maskUnits="userSpaceOnUse" x="9.246" y="33.473" width="32" height="13" fill="#000"><path fill="#fff" d="M9.246 33.473h32v13h-32z"/><path d="M10.39 45.798c-.072-.43-.144-.789-.144-1.219 0-5.519 6.81-10.106 14.909-10.106 8.1 0 14.909 4.659 14.909 10.106 0 .43-.072.789-.144 1.219l-1.433-.287c.071-.287.071-.645.071-.932 0-4.73-6.164-8.673-13.475-8.673-7.31 0-13.475 4.014-13.475 8.673 0 .287 0 .645.072.932l-1.29.287z"/></mask><path d="M10.39 45.798c-.072-.43-.144-.789-.144-1.219 0-5.519 6.81-10.106 14.909-10.106 8.1 0 14.909 4.659 14.909 10.106 0 .43-.072.789-.144 1.219l-1.433-.287c.071-.287.071-.645.071-.932 0-4.73-6.164-8.673-13.475-8.673-7.31 0-13.475 4.014-13.475 8.673 0 .287 0 .645.072.932l-1.29.287z" fill="#EE4346"/><path d="M10.39 45.798c-.072-.43-.144-.789-.144-1.219 0-5.519 6.81-10.106 14.909-10.106 8.1 0 14.909 4.659 14.909 10.106 0 .43-.072.789-.144 1.219l-1.433-.287c.071-.287.071-.645.071-.932 0-4.73-6.164-8.673-13.475-8.673-7.31 0-13.475 4.014-13.475 8.673 0 .287 0 .645.072.932l-1.29.287z" stroke="#EE4346" mask="url(#e)"/><mask id="f" maskUnits="userSpaceOnUse" x="13.26" y="37.487" width="24" height="10" fill="#000"><path fill="#fff" d="M13.26 37.487h24v10h-24z"/><path d="M35.763 46.013l-1.29-.645c.143-.287.215-.502.215-.717 0-1.577-3.727-4.659-9.461-4.659-2.652 0-5.161.645-7.025 1.792-1.72 1.003-2.437 2.222-2.437 2.867 0 .215.072.502.215.717l-1.362.645c-.215-.502-.358-.932-.358-1.434 0-2.795 4.802-6.092 10.895-6.092 6.164 0 10.895 3.297 10.895 6.092.071.43-.072.932-.287 1.434z"/></mask><path d="M35.763 46.013l-1.29-.645c.143-.287.215-.502.215-.717 0-1.577-3.727-4.659-9.461-4.659-2.652 0-5.161.645-7.025 1.792-1.72 1.003-2.437 2.222-2.437 2.867 0 .215.072.502.215.717l-1.362.645c-.215-.502-.358-.932-.358-1.434 0-2.795 4.802-6.092 10.895-6.092 6.164 0 10.895 3.297 10.895 6.092.071.43-.072.932-.287 1.434z" fill="#EE4346"/><path d="M35.763 46.013l-1.29-.645c.143-.287.215-.502.215-.717 0-1.577-3.727-4.659-9.461-4.659-2.652 0-5.161.645-7.025 1.792-1.72 1.003-2.437 2.222-2.437 2.867 0 .215.072.502.215.717l-1.362.645c-.215-.502-.358-.932-.358-1.434 0-2.795 4.802-6.092 10.895-6.092 6.164 0 10.895 3.297 10.895 6.092.071.43-.072.932-.287 1.434z" stroke="#EE4346" mask="url(#f)"/><mask id="g" maskUnits="userSpaceOnUse" x="18.134" y="41.429" width="14" height="6" fill="#000"><path fill="#fff" d="M18.134 41.429h14v6h-14z"/><path d="M30.1 46.084c-.573-.645-2.293-2.15-4.945-2.15s-4.372 1.505-4.946 2.15l-1.075-1.003c.717-.789 2.796-2.652 6.021-2.652s5.232 1.863 6.02 2.652l-1.074 1.003z"/></mask><path d="M30.1 46.084c-.573-.645-2.293-2.15-4.945-2.15s-4.372 1.505-4.946 2.15l-1.075-1.003c.717-.789 2.796-2.652 6.021-2.652s5.232 1.863 6.02 2.652l-1.074 1.003z" fill="#EE4346"/><path d="M30.1 46.084c-.573-.645-2.293-2.15-4.945-2.15s-4.372 1.505-4.946 2.15l-1.075-1.003c.717-.789 2.796-2.652 6.021-2.652s5.232 1.863 6.02 2.652l-1.074 1.003z" stroke="#EE4346" mask="url(#g)"/><mask id="h" maskUnits="userSpaceOnUse" x="38.92" y="34.835" width="16" height="12" fill="#000"><path fill="#fff" d="M38.92 34.835h16v12h-16z"/><path d="M53.754 45.726l-1.434-.072v-.358c0-4.372-4.515-7.956-10.106-7.956-.717 0-1.434.072-2.079.143l-.215-1.433a13.202 13.202 0 012.366-.215c6.379 0 11.54 4.229 11.54 9.39-.072.214-.072.358-.072.501z"/></mask><path d="M53.754 45.726l-1.434-.072v-.358c0-4.372-4.515-7.956-10.106-7.956-.717 0-1.434.072-2.079.143l-.215-1.433a13.202 13.202 0 012.366-.215c6.379 0 11.54 4.229 11.54 9.39-.072.214-.072.358-.072.501z" fill="#EE4346"/><path d="M53.754 45.726l-1.434-.072v-.358c0-4.372-4.515-7.956-10.106-7.956-.717 0-1.434.072-2.079.143l-.215-1.433a13.202 13.202 0 012.366-.215c6.379 0 11.54 4.229 11.54 9.39-.072.214-.072.358-.072.501z" stroke="#EE4346" mask="url(#h)"/><mask id="i" maskUnits="userSpaceOnUse" x="41.572" y="38.92" width="9" height="8" fill="#000"><path fill="#fff" d="M41.572 38.92h9v8h-9z"/><path d="M49.74 45.726l-1.434-.143v-.287c0-2.007-2.652-3.87-5.734-3.942l.072-1.434c3.942.143 7.096 2.58 7.096 5.376v.43z"/></mask><path d="M49.74 45.726l-1.434-.143v-.287c0-2.007-2.652-3.87-5.734-3.942l.072-1.434c3.942.143 7.096 2.58 7.096 5.376v.43z" fill="#EE4346"/><path d="M49.74 45.726l-1.434-.143v-.287c0-2.007-2.652-3.87-5.734-3.942l.072-1.434c3.942.143 7.096 2.58 7.096 5.376v.43z" stroke="#EE4346" mask="url(#i)"/><mask id="j" maskUnits="userSpaceOnUse" x="8.53" y="0" width="16" height="38" fill="#000"><path fill="#fff" d="M8.53 0h16v38h-16z"/><path d="M10.963 36.91H9.53V1.717c0-.43.286-.717.716-.717h8.315c2.652 0 4.874 2.15 4.874 4.802 0 2.652-2.15 4.874-4.874 4.874h-.717V9.243h.717A3.441 3.441 0 0022 5.803c0-1.864-1.505-3.37-3.44-3.37h-7.598V36.91z"/></mask><path d="M10.963 36.91H9.53V1.717c0-.43.286-.717.716-.717h8.315c2.652 0 4.874 2.15 4.874 4.802 0 2.652-2.15 4.874-4.874 4.874h-.717V9.243h.717A3.441 3.441 0 0022 5.803c0-1.864-1.505-3.37-3.44-3.37h-7.598V36.91z" fill="#EE4346"/><path d="M10.963 36.91H9.53V1.717c0-.43.286-.717.716-.717h8.315c2.652 0 4.874 2.15 4.874 4.802 0 2.652-2.15 4.874-4.874 4.874h-.717V9.243h.717A3.441 3.441 0 0022 5.803c0-1.864-1.505-3.37-3.44-3.37h-7.598V36.91z" stroke="#EE4346" mask="url(#j)"/><mask id="k" maskUnits="userSpaceOnUse" x="16.844" y="4.157" width="21" height="3" fill="#000"><path fill="#fff" d="M16.844 4.157h21v3h-21z"/><path d="M37.34 5.157H17.844v1.434H37.34V5.157z"/></mask><path d="M37.34 5.157H17.844v1.434H37.34V5.157z" fill="#EE4346"/><path d="M37.34 5.157H17.844v1.434H37.34V5.157z" stroke="#EE4346" mask="url(#k)"/><mask id="l" maskUnits="userSpaceOnUse" x="35.551" y="1.935" width="23" height="8" fill="#000"><path fill="#fff" d="M35.551 1.935h23v8h-23z"/><path d="M54.972 8.67H39.418a2.875 2.875 0 01-2.867-2.868 2.875 2.875 0 012.867-2.867h15.554a2.876 2.876 0 012.867 2.867 2.876 2.876 0 01-2.867 2.867zM39.418 4.44c-.788 0-1.433.646-1.433 1.434 0 .788.645 1.434 1.433 1.434h15.554c.789 0 1.434-.646 1.434-1.434 0-.788-.645-1.433-1.434-1.433H39.418z"/></mask><path d="M54.972 8.67H39.418a2.875 2.875 0 01-2.867-2.868 2.875 2.875 0 012.867-2.867h15.554a2.876 2.876 0 012.867 2.867 2.876 2.876 0 01-2.867 2.867zM39.418 4.44c-.788 0-1.433.646-1.433 1.434 0 .788.645 1.434 1.433 1.434h15.554c.789 0 1.434-.646 1.434-1.434 0-.788-.645-1.433-1.434-1.433H39.418z" fill="#EE4346"/><path d="M54.972 8.67H39.418a2.875 2.875 0 01-2.867-2.868 2.875 2.875 0 012.867-2.867h15.554a2.876 2.876 0 012.867 2.867 2.876 2.876 0 01-2.867 2.867zM39.418 4.44c-.788 0-1.433.646-1.433 1.434 0 .788.645 1.434 1.433 1.434h15.554c.789 0 1.434-.646 1.434-1.434 0-.788-.645-1.433-1.434-1.433H39.418z" stroke="#EE4346" mask="url(#l)"/><mask id="m" maskUnits="userSpaceOnUse" x="12.113" y=".717" width="3" height="34" fill="#000"><path fill="#fff" d="M12.113.717h3v34h-3z"/><path d="M14.547 1.717h-1.434v32.11h1.434V1.718z"/></mask><path d="M14.547 1.717h-1.434v32.11h1.434V1.718z" fill="#EE4346"/><path d="M14.547 1.717h-1.434v32.11h1.434V1.718z" stroke="#EE4346" mask="url(#m)"/><mask id="n" maskUnits="userSpaceOnUse" x="16.127" y=".717" width="3" height="33" fill="#000"><path fill="#fff" d="M16.127.717h3v33h-3z"/><path d="M18.56 1.717h-1.433V32.25h1.434V1.717z"/></mask><path d="M18.56 1.717h-1.433V32.25h1.434V1.717z" fill="#EE4346"/><path d="M18.56 1.717h-1.433V32.25h1.434V1.717z" stroke="#EE4346" mask="url(#n)"/></svg>