<svg fill="none" xmlns="http://www.w3.org/2000/svg" viewBox="0 0 81 51"><mask id="a" maskUnits="userSpaceOnUse" x="0" y="24.245" width="81" height="27" fill="#000"><path fill="#fff" d="M0 24.245h81v27H0z"/><path d="M80.175 25.519a1.16 1.16 0 00-1.025-.242l-19.87 4.685a1.177 1.177 0 00-.848 1.481l.168.531-7.155 1.686c-2.245-2.207-8.812-3.26-14.495-3.772a1.174 1.174 0 00-1.267 1.052 1.174 1.174 0 001.053 1.267c9.046.801 12.697 2.432 13.154 3.149-.773 1.313-8.962 3.568-23.196 3.568-14.234 0-22.423-2.255-23.196-3.568.373-.55 3.074-2.096 11.616-3a1.164 1.164 0 001.035-1.285 1.164 1.164 0 00-1.286-1.034c-8.86.96-13.47 2.683-13.694 5.142-.093.829-.829 4.145 1.723 7.564C6.488 47.56 14.5 50 26.712 50c12.213 0 20.225-2.44 23.811-7.257 2.077-2.785 2.03-5.57 1.845-6.903l6.94-1.64.009.02c.158.493.605.82 1.109.82.055 0 .12 0 .177-.01l18.696-2.86c.54-.084.95-.531.987-1.071l.308-4.602a1.181 1.181 0 00-.42-.978zM48.613 41.402c-2.16 2.86-7.722 6.27-21.9 6.27-14.188 0-19.75-3.41-21.91-6.27a7.306 7.306 0 01-1.435-3.363c6.045 3.176 22.487 3.223 23.345 3.223.847 0 17.298-.047 23.344-3.223a7.304 7.304 0 01-1.444 3.363zM78.013 30l-16.786 2.57-.196-.624 17.122-4.043-.14 2.097z"/></mask><path d="M80.175 25.519a1.16 1.16 0 00-1.025-.242l-19.87 4.685a1.177 1.177 0 00-.848 1.481l.168.531-7.155 1.686c-2.245-2.207-8.812-3.26-14.495-3.772a1.174 1.174 0 00-1.267 1.052 1.174 1.174 0 001.053 1.267c9.046.801 12.697 2.432 13.154 3.149-.773 1.313-8.962 3.568-23.196 3.568-14.234 0-22.423-2.255-23.196-3.568.373-.55 3.074-2.096 11.616-3a1.164 1.164 0 001.035-1.285 1.164 1.164 0 00-1.286-1.034c-8.86.96-13.47 2.683-13.694 5.142-.093.829-.829 4.145 1.723 7.564C6.488 47.56 14.5 50 26.712 50c12.213 0 20.225-2.44 23.811-7.257 2.077-2.785 2.03-5.57 1.845-6.903l6.94-1.64.009.02c.158.493.605.82 1.109.82.055 0 .12 0 .177-.01l18.696-2.86c.54-.084.95-.531.987-1.071l.308-4.602a1.181 1.181 0 00-.42-.978zM48.613 41.402c-2.16 2.86-7.722 6.27-21.9 6.27-14.188 0-19.75-3.41-21.91-6.27a7.306 7.306 0 01-1.435-3.363c6.045 3.176 22.487 3.223 23.345 3.223.847 0 17.298-.047 23.344-3.223a7.304 7.304 0 01-1.444 3.363zM78.013 30l-16.786 2.57-.196-.624 17.122-4.043-.14 2.097z" fill="#EE4346"/><path d="M80.175 25.519a1.16 1.16 0 00-1.025-.242l-19.87 4.685a1.177 1.177 0 00-.848 1.481l.168.531-7.155 1.686c-2.245-2.207-8.812-3.26-14.495-3.772a1.174 1.174 0 00-1.267 1.052 1.174 1.174 0 001.053 1.267c9.046.801 12.697 2.432 13.154 3.149-.773 1.313-8.962 3.568-23.196 3.568-14.234 0-22.423-2.255-23.196-3.568.373-.55 3.074-2.096 11.616-3a1.164 1.164 0 001.035-1.285 1.164 1.164 0 00-1.286-1.034c-8.86.96-13.47 2.683-13.694 5.142-.093.829-.829 4.145 1.723 7.564C6.488 47.56 14.5 50 26.712 50c12.213 0 20.225-2.44 23.811-7.257 2.077-2.785 2.03-5.57 1.845-6.903l6.94-1.64.009.02c.158.493.605.82 1.109.82.055 0 .12 0 .177-.01l18.696-2.86c.54-.084.95-.531.987-1.071l.308-4.602a1.181 1.181 0 00-.42-.978zM48.613 41.402c-2.16 2.86-7.722 6.27-21.9 6.27-14.188 0-19.75-3.41-21.91-6.27a7.306 7.306 0 01-1.435-3.363c6.045 3.176 22.487 3.223 23.345 3.223.847 0 17.298-.047 23.344-3.223a7.304 7.304 0 01-1.444 3.363zM78.013 30l-16.786 2.57-.196-.624 17.122-4.043-.14 2.097z" stroke="#EE4346" stroke-width=".8" mask="url(#a)"/><mask id="b" maskUnits="userSpaceOnUse" x="23.682" y="17.895" width="9" height="9" fill="#000"><path fill="#fff" d="M23.682 17.895h9v9h-9z"/><path d="M27.998 25.528a3.318 3.318 0 003.316-3.316 3.324 3.324 0 00-3.316-3.317 3.318 3.318 0 00-3.316 3.317 3.324 3.324 0 003.316 3.316zm0-4.313a.988.988 0 11-.001 1.976.988.988 0 01.001-1.976z"/></mask><path d="M27.998 25.528a3.318 3.318 0 003.316-3.316 3.324 3.324 0 00-3.316-3.317 3.318 3.318 0 00-3.316 3.317 3.324 3.324 0 003.316 3.316zm0-4.313a.988.988 0 11-.001 1.976.988.988 0 01.001-1.976z" fill="#EE4346"/><path d="M27.998 25.528a3.318 3.318 0 003.316-3.316 3.324 3.324 0 00-3.316-3.317 3.318 3.318 0 00-3.316 3.317 3.324 3.324 0 003.316 3.316zm0-4.313a.988.988 0 11-.001 1.976.988.988 0 01.001-1.976z" stroke="#EE4346" stroke-width=".8" mask="url(#b)"/><mask id="c" maskUnits="userSpaceOnUse" x="30.016" y="0" width="9" height="9" fill="#000"><path fill="#fff" d="M30.016 0h9v9h-9z"/><path d="M34.333 7.642a3.318 3.318 0 003.316-3.316A3.326 3.326 0 0034.333 1a3.318 3.318 0 00-3.317 3.316c0 1.826 1.49 3.326 3.317 3.326zm0-4.313a.987.987 0 010 1.975.988.988 0 010-1.975z"/></mask><path d="M34.333 7.642a3.318 3.318 0 003.316-3.316A3.326 3.326 0 0034.333 1a3.318 3.318 0 00-3.317 3.316c0 1.826 1.49 3.326 3.317 3.326zm0-4.313a.987.987 0 010 1.975.988.988 0 010-1.975z" fill="#EE4346"/><path d="M34.333 7.642a3.318 3.318 0 003.316-3.316A3.326 3.326 0 0034.333 1a3.318 3.318 0 00-3.317 3.316c0 1.826 1.49 3.326 3.317 3.326zm0-4.313a.987.987 0 010 1.975.988.988 0 010-1.975z" stroke="#EE4346" stroke-width=".8" mask="url(#c)"/><path d="M25.1 16.967c.224.298.672.652 1.491.652 2.134 0 3.801-2.217 3.801-5.04 0-2.822-1.667-5.04-3.8-5.04-.82 0-1.258.355-1.491.653-.55.726-.298 1.602-.056 2.45.168.587.354 1.257.354 1.928 0 .67-.186 1.341-.354 1.928-.242.867-.494 1.742.056 2.469zm2.963-4.378c0 .96-.298 1.76-.68 2.245.168-.615.354-1.398.354-2.245 0-.848-.186-1.621-.354-2.245.382.475.68 1.285.68 2.245zm-5.831 13.125c-.224-.298-.671-.652-1.49-.652-2.134 0-3.802 2.217-3.802 5.04s1.668 5.04 3.801 5.04c.82 0 1.258-.354 1.49-.652.55-.727.299-1.603.057-2.45-.168-.587-.354-1.258-.354-1.929 0-.67.186-1.341.354-1.928.242-.866.493-1.742-.056-2.469zm-2.953 4.388c0-.95.288-1.751.68-2.226-.168.614-.345 1.388-.345 2.226 0 .848.186 1.62.354 2.245-.4-.484-.69-1.295-.69-2.245zm-5.068-7.238a5.03 5.03 0 003.586-1.49 5.047 5.047 0 001.491-3.587 5.03 5.03 0 00-1.49-3.587 5.047 5.047 0 00-3.587-1.49 5.03 5.03 0 00-3.587 1.49c-1.974 1.975-1.974 5.198 0 7.183a5.077 5.077 0 003.587 1.48zm-2.6-5.944l1.035 1.034-.94.941a2.728 2.728 0 01-.094-1.975zm1.855 3.512l.829-.829.792.792c-.28.093-.569.14-.876.14-.252 0-.503-.037-.745-.103zm3.39-3.39c.066.242.103.484.103.745 0 .344-.065.68-.186.997l-.83-.83.914-.913zM15.33 15.28l-1.034 1.034-1.08-1.08c.316-.122.651-.187.996-.187.391-.01.773.075 1.118.233zm19.888 5.255a5.047 5.047 0 00-1.49 3.586c0 1.36.53 2.627 1.49 3.587.96.96 2.235 1.49 3.586 1.49a5.03 5.03 0 003.587-1.49c1.974-1.975 1.974-5.198 0-7.183a5.047 5.047 0 00-3.587-1.49 5.1 5.1 0 00-3.587 1.5zm4.704 1.08l-1.034 1.034-1.08-1.08c.316-.121.651-.187.996-.187.391-.009.773.075 1.118.233zm1.444 3.503l-.83-.83.904-.903a2.76 2.76 0 01-.074 1.733zm-5.068.121a2.68 2.68 0 01-.242-1.118c0-.298.047-.596.14-.875l1.043 1.043-.94.95zm1.76 1.528l.83-.83.792.793c-.28.093-.569.14-.876.14a2.88 2.88 0 01-.745-.103z" fill="#EE4346"/><mask id="d" maskUnits="userSpaceOnUse" x="23.868" y="26.997" width="12" height="11" fill="#000"><path fill="#fff" d="M23.868 26.997h12v11h-12z"/><path d="M29.824 28.332a3.47 3.47 0 00-4.956 3.13c0 1.155.578 2.217 1.5 2.85a3.47 3.47 0 003.456 3.224 3.476 3.476 0 003.456-3.223 3.464 3.464 0 001.5-2.851 3.47 3.47 0 00-3.466-3.465 3.59 3.59 0 00-1.49.335zm2.627 3.13c0 .475-.308.904-.755 1.071a1.17 1.17 0 00-.754 1.323.908.908 0 01.018.224 1.14 1.14 0 01-1.136 1.136 1.141 1.141 0 01-1.118-1.35 1.17 1.17 0 00-.755-1.323 1.126 1.126 0 01-.754-1.072 1.14 1.14 0 011.136-1.136c.345 0 .587.149.736.27.438.373 1.08.373 1.51 0 .148-.121.39-.27.735-.27a1.127 1.127 0 011.137 1.127z"/></mask><path d="M29.824 28.332a3.47 3.47 0 00-4.956 3.13c0 1.155.578 2.217 1.5 2.85a3.47 3.47 0 003.456 3.224 3.476 3.476 0 003.456-3.223 3.464 3.464 0 001.5-2.851 3.47 3.47 0 00-3.466-3.465 3.59 3.59 0 00-1.49.335zm2.627 3.13c0 .475-.308.904-.755 1.071a1.17 1.17 0 00-.754 1.323.908.908 0 01.018.224 1.14 1.14 0 01-1.136 1.136 1.141 1.141 0 01-1.118-1.35 1.17 1.17 0 00-.755-1.323 1.126 1.126 0 01-.754-1.072 1.14 1.14 0 011.136-1.136c.345 0 .587.149.736.27.438.373 1.08.373 1.51 0 .148-.121.39-.27.735-.27a1.127 1.127 0 011.137 1.127z" fill="#EE4346"/><path d="M29.824 28.332a3.47 3.47 0 00-4.956 3.13c0 1.155.578 2.217 1.5 2.85a3.47 3.47 0 003.456 3.224 3.476 3.476 0 003.456-3.223 3.464 3.464 0 001.5-2.851 3.47 3.47 0 00-3.466-3.465 3.59 3.59 0 00-1.49.335zm2.627 3.13c0 .475-.308.904-.755 1.071a1.17 1.17 0 00-.754 1.323.908.908 0 01.018.224 1.14 1.14 0 01-1.136 1.136 1.141 1.141 0 01-1.118-1.35 1.17 1.17 0 00-.755-1.323 1.126 1.126 0 01-.754-1.072 1.14 1.14 0 011.136-1.136c.345 0 .587.149.736.27.438.373 1.08.373 1.51 0 .148-.121.39-.27.735-.27a1.127 1.127 0 011.137 1.127z" stroke="#EE4346" stroke-width=".8" mask="url(#d)"/><mask id="e" maskUnits="userSpaceOnUse" x="12.217" y="1.761" width="12" height="12" fill="#000"><path fill="#fff" d="M12.217 1.761h12v12h-12z"/><path d="M16.922 11.545a3.456 3.456 0 002.543 1.127 3.5 3.5 0 002.161-.773 3.475 3.475 0 00.68-4.676 3.483 3.483 0 00-.615-3.167A3.464 3.464 0 0018.99 2.76c-.783 0-1.556.27-2.162.764a3.57 3.57 0 00-.95 1.192 3.426 3.426 0 00-1.37.67c-1.49 1.193-1.722 3.382-.53 4.873a3.434 3.434 0 002.944 1.285zm-.96-4.34c.252-.206.55-.252.745-.252a1.172 1.172 0 001.183-.95 1.11 1.11 0 01.401-.671c.26-.205.531-.252.708-.252a1.136 1.136 0 01.96 1.733 1.15 1.15 0 00.242 1.5 1.13 1.13 0 01-.019 1.751c-.26.205-.53.252-.708.252a1.13 1.13 0 01-1.006-.615 1.164 1.164 0 00-1.416-.56 1.15 1.15 0 01-1.258-.353 1.109 1.109 0 01.168-1.584z"/></mask><path d="M16.922 11.545a3.456 3.456 0 002.543 1.127 3.5 3.5 0 002.161-.773 3.475 3.475 0 00.68-4.676 3.483 3.483 0 00-.615-3.167A3.464 3.464 0 0018.99 2.76c-.783 0-1.556.27-2.162.764a3.57 3.57 0 00-.95 1.192 3.426 3.426 0 00-1.37.67c-1.49 1.193-1.722 3.382-.53 4.873a3.434 3.434 0 002.944 1.285zm-.96-4.34c.252-.206.55-.252.745-.252a1.172 1.172 0 001.183-.95 1.11 1.11 0 01.401-.671c.26-.205.531-.252.708-.252a1.136 1.136 0 01.96 1.733 1.15 1.15 0 00.242 1.5 1.13 1.13 0 01-.019 1.751c-.26.205-.53.252-.708.252a1.13 1.13 0 01-1.006-.615 1.164 1.164 0 00-1.416-.56 1.15 1.15 0 01-1.258-.353 1.109 1.109 0 01.168-1.584z" fill="#EE4346"/><path d="M16.922 11.545a3.456 3.456 0 002.543 1.127 3.5 3.5 0 002.161-.773 3.475 3.475 0 00.68-4.676 3.483 3.483 0 00-.615-3.167A3.464 3.464 0 0018.99 2.76c-.783 0-1.556.27-2.162.764a3.57 3.57 0 00-.95 1.192 3.426 3.426 0 00-1.37.67c-1.49 1.193-1.722 3.382-.53 4.873a3.434 3.434 0 002.944 1.285zm-.96-4.34c.252-.206.55-.252.745-.252a1.172 1.172 0 001.183-.95 1.11 1.11 0 01.401-.671c.26-.205.531-.252.708-.252a1.136 1.136 0 01.96 1.733 1.15 1.15 0 00.242 1.5 1.13 1.13 0 01-.019 1.751c-.26.205-.53.252-.708.252a1.13 1.13 0 01-1.006-.615 1.164 1.164 0 00-1.416-.56 1.15 1.15 0 01-1.258-.353 1.109 1.109 0 01.168-1.584z" stroke="#EE4346" stroke-width=".8" mask="url(#e)"/><mask id="f" maskUnits="userSpaceOnUse" x="30.637" y="12.047" width="9" height="9" fill="#000"><path fill="#fff" d="M30.637 12.047h9v9h-9z"/><path d="M32.237 13.688a1.175 1.175 0 00-.457 1.583 1.175 1.175 0 001.584.457c.01 0 .233-.121.605-.224l-.344 3.112a1.163 1.163 0 001.024 1.285c.047.01.084.01.13.01a1.16 1.16 0 001.156-1.034l.354-3.177c.26.121.53.28.801.494.214.177.475.26.736.26.335 0 .67-.148.904-.428.41-.503.326-1.23-.168-1.64-3.046-2.477-6.195-.773-6.325-.698z"/></mask><path d="M32.237 13.688a1.175 1.175 0 00-.457 1.583 1.175 1.175 0 001.584.457c.01 0 .233-.121.605-.224l-.344 3.112a1.163 1.163 0 001.024 1.285c.047.01.084.01.13.01a1.16 1.16 0 001.156-1.034l.354-3.177c.26.121.53.28.801.494.214.177.475.26.736.26.335 0 .67-.148.904-.428.41-.503.326-1.23-.168-1.64-3.046-2.477-6.195-.773-6.325-.698z" fill="#EE4346"/><path d="M32.237 13.688a1.175 1.175 0 00-.457 1.583 1.175 1.175 0 001.584.457c.01 0 .233-.121.605-.224l-.344 3.112a1.163 1.163 0 001.024 1.285c.047.01.084.01.13.01a1.16 1.16 0 001.156-1.034l.354-3.177c.26.121.53.28.801.494.214.177.475.26.736.26.335 0 .67-.148.904-.428.41-.503.326-1.23-.168-1.64-3.046-2.477-6.195-.773-6.325-.698z" stroke="#EE4346" stroke-width=".8" mask="url(#f)"/><mask id="g" maskUnits="userSpaceOnUse" x="5.192" y="22.395" width="9" height="8" fill="#000"><path fill="#fff" d="M5.192 22.395h9v8h-9z"/><path d="M10.177 29.944c.103.028.215.046.317.046a1.17 1.17 0 001.118-.848 1.167 1.167 0 00-.801-1.443c-.01 0-.252-.075-.587-.27l2.44-1.957a1.16 1.16 0 00.178-1.64 1.159 1.159 0 00-1.64-.176l-2.487 1.993a3.748 3.748 0 01-.215-.913c-.046-.633-.624-1.099-1.266-1.034a1.154 1.154 0 00-1.035 1.276c.401 3.904 3.83 4.928 3.978 4.966z"/></mask><path d="M10.177 29.944c.103.028.215.046.317.046a1.17 1.17 0 001.118-.848 1.167 1.167 0 00-.801-1.443c-.01 0-.252-.075-.587-.27l2.44-1.957a1.16 1.16 0 00.178-1.64 1.159 1.159 0 00-1.64-.176l-2.487 1.993a3.748 3.748 0 01-.215-.913c-.046-.633-.624-1.099-1.266-1.034a1.154 1.154 0 00-1.035 1.276c.401 3.904 3.83 4.928 3.978 4.966z" fill="#EE4346"/><path d="M10.177 29.944c.103.028.215.046.317.046a1.17 1.17 0 001.118-.848 1.167 1.167 0 00-.801-1.443c-.01 0-.252-.075-.587-.27l2.44-1.957a1.16 1.16 0 00.178-1.64 1.159 1.159 0 00-1.64-.176l-2.487 1.993a3.748 3.748 0 01-.215-.913c-.046-.633-.624-1.099-1.266-1.034a1.154 1.154 0 00-1.035 1.276c.401 3.904 3.83 4.928 3.978 4.966z" stroke="#EE4346" stroke-width=".8" mask="url(#g)"/></svg>