<svg fill="none" xmlns="http://www.w3.org/2000/svg" viewBox="0 0 123 35"><g clip-path="url(#clip0)"><path d="M33.051.009v.015c-.015 0-4.778-.015-6.048 4.56a4925.805 4925.805 0 01-4.536 16.087h-.907S18.203 8.838 17.023 4.568C15.753-.006 10.975.009 10.975.009H.098v34.79H10.98V14.135h.907l6.351 20.662h7.556l6.35-20.646h.907v20.646h10.882V.01H33.051zm39.753 0s-3.19.289-4.687 3.647L60.41 20.671h-.907V.009H48.62v34.79h10.277s3.342-.304 4.839-3.648l7.555-17.014h.907v20.661H83.08V.01H72.804zm15.116 15.8v18.99h10.882V23.71h11.789c5.141 0 9.491-3.297 11.109-7.897H87.92v-.005z" fill="#4DB45E"/><path d="M110.596.008H86.392c1.21 6.625 6.154 11.939 12.546 13.671 1.483.404 3.014.608 4.551.608h18.654c.166-.79.242-1.595.242-2.431 0-6.545-5.277-11.848-11.789-11.848z" fill="url(#paint0_linear)"/></g><defs><linearGradient id="paint0_linear" x1="86.392" y1="7.147" x2="122.385" y2="7.147" gradientUnits="userSpaceOnUse"><stop offset=".3" stop-color="#00B4E6"/><stop offset="1" stop-color="#088CCB"/></linearGradient><clipPath id="clip0"><path fill="#fff" transform="translate(.098)" d="M0 0h122.287v34.805H0z"/></clipPath></defs></svg>